  0
SECTION
  2
HEADER
  9
$ACADVER
  1
AC1032
  9
$ACADMAINTVER
 90
        4
  9
$DWGCODEPAGE
  3
ANSI_1252
  9
$LASTSAVEDBY
  1
rjcanova
  9
$REQUIREDVERSIONS
160
                 0
  9
$INSBASE
 10
0.0
 20
0.0
 30
0.0
  9
$EXTMIN
 10
-0.0000000000000853
 20
-36.79999999999995
 30
0.0
  9
$EXTMAX
 10
38.05999999999977
 20
0.0000000000000568
 30
0.0
  9
$LIMMIN
 10
0.0
 20
0.0
  9
$LIMMAX
 10
420.0
 20
297.0
  9
$ORTHOMODE
 70
     1
  9
$REGENMODE
 70
     1
  9
$FILLMODE
 70
     1
  9
$QTEXTMODE
 70
     0
  9
$MIRRTEXT
 70
     1
  9
$LTSCALE
 40
10.0
  9
$ATTMODE
 70
     1
  9
$TEXTSIZE
 40
4.0
  9
$TRACEWID
 40
1.0
  9
$TEXTSTYLE
  7
myStyle
  9
$CLAYER
  8
0
  9
$CELTYPE
  6
ByLayer
  9
$CECOLOR
 62
   256
  9
$CELTSCALE
 40
0.01
  9
$DISPSILH
 70
     0
  9
$DIMSCALE
 40
2.0
  9
$DIMASZ
 40
1.0
  9
$DIMEXO
 40
0.625
  9
$DIMDLI
 40
3.75
  9
$DIMRND
 40
0.0
  9
$DIMDLE
 40
0.0
  9
$DIMEXE
 40
1.25
  9
$DIMTP
 40
0.0
  9
$DIMTM
 40
0.0
  9
$DIMTXT
 40
1.75
  9
$DIMCEN
 40
-2.5
  9
$DIMTSZ
 40
0.0
  9
$DIMTOL
 70
     0
  9
$DIMLIM
 70
     0
  9
$DIMTIH
 70
     0
  9
$DIMTOH
 70
     0
  9
$DIMSE1
 70
     0
  9
$DIMSE2
 70
     0
  9
$DIMTAD
 70
     1
  9
$DIMZIN
 70
     8
  9
$DIMBLK
  1

  9
$DIMASO
 70
     1
  9
$DIMSHO
 70
     1
  9
$DIMPOST
  1

  9
$DIMAPOST
  1

  9
$DIMALT
 70
     0
  9
$DIMALTD
 70
     3
  9
$DIMALTF
 40
0.03937007874016
  9
$DIMLFAC
 40
1.0
  9
$DIMTOFL
 70
     1
  9
$DIMTVP
 40
0.0
  9
$DIMTIX
 70
     0
  9
$DIMSOXD
 70
     0
  9
$DIMSAH
 70
     0
  9
$DIMBLK1
  1

  9
$DIMBLK2
  1

  9
$DIMSTYLE
  2
ISO-25
  9
$DIMCLRD
 70
     0
  9
$DIMCLRE
 70
     0
  9
$DIMCLRT
 70
     0
  9
$DIMTFAC
 40
1.0
  9
$DIMGAP
 40
0.625
  9
$DIMJUST
 70
     0
  9
$DIMSD1
 70
     0
  9
$DIMSD2
 70
     0
  9
$DIMTOLJ
 70
     0
  9
$DIMTZIN
 70
     8
  9
$DIMALTZ
 70
     0
  9
$DIMALTTZ
 70
     0
  9
$DIMUPT
 70
     0
  9
$DIMDEC
 70
     2
  9
$DIMTDEC
 70
     2
  9
$DIMALTU
 70
     2
  9
$DIMALTTD
 70
     3
  9
$DIMTXSTY
  7
Standard
  9
$DIMAUNIT
 70
     0
  9
$DIMADEC
 70
     0
  9
$DIMALTRND
 40
0.0
  9
$DIMAZIN
 70
     0
  9
$DIMDSEP
 70
    46
  9
$DIMATFIT
 70
     3
  9
$DIMFRAC
 70
     0
  9
$DIMLDRBLK
  1

  9
$DIMLUNIT
 70
     2
  9
$DIMLWD
 70
    -2
  9
$DIMLWE
 70
    -2
  9
$DIMTMOVE
 70
     0
  9
$DIMFXL
 40
1.0
  9
$DIMFXLON
 70
     0
  9
$DIMJOGANG
 40
0.7853981633974483
  9
$DIMTFILL
 70
     0
  9
$DIMTFILLCLR
 70
     0
  9
$DIMARCSYM
 70
     0
  9
$DIMLTYPE
  6

  9
$DIMLTEX1
  6

  9
$DIMLTEX2
  6

  9
$DIMTXTDIRECTION
 70
     0
  9
$LUNITS
 70
     2
  9
$LUPREC
 70
     3
  9
$SKETCHINC
 40
1.0
  9
$FILLETRAD
 40
0.8
  9
$AUNITS
 70
     0
  9
$AUPREC
 70
     0
  9
$MENU
  1
.
  9
$ELEVATION
 40
0.0
  9
$PELEVATION
 40
0.0
  9
$THICKNESS
 40
0.0
  9
$LIMCHECK
 70
     0
  9
$CHAMFERA
 40
0.125
  9
$CHAMFERB
 40
0.125
  9
$CHAMFERC
 40
20.0
  9
$CHAMFERD
 40
0.0
  9
$SKPOLY
 70
     0
  9
$TDCREATE
 40
2455022.345692847
  9
$TDUCREATE
 40
2455022.637359514
  9
$TDUPDATE
 40
2460093.345006192
  9
$TDUUPDATE
 40
2460093.636672859
  9
$TDINDWG
 40
0.0001759028
  9
$TDUSRTIMER
 40
0.0001759028
  9
$USRTIMER
 70
     1
  9
$ANGBASE
 50
0.0
  9
$ANGDIR
 70
     0
  9
$PDMODE
 70
     0
  9
$PDSIZE
 40
0.0
  9
$PLINEWID
 40
0.0
  9
$SPLFRAME
 70
     0
  9
$SPLINETYPE
 70
     6
  9
$SPLINESEGS
 70
     8
  9
$HANDSEED
  5
1A8
  9
$SURFTAB1
 70
     6
  9
$SURFTAB2
 70
     6
  9
$SURFTYPE
 70
     6
  9
$SURFU
 70
     6
  9
$SURFV
 70
     6
  9
$UCSBASE
  2

  9
$UCSNAME
  2

  9
$UCSORG
 10
0.0
 20
0.0
 30
0.0
  9
$UCSXDIR
 10
1.0
 20
0.0
 30
0.0
  9
$UCSYDIR
 10
0.0
 20
1.0
 30
0.0
  9
$UCSORTHOREF
  2

  9
$UCSORTHOVIEW
 70
     0
  9
$UCSORGTOP
 10
0.0
 20
0.0
 30
0.0
  9
$UCSORGBOTTOM
 10
0.0
 20
0.0
 30
0.0
  9
$UCSORGLEFT
 10
0.0
 20
0.0
 30
0.0
  9
$UCSORGRIGHT
 10
0.0
 20
0.0
 30
0.0
  9
$UCSORGFRONT
 10
0.0
 20
0.0
 30
0.0
  9
$UCSORGBACK
 10
0.0
 20
0.0
 30
0.0
  9
$PUCSBASE
  2

  9
$PUCSNAME
  2

  9
$PUCSORG
 10
0.0
 20
0.0
 30
0.0
  9
$PUCSXDIR
 10
1.0
 20
0.0
 30
0.0
  9
$PUCSYDIR
 10
0.0
 20
1.0
 30
0.0
  9
$PUCSORTHOREF
  2

  9
$PUCSORTHOVIEW
 70
     0
  9
$PUCSORGTOP
 10
0.0
 20
0.0
 30
0.0
  9
$PUCSORGBOTTOM
 10
0.0
 20
0.0
 30
0.0
  9
$PUCSORGLEFT
 10
0.0
 20
0.0
 30
0.0
  9
$PUCSORGRIGHT
 10
0.0
 20
0.0
 30
0.0
  9
$PUCSORGFRONT
 10
0.0
 20
0.0
 30
0.0
  9
$PUCSORGBACK
 10
0.0
 20
0.0
 30
0.0
  9
$USERI1
 70
     0
  9
$USERI2
 70
     0
  9
$USERI3
 70
     0
  9
$USERI4
 70
     0
  9
$USERI5
 70
     0
  9
$USERR1
 40
0.0
  9
$USERR2
 40
0.0
  9
$USERR3
 40
0.0
  9
$USERR4
 40
0.0
  9
$USERR5
 40
0.0
  9
$WORLDVIEW
 70
     1
  9
$SHADEDGE
 70
     3
  9
$SHADEDIF
 70
    70
  9
$TILEMODE
 70
     1
  9
$MAXACTVP
 70
    64
  9
$PINSBASE
 10
0.0
 20
0.0
 30
0.0
  9
$PLIMCHECK
 70
     0
  9
$PEXTMIN
 10
1.000000000000000E+20
 20
1.000000000000000E+20
 30
1.000000000000000E+20
  9
$PEXTMAX
 10
-1.000000000000000E+20
 20
-1.000000000000000E+20
 30
-1.000000000000000E+20
  9
$PLIMMIN
 10
0.0
 20
0.0
  9
$PLIMMAX
 10
0.0
 20
0.0
  9
$UNITMODE
 70
     0
  9
$VISRETAIN
 70
     1
  9
$PLINEGEN
 70
     0
  9
$PSLTSCALE
 70
     1
  9
$TREEDEPTH
 70
  3020
  9
$CMLSTYLE
  2
Standard
  9
$CMLJUST
 70
     0
  9
$CMLSCALE
 40
20.0
  9
$PROXYGRAPHICS
 70
     1
  9
$MEASUREMENT
 70
     1
  9
$CELWEIGHT
370
    -1
  9
$ENDCAPS
280
     0
  9
$JOINSTYLE
280
     0
  9
$LWDISPLAY
290
     0
  9
$INSUNITS
 70
     4
  9
$HYPERLINKBASE
  1

  9
$STYLESHEET
  1

  9
$XEDIT
290
     1
  9
$CEPSNTYPE
380
     0
  9
$PSTYLEMODE
290
     1
  9
$FINGERPRINTGUID
  2
{EC6BB858-51AA-46EC-B484-6C9CC7AB3E2E}
  9
$VERSIONGUID
  2
{FAEB1C32-E019-11D5-929B-00C0DF256EC4}
  9
$EXTNAMES
290
     1
  9
$PSVPSCALE
 40
0.0
  9
$OLESTARTUP
290
     0
  9
$SORTENTS
280
   127
  9
$INDEXCTL
280
     0
  9
$HIDETEXT
280
     1
  9
$XCLIPFRAME
280
     0
  9
$HALOGAP
280
     0
  9
$OBSCOLOR
 70
   257
  9
$OBSLTYPE
280
     0
  9
$INTERSECTIONDISPLAY
280
     0
  9
$INTERSECTIONCOLOR
 70
   257
  9
$DIMASSOC
280
     2
  9
$PROJECTNAME
  1

  9
$CAMERADISPLAY
290
     0
  9
$LENSLENGTH
 40
50.0
  9
$CAMERAHEIGHT
 40
0.0
  9
$STEPSPERSEC
 40
2.0
  9
$STEPSIZE
 40
6.0
  9
$3DDWFPREC
 40
2.0
  9
$PSOLWIDTH
 40
0.25
  9
$PSOLHEIGHT
 40
4.0
  9
$LOFTANG1
 40
1.570796326794897
  9
$LOFTANG2
 40
1.570796326794897
  9
$LOFTMAG1
 40
0.0
  9
$LOFTMAG2
 40
0.0
  9
$LOFTPARAM
 70
     7
  9
$LOFTNORMALS
280
     1
  9
$LATITUDE
 40
37.795
  9
$LONGITUDE
 40
-122.394
  9
$NORTHDIRECTION
 40
0.0
  9
$TIMEZONE
 70
 -8000
  9
$LIGHTGLYPHDISPLAY
280
     1
  9
$TILEMODELIGHTSYNCH
280
     1
  9
$SOLIDHIST
280
     0
  9
$SHOWHIST
280
     1
  9
$DWFFRAME
280
     2
  9
$DGNFRAME
280
     2
  9
$REALWORLDSCALE
290
     1
  9
$INTERFERECOLOR
 62
   256
  9
$CSHADOW
280
     0
  9
$SHADOWPLANELOCATION
 40
0.0
  0
ENDSEC
  0
SECTION
  2
CLASSES
  0
CLASS
  1
ACDBDICTIONARYWDFLT
  2
AcDbDictionaryWithDefault
  3
ObjectDBX Classes
 90
        0
 91
        3
280
     0
281
     0
  0
CLASS
  1
MATERIAL
  2
AcDbMaterial
  3
ObjectDBX Classes
 90
     1153
 91
        3
280
     0
281
     0
  0
CLASS
  1
SORTENTSTABLE
  2
AcDbSortentsTable
  3
ObjectDBX Classes
 90
        0
 91
        3
280
     0
281
     0
  0
CLASS
  1
VISUALSTYLE
  2
AcDbVisualStyle
  3
ObjectDBX Classes
 90
     4095
 91
        3
280
     0
281
     0
  0
CLASS
  1
SUN
  2
AcDbSun
  3
SCENEOE
 90
     1153
 91
        3
280
     0
281
     0
  0
CLASS
  1
SCALE
  2
AcDbScale
  3
ObjectDBX Classes
 90
     1153
 91
        3
280
     0
281
     0
  0
CLASS
  1
DICTIONARYVAR
  2
AcDbDictionaryVar
  3
ObjectDBX Classes
 90
        0
 91
        3
280
     0
281
     0
  0
CLASS
  1
TABLESTYLE
  2
AcDbTableStyle
  3
ObjectDBX Classes
 90
     4095
 91
        3
280
     0
281
     0
  0
CLASS
  1
MLEADERSTYLE
  2
AcDbMLeaderStyle
  3
ACDB_MLEADERSTYLE_CLASS
 90
     4095
 91
        3
280
     0
281
     0
  0
CLASS
  1
CELLSTYLEMAP
  2
AcDbCellStyleMap
  3
ObjectDBX Classes
 90
     1152
 91
        3
280
     0
281
     0
  0
ENDSEC
  0
SECTION
  2
TABLES
  0
TABLE
  2
VPORT
  5
27
330
0
100
AcDbSymbolTable
 70
     1
  0
VPORT
  5
2B
330
27
100
AcDbSymbolTableRecord
100
AcDbViewportTableRecord
  2
*Active
 70
     0
 10
0.0
 20
0.0
 11
1.0
 21
1.0
 12
153.2169158878328
 22
-18.39999999999992
 13
0.0
 23
0.0
 14
10.0
 24
10.0
 15
10.0
 25
10.0
 16
0.0
 26
0.0
 36
1.0
 17
-134.1869158878329
 27
0.0
 37
0.0
 40
44.15999999999995
 41
1.03423913043478
 42
50.0
 43
0.0
 44
0.0
 50
0.0
 51
0.0
 71
    16
 72
  1000
 73
     1
 74
     2
 75
     0
 76
     0
 77
     0
 78
     0
281
     0
 65
     1
110
0.0
120
0.0
130
0.0
111
1.0
121
0.0
131
0.0
112
0.0
122
1.0
132
0.0
 79
     0
146
0.0
348
18B
 60
     3
 61
     5
292
     1
282
     1
141
0.0
142
0.0
 63
   256
  0
ENDTAB
  0
TABLE
  2
LTYPE
  5
E
330
0
100
AcDbSymbolTable
 70
     1
  0
LTYPE
  5
F
330
E
100
AcDbSymbolTableRecord
100
AcDbLinetypeTableRecord
  2
ByBlock
 70
     0
  3

 72
    65
 73
     0
 40
0.0
  0
LTYPE
  5
10
330
E
100
AcDbSymbolTableRecord
100
AcDbLinetypeTableRecord
  2
ByLayer
 70
     0
  3
Solid line
 72
    65
 73
     0
 40
0.0
  0
LTYPE
  5
D
330
E
100
AcDbSymbolTableRecord
100
AcDbLinetypeTableRecord
  2
Continuous
 70
     0
  3
Solid line
 72
    65
 73
     0
 40
0.0
  0
ENDTAB
  0
TABLE
  2
LAYER
  5
2
102
{ACAD_XDICTIONARY
360
3
102
}
330
0
100
AcDbSymbolTable
 70
     1
  0
LAYER
  5
1
330
2
100
AcDbSymbolTableRecord
100
AcDbLayerTableRecord
  2
0
 70
     0
 62
     7
  6
Continuous
370
    -3
390
8
347
B
348
0
  0
ENDTAB
  0
TABLE
  2
STYLE
  5
12
330
0
100
AcDbSymbolTable
 70
     2
  0
STYLE
  5
16
330
12
100
AcDbSymbolTableRecord
100
AcDbTextStyleTableRecord
  2
Standard
 70
     0
 40
0.0
 41
1.0
 50
0.0
 71
     0
 42
4.0
  3
arial.ttf
  4

1001
ACAD
1000
Arial
1071
        0
  0
STYLE
  5
11
330
12
100
AcDbSymbolTableRecord
100
AcDbTextStyleTableRecord
  2
myStyle
 70
     0
 40
4.0
 41
1.0
 50
0.0
 71
     0
 42
4.0
  3
arial.ttf
  4

1001
ACAD
1000
Arial
1071
        0
  0
ENDTAB
  0
TABLE
  2
VIEW
  5
25
330
0
100
AcDbSymbolTable
 70
     0
  0
ENDTAB
  0
TABLE
  2
UCS
  5
26
330
0
100
AcDbSymbolTable
 70
     0
  0
ENDTAB
  0
TABLE
  2
APPID
  5
7
330
0
100
AcDbSymbolTable
 70
     2
  0
APPID
  5
6
330
7
100
AcDbSymbolTableRecord
100
AcDbRegAppTableRecord
  2
ACAD
 70
     0
  0
APPID
  5
E5
330
7
100
AcDbSymbolTableRecord
100
AcDbRegAppTableRecord
  2
PE_URL
 70
     0
  0
ENDTAB
  0
TABLE
  2
DIMSTYLE
  5
14
330
0
100
AcDbSymbolTable
 70
     2
100
AcDbDimStyleTable
  0
DIMSTYLE
105
13
330
14
100
AcDbSymbolTableRecord
100
AcDbDimStyleTableRecord
  2
ISO-25
 70
     0
 41
1.0
 42
0.625
 43
3.75
 44
1.25
 73
     0
 74
     0
 77
     1
 78
     8
140
1.75
141
-2.5
143
0.03937007874016
147
0.625
171
     3
172
     1
178
     0
271
     2
272
     2
274
     3
283
     0
284
     8
340
16
  0
DIMSTYLE
105
15
330
14
100
AcDbSymbolTableRecord
100
AcDbDimStyleTableRecord
  2
STANDARD
 70
     0
178
     0
340
16
  0
ENDTAB
  0
TABLE
  2
BLOCK_RECORD
  5
19
330
0
100
AcDbSymbolTable
 70
     1
  0
BLOCK_RECORD
  5
1A
102
{ACAD_XDICTIONARY
360
1B
102
}
330
19
100
AcDbSymbolTableRecord
100
AcDbBlockTableRecord
  2
*Model_Space
340
1F
 70
     0
280
     1
281
     0
  0
BLOCK_RECORD
  5
21
330
19
100
AcDbSymbolTableRecord
100
AcDbBlockTableRecord
  2
*Paper_Space
340
24
 70
     0
280
     1
281
     0
  0
BLOCK_RECORD
  5
77
330
19
100
AcDbSymbolTableRecord
100
AcDbBlockTableRecord
  2
connector_5_fp
340
0
102
{BLKREFS
331
76
102
}
 70
     0
280
     1
281
     0
  0
ENDTAB
  0
ENDSEC
  0
SECTION
  2
BLOCKS
  0
BLOCK
  5
1D
330
1A
100
AcDbEntity
  8
0
100
AcDbBlockBegin
  2
*Model_Space
 70
     0
 10
0.0
 20
0.0
 30
0.0
  3
*Model_Space
  1

  0
ENDBLK
  5
1E
330
1A
100
AcDbEntity
  8
0
100
AcDbBlockEnd
  0
BLOCK
  5
22
330
21
100
AcDbEntity
 67
     1
  8
0
100
AcDbBlockBegin
  2
*Paper_Space
 70
     0
 10
0.0
 20
0.0
 30
0.0
  3
*Paper_Space
  1

  0
ENDBLK
  5
23
330
21
100
AcDbEntity
 67
     1
  8
0
100
AcDbBlockEnd
  0
BLOCK
  5
78
330
77
100
AcDbEntity
  8
0
100
AcDbBlockBegin
  2
connector_5_fp
 70
     0
 10
0.0
 20
0.0
 30
0.0
  3
connector_5_fp
  1

  0
LINE
  5
79
330
77
100
AcDbEntity
  8
0
100
AcDbLine
 10
-4.745799881248601
 20
-5.330150981687837
 30
0.0
 11
-4.748622336502493
 21
-5.330150981687837
 31
0.0
  0
LINE
  5
7A
330
77
100
AcDbEntity
  8
0
100
AcDbLine
 10
-5.563133789934327
 20
-2.450057964770565
 30
0.0
 11
-5.563133789934327
 21
-1.600057964770542
 31
0.0
  0
LINE
  5
7B
330
77
100
AcDbEntity
  8
0
100
AcDbLine
 10
-5.563133789934327
 20
-1.600057964770542
 30
0.0
 11
-4.961570968623292
 21
-1.600057964770542
 31
0.0
  0
LINE
  5
7C
330
77
100
AcDbEntity
  8
0
100
AcDbLine
 10
-4.961570968623292
 20
-1.600057964770542
 30
0.0
 11
-4.961570968623292
 21
-2.450057964770565
 31
0.0
  0
LINE
  5
7D
330
77
100
AcDbEntity
  8
0
100
AcDbLine
 10
-5.563133789934327
 20
-2.450057964770565
 30
0.0
 11
-4.961570968623292
 21
-2.450057964770565
 31
0.0
  0
LINE
  5
7E
330
77
100
AcDbEntity
  8
0
100
AcDbLine
 10
-4.459958136191361
 20
-5.099675367485872
 30
0.0
 11
-4.05998194980684
 21
-5.099675367485872
 31
0.0
  0
LINE
  5
7F
330
77
100
AcDbEntity
  8
0
100
AcDbLine
 10
-4.459958136191332
 20
-4.24967536748585
 30
0.0
 11
-4.459958136191361
 21
-5.099675367485872
 31
0.0
  0
LINE
  5
80
330
77
100
AcDbEntity
  8
0
100
AcDbLine
 10
-4.459958136191332
 20
-4.24967536748585
 30
0.0
 11
-4.059981949806811
 21
-4.24967536748585
 31
0.0
  0
LINE
  5
81
330
77
100
AcDbEntity
  8
0
100
AcDbLine
 10
-4.059981949806811
 20
-4.24967536748585
 30
0.0
 11
-4.05998194980684
 21
-5.099675367485872
 31
0.0
  0
LINE
  5
82
330
77
100
AcDbEntity
  8
0
100
AcDbLine
 10
-4.459958136191332
 20
-4.37467536748585
 30
0.0
 11
-4.459958136191361
 21
-4.974675367485872
 31
0.0
  0
LINE
  5
83
330
77
100
AcDbEntity
  8
0
100
AcDbLine
 10
-4.059981949806811
 20
-4.37467536748585
 30
0.0
 11
-4.05998194980684
 21
-4.974675367485872
 31
0.0
  0
LINE
  5
84
330
77
100
AcDbEntity
  8
0
100
AcDbLine
 10
-4.459958136191332
 20
-4.37467536748585
 30
0.0
 11
-4.459958136191361
 21
-4.974675367485872
 31
0.0
  0
LINE
  5
85
330
77
100
AcDbEntity
  8
0
100
AcDbLine
 10
-4.059981949806811
 20
-4.37467536748585
 30
0.0
 11
-4.05998194980684
 21
-4.974675367485872
 31
0.0
  0
LINE
  5
86
330
77
100
AcDbEntity
  8
0
100
AcDbLine
 10
-4.459958136191332
 20
-4.37467536748585
 30
0.0
 11
-4.459958136191361
 21
-4.974675367485872
 31
0.0
  0
LINE
  5
87
330
77
100
AcDbEntity
  8
0
100
AcDbLine
 10
-4.059981949806811
 20
-4.37467536748585
 30
0.0
 11
-4.05998194980684
 21
-4.974675367485872
 31
0.0
  0
LINE
  5
88
330
77
100
AcDbEntity
  8
0
100
AcDbLine
 10
-8.350000000000009
 20
-1.0
 30
0.0
 11
8.350000000000009
 21
-1.0
 31
0.0
  0
LINE
  5
89
330
77
100
AcDbEntity
  8
0
100
AcDbLine
 10
8.350000000000009
 20
-1.0
 30
0.0
 11
8.350000000000009
 21
-4.786513754889995
 31
0.0
  0
LINE
  5
8A
330
77
100
AcDbEntity
  8
0
100
AcDbLine
 10
8.350000000000009
 20
-4.786513754889995
 30
0.0
 11
4.306134559885649
 21
-5.699652285874038
 31
0.0
  0
LINE
  5
8B
330
77
100
AcDbEntity
  8
0
100
AcDbLine
 10
4.306134559885649
 20
-5.699652285874038
 30
0.0
 11
-4.306134256671399
 21
-5.699652285874038
 31
0.0
  0
LINE
  5
8C
330
77
100
AcDbEntity
  8
0
100
AcDbLine
 10
-4.306134256671399
 20
-5.699652285874038
 30
0.0
 11
-8.350000000000009
 21
-4.786513774207663
 31
0.0
  0
LINE
  5
8D
330
77
100
AcDbEntity
  8
0
100
AcDbLine
 10
-8.350000000000009
 20
-4.786513774207663
 30
0.0
 11
-8.350000000000009
 21
-1.0
 31
0.0
  0
LINE
  5
8E
330
77
100
AcDbEntity
  8
0
100
AcDbLine
 10
-9.34999999999998
 20
-6.699652285874038
 30
0.0
 11
-9.350000000000009
 21
0.0
 31
0.0
  0
LINE
  5
8F
330
77
100
AcDbEntity
  8
0
100
AcDbLine
 10
9.350000000000009
 20
0.0
 30
0.0
 11
9.350000000000009
 21
-6.699652285874038
 31
0.0
  0
LINE
  5
90
330
77
100
AcDbEntity
  8
0
100
AcDbLine
 10
-9.350000000000009
 20
0.0
 30
0.0
 11
9.350000000000009
 21
0.0
 31
0.0
  0
LINE
  5
91
330
77
100
AcDbEntity
  8
0
100
AcDbLine
 10
9.350000000000009
 20
-6.699652285874038
 30
0.0
 11
-9.34999999999998
 21
-6.699652285874038
 31
0.0
  0
LINE
  5
92
330
77
100
AcDbEntity
  8
0
100
AcDbLine
 10
-4.961570968623292
 20
-5.099675367486213
 30
0.0
 11
-4.961570968623292
 21
-4.249675367486191
 31
0.0
  0
LINE
  5
93
330
77
100
AcDbEntity
  8
0
100
AcDbLine
 10
-5.563133789934327
 20
-4.249675367486191
 30
0.0
 11
-5.563133789934327
 21
-5.099675367486213
 31
0.0
  0
LINE
  5
94
330
77
100
AcDbEntity
  8
0
100
AcDbLine
 10
-5.563133789934327
 20
-4.249675367486191
 30
0.0
 11
-4.961570968623292
 21
-4.249675367486191
 31
0.0
  0
LINE
  5
95
330
77
100
AcDbEntity
  8
0
100
AcDbLine
 10
-5.563133789934327
 20
-5.099675367486213
 30
0.0
 11
-4.961570968623292
 21
-5.099675367486213
 31
0.0
  0
LINE
  5
96
330
77
100
AcDbEntity
  8
0
100
AcDbLine
 10
-3.96171981004106
 20
-2.450057964770224
 30
0.0
 11
-3.56174362365654
 21
-2.450057964770224
 31
0.0
  0
LINE
  5
97
330
77
100
AcDbEntity
  8
0
100
AcDbLine
 10
-3.56174362365654
 20
-2.325057964770224
 30
0.0
 11
-3.56174362365654
 21
-1.725057964770201
 31
0.0
  0
LINE
  5
98
330
77
100
AcDbEntity
  8
0
100
AcDbLine
 10
-3.56174362365654
 20
-2.325057964770224
 30
0.0
 11
-3.56174362365654
 21
-1.725057964770201
 31
0.0
  0
LINE
  5
99
330
77
100
AcDbEntity
  8
0
100
AcDbLine
 10
-3.56174362365654
 20
-2.325057964770224
 30
0.0
 11
-3.56174362365654
 21
-1.725057964770201
 31
0.0
  0
LINE
  5
9A
330
77
100
AcDbEntity
  8
0
100
AcDbLine
 10
-3.56174362365654
 20
-2.450057964770224
 30
0.0
 11
-3.561743623656511
 21
-1.600057964770201
 31
0.0
  0
LINE
  5
9B
330
77
100
AcDbEntity
  8
0
100
AcDbLine
 10
-3.96171981004106
 20
-2.450057964770224
 30
0.0
 11
-3.961719810041032
 21
-1.600057964770201
 31
0.0
  0
LINE
  5
9C
330
77
100
AcDbEntity
  8
0
100
AcDbLine
 10
-3.961719810041032
 20
-1.600057964770201
 30
0.0
 11
-3.561743623656511
 21
-1.600057964770201
 31
0.0
  0
LINE
  5
9D
330
77
100
AcDbEntity
  8
0
100
AcDbLine
 10
-2.961844837843373
 20
-2.450057964770281
 30
0.0
 11
-2.961844837843344
 21
-1.600057964770258
 31
0.0
  0
LINE
  5
9E
330
77
100
AcDbEntity
  8
0
100
AcDbLine
 10
-2.961844837843344
 20
-1.600057964770258
 30
0.0
 11
-2.561868651458823
 21
-1.600057964770258
 31
0.0
  0
LINE
  5
9F
330
77
100
AcDbEntity
  8
0
100
AcDbLine
 10
-2.561868651458852
 20
-2.450057964770281
 30
0.0
 11
-2.561868651458823
 21
-1.600057964770258
 31
0.0
  0
LINE
  5
A0
330
77
100
AcDbEntity
  8
0
100
AcDbLine
 10
-2.961844837843373
 20
-2.450057964770281
 30
0.0
 11
-2.561868651458852
 21
-2.450057964770281
 31
0.0
  0
LINE
  5
A1
330
77
100
AcDbEntity
  8
0
100
AcDbLine
 10
-1.961969865645685
 20
-2.450057964770281
 30
0.0
 11
-1.961969865645656
 21
-1.600057964770258
 31
0.0
  0
LINE
  5
A2
330
77
100
AcDbEntity
  8
0
100
AcDbLine
 10
-1.961969865645656
 20
-1.600057964770258
 30
0.0
 11
-1.561993679261136
 21
-1.600057964770258
 31
0.0
  0
LINE
  5
A3
330
77
100
AcDbEntity
  8
0
100
AcDbLine
 10
-1.561993679261164
 20
-2.450057964770281
 30
0.0
 11
-1.561993679261136
 21
-1.600057964770258
 31
0.0
  0
LINE
  5
A4
330
77
100
AcDbEntity
  8
0
100
AcDbLine
 10
-1.961969865645685
 20
-2.450057964770281
 30
0.0
 11
-1.561993679261164
 21
-2.450057964770281
 31
0.0
  0
LINE
  5
A5
330
77
100
AcDbEntity
  8
0
100
AcDbLine
 10
-0.9620948934479969
 20
-2.450057964770338
 30
0.0
 11
-0.9620948934479969
 21
-1.600057964770315
 31
0.0
  0
LINE
  5
A6
330
77
100
AcDbEntity
  8
0
100
AcDbLine
 10
-0.9620948934479969
 20
-1.600057964770315
 30
0.0
 11
-0.5621187070634477
 21
-1.600057964770315
 31
0.0
  0
LINE
  5
A7
330
77
100
AcDbEntity
  8
0
100
AcDbLine
 10
-0.5621187070634761
 20
-2.450057964770338
 30
0.0
 11
-0.5621187070634477
 21
-1.600057964770315
 31
0.0
  0
LINE
  5
A8
330
77
100
AcDbEntity
  8
0
100
AcDbLine
 10
-0.9620948934479969
 20
-2.450057964770338
 30
0.0
 11
-0.5621187070634761
 21
-2.450057964770338
 31
0.0
  0
LINE
  5
A9
330
77
100
AcDbEntity
  8
0
100
AcDbLine
 10
0.0377800787496625
 20
-2.450057964770338
 30
0.0
 11
0.0377800787496909
 21
-1.600057964770315
 31
0.0
  0
LINE
  5
AA
330
77
100
AcDbEntity
  8
0
100
AcDbLine
 10
0.0377800787496909
 20
-1.600057964770315
 30
0.0
 11
0.4377562651342117
 21
-1.600057964770372
 31
0.0
  0
LINE
  5
AB
330
77
100
AcDbEntity
  8
0
100
AcDbLine
 10
0.4377562651341833
 20
-2.450057964770394
 30
0.0
 11
0.4377562651342117
 21
-1.600057964770372
 31
0.0
  0
LINE
  5
AC
330
77
100
AcDbEntity
  8
0
100
AcDbLine
 10
0.0377800787496625
 20
-2.450057964770338
 30
0.0
 11
0.4377562651341833
 21
-2.450057964770394
 31
0.0
  0
LINE
  5
AD
330
77
100
AcDbEntity
  8
0
100
AcDbLine
 10
1.03765505094735
 20
-2.450057964770394
 30
0.0
 11
1.037655050947379
 21
-1.600057964770372
 31
0.0
  0
LINE
  5
AE
330
77
100
AcDbEntity
  8
0
100
AcDbLine
 10
1.037655050947379
 20
-1.600057964770372
 30
0.0
 11
1.4376312373319
 21
-1.600057964770372
 31
0.0
  0
LINE
  5
AF
330
77
100
AcDbEntity
  8
0
100
AcDbLine
 10
1.437631237331871
 20
-2.450057964770394
 30
0.0
 11
1.4376312373319
 21
-1.600057964770372
 31
0.0
  0
LINE
  5
B0
330
77
100
AcDbEntity
  8
0
100
AcDbLine
 10
1.03765505094735
 20
-2.450057964770394
 30
0.0
 11
1.437631237331871
 21
-2.450057964770394
 31
0.0
  0
LINE
  5
B1
330
77
100
AcDbEntity
  8
0
100
AcDbLine
 10
2.037530023145038
 20
-2.450057964770394
 30
0.0
 11
2.037530023145067
 21
-1.600057964770372
 31
0.0
  0
LINE
  5
B2
330
77
100
AcDbEntity
  8
0
100
AcDbLine
 10
2.037530023145067
 20
-1.600057964770372
 30
0.0
 11
2.437506209529587
 21
-1.600057964770428
 31
0.0
  0
LINE
  5
B3
330
77
100
AcDbEntity
  8
0
100
AcDbLine
 10
2.437506209529559
 20
-2.450057964770451
 30
0.0
 11
2.437506209529587
 21
-1.600057964770428
 31
0.0
  0
LINE
  5
B4
330
77
100
AcDbEntity
  8
0
100
AcDbLine
 10
2.037530023145038
 20
-2.450057964770394
 30
0.0
 11
2.437506209529559
 21
-2.450057964770451
 31
0.0
  0
LINE
  5
B5
330
77
100
AcDbEntity
  8
0
100
AcDbLine
 10
3.037404995342726
 20
-2.450057964770451
 30
0.0
 11
3.037404995342754
 21
-1.600057964770428
 31
0.0
  0
LINE
  5
B6
330
77
100
AcDbEntity
  8
0
100
AcDbLine
 10
3.037404995342754
 20
-1.600057964770428
 30
0.0
 11
3.437381181727247
 21
-1.600057964770428
 31
0.0
  0
LINE
  5
B7
330
77
100
AcDbEntity
  8
0
100
AcDbLine
 10
3.437381181727247
 20
-2.450057964770451
 30
0.0
 11
3.437381181727247
 21
-1.600057964770428
 31
0.0
  0
LINE
  5
B8
330
77
100
AcDbEntity
  8
0
100
AcDbLine
 10
3.037404995342726
 20
-2.450057964770451
 30
0.0
 11
3.437381181727247
 21
-2.450057964770451
 31
0.0
  0
LINE
  5
B9
330
77
100
AcDbEntity
  8
0
100
AcDbLine
 10
4.037279967540385
 20
-2.450057964770451
 30
0.0
 11
4.037279967540414
 21
-1.600057964770428
 31
0.0
  0
LINE
  5
BA
330
77
100
AcDbEntity
  8
0
100
AcDbLine
 10
4.037279967540414
 20
-1.600057964770428
 30
0.0
 11
4.437256153924935
 21
-1.600057964770485
 31
0.0
  0
LINE
  5
BB
330
77
100
AcDbEntity
  8
0
100
AcDbLine
 10
4.437256153924906
 20
-2.450057964770508
 30
0.0
 11
4.437256153924935
 21
-1.600057964770485
 31
0.0
  0
LINE
  5
BC
330
77
100
AcDbEntity
  8
0
100
AcDbLine
 10
4.037279967540385
 20
-2.450057964770451
 30
0.0
 11
4.437256153924906
 21
-2.450057964770508
 31
0.0
  0
LINE
  5
BD
330
77
100
AcDbEntity
  8
0
100
AcDbLine
 10
-3.459958136191332
 20
-4.24967536748585
 30
0.0
 11
-3.059981949806811
 21
-4.249675367485906
 31
0.0
  0
LINE
  5
BE
330
77
100
AcDbEntity
  8
0
100
AcDbLine
 10
-3.459958136191332
 20
-4.24967536748585
 30
0.0
 11
-3.459958136191361
 21
-5.099675367485872
 31
0.0
  0
LINE
  5
BF
330
77
100
AcDbEntity
  8
0
100
AcDbLine
 10
-3.059981949806811
 20
-4.249675367485906
 30
0.0
 11
-3.05998194980684
 21
-5.099675367485929
 31
0.0
  0
LINE
  5
C0
330
77
100
AcDbEntity
  8
0
100
AcDbLine
 10
-3.459958136191361
 20
-5.099675367485872
 30
0.0
 11
-3.05998194980684
 21
-5.099675367485929
 31
0.0
  0
LINE
  5
C1
330
77
100
AcDbEntity
  8
0
100
AcDbLine
 10
-2.459958136191332
 20
-4.249675367485906
 30
0.0
 11
-2.059981949806811
 21
-4.249675367485906
 31
0.0
  0
LINE
  5
C2
330
77
100
AcDbEntity
  8
0
100
AcDbLine
 10
-2.459958136191332
 20
-4.249675367485906
 30
0.0
 11
-2.459958136191361
 21
-5.099675367485929
 31
0.0
  0
LINE
  5
C3
330
77
100
AcDbEntity
  8
0
100
AcDbLine
 10
-2.059981949806811
 20
-4.249675367485906
 30
0.0
 11
-2.05998194980684
 21
-5.099675367485929
 31
0.0
  0
LINE
  5
C4
330
77
100
AcDbEntity
  8
0
100
AcDbLine
 10
-2.459958136191361
 20
-5.099675367485929
 30
0.0
 11
-2.05998194980684
 21
-5.099675367485929
 31
0.0
  0
LINE
  5
C5
330
77
100
AcDbEntity
  8
0
100
AcDbLine
 10
-1.459958136191332
 20
-4.249675367485963
 30
0.0
 11
-1.059981949806811
 21
-4.249675367485963
 31
0.0
  0
LINE
  5
C6
330
77
100
AcDbEntity
  8
0
100
AcDbLine
 10
-1.459958136191332
 20
-4.249675367485963
 30
0.0
 11
-1.459958136191361
 21
-5.099675367485986
 31
0.0
  0
LINE
  5
C7
330
77
100
AcDbEntity
  8
0
100
AcDbLine
 10
-1.059981949806811
 20
-4.249675367485963
 30
0.0
 11
-1.05998194980684
 21
-5.099675367485986
 31
0.0
  0
LINE
  5
C8
330
77
100
AcDbEntity
  8
0
100
AcDbLine
 10
-1.459958136191361
 20
-5.099675367485986
 30
0.0
 11
-1.05998194980684
 21
-5.099675367485986
 31
0.0
  0
LINE
  5
C9
330
77
100
AcDbEntity
  8
0
100
AcDbLine
 10
-0.4599581361913323
 20
-4.249675367485963
 30
0.0
 11
-0.0599819498068115
 21
-4.249675367485963
 31
0.0
  0
LINE
  5
CA
330
77
100
AcDbEntity
  8
0
100
AcDbLine
 10
-0.4599581361913323
 20
-4.249675367485963
 30
0.0
 11
-0.4599581361913607
 21
-5.099675367485986
 31
0.0
  0
LINE
  5
CB
330
77
100
AcDbEntity
  8
0
100
AcDbLine
 10
-0.0599819498068115
 20
-4.249675367485963
 30
0.0
 11
-0.0599819498068399
 21
-5.099675367485986
 31
0.0
  0
LINE
  5
CC
330
77
100
AcDbEntity
  8
0
100
AcDbLine
 10
-0.4599581361913607
 20
-5.099675367485986
 30
0.0
 11
-0.0599819498068399
 21
-5.099675367485986
 31
0.0
  0
LINE
  5
CD
330
77
100
AcDbEntity
  8
0
100
AcDbLine
 10
0.5400418638086677
 20
-4.24967536748602
 30
0.0
 11
0.9400180501931885
 21
-4.24967536748602
 31
0.0
  0
LINE
  5
CE
330
77
100
AcDbEntity
  8
0
100
AcDbLine
 10
0.5400418638086677
 20
-4.24967536748602
 30
0.0
 11
0.5400418638086393
 21
-5.099675367486043
 31
0.0
  0
LINE
  5
CF
330
77
100
AcDbEntity
  8
0
100
AcDbLine
 10
0.9400180501931885
 20
-4.24967536748602
 30
0.0
 11
0.9400180501931601
 21
-5.099675367486043
 31
0.0
  0
LINE
  5
D0
330
77
100
AcDbEntity
  8
0
100
AcDbLine
 10
0.5400418638086393
 20
-5.099675367486043
 30
0.0
 11
0.9400180501931601
 21
-5.099675367486043
 31
0.0
  0
LINE
  5
D1
330
77
100
AcDbEntity
  8
0
100
AcDbLine
 10
1.540041863808668
 20
-4.24967536748602
 30
0.0
 11
1.940018050193189
 21
-4.24967536748602
 31
0.0
  0
LINE
  5
D2
330
77
100
AcDbEntity
  8
0
100
AcDbLine
 10
1.540041863808668
 20
-4.24967536748602
 30
0.0
 11
1.540041863808639
 21
-5.099675367486043
 31
0.0
  0
LINE
  5
D3
330
77
100
AcDbEntity
  8
0
100
AcDbLine
 10
1.940018050193189
 20
-4.24967536748602
 30
0.0
 11
1.94001805019316
 21
-5.099675367486043
 31
0.0
  0
LINE
  5
D4
330
77
100
AcDbEntity
  8
0
100
AcDbLine
 10
1.540041863808639
 20
-5.099675367486043
 30
0.0
 11
1.94001805019316
 21
-5.099675367486043
 31
0.0
  0
LINE
  5
D5
330
77
100
AcDbEntity
  8
0
100
AcDbLine
 10
2.540041863808668
 20
-4.249675367486077
 30
0.0
 11
2.940018050193189
 21
-4.249675367486077
 31
0.0
  0
LINE
  5
D6
330
77
100
AcDbEntity
  8
0
100
AcDbLine
 10
2.540041863808668
 20
-4.249675367486077
 30
0.0
 11
2.540041863808639
 21
-5.0996753674861
 31
0.0
  0
LINE
  5
D7
330
77
100
AcDbEntity
  8
0
100
AcDbLine
 10
2.940018050193189
 20
-4.249675367486077
 30
0.0
 11
2.94001805019316
 21
-5.0996753674861
 31
0.0
  0
LINE
  5
D8
330
77
100
AcDbEntity
  8
0
100
AcDbLine
 10
2.540041863808639
 20
-5.0996753674861
 30
0.0
 11
2.94001805019316
 21
-5.0996753674861
 31
0.0
  0
LINE
  5
D9
330
77
100
AcDbEntity
  8
0
100
AcDbLine
 10
3.540041863808668
 20
-4.249675367486077
 30
0.0
 11
3.940018050193189
 21
-4.249675367486077
 31
0.0
  0
LINE
  5
DA
330
77
100
AcDbEntity
  8
0
100
AcDbLine
 10
3.540041863808668
 20
-4.249675367486077
 30
0.0
 11
3.540041863808639
 21
-5.0996753674861
 31
0.0
  0
LINE
  5
DB
330
77
100
AcDbEntity
  8
0
100
AcDbLine
 10
3.940018050193189
 20
-4.249675367486077
 30
0.0
 11
3.94001805019316
 21
-5.0996753674861
 31
0.0
  0
LINE
  5
DC
330
77
100
AcDbEntity
  8
0
100
AcDbLine
 10
3.540041863808639
 20
-5.0996753674861
 30
0.0
 11
3.94001805019316
 21
-5.0996753674861
 31
0.0
  0
LINE
  5
DD
330
77
100
AcDbEntity
  8
0
100
AcDbLine
 10
4.934563805815387
 20
-1.600057964770542
 30
0.0
 11
5.536126627126421
 21
-1.600057964770542
 31
0.0
  0
LINE
  5
DE
330
77
100
AcDbEntity
  8
0
100
AcDbLine
 10
5.536126627126421
 20
-1.600057964770542
 30
0.0
 11
5.536126627126421
 21
-2.450057964770565
 31
0.0
  0
LINE
  5
DF
330
77
100
AcDbEntity
  8
0
100
AcDbLine
 10
4.934563805815387
 20
-2.450057964770565
 30
0.0
 11
4.934563805815387
 21
-1.600057964770542
 31
0.0
  0
LINE
  5
E0
330
77
100
AcDbEntity
  8
0
100
AcDbLine
 10
4.934563805815387
 20
-2.450057964770565
 30
0.0
 11
5.536126627126421
 21
-2.450057964770565
 31
0.0
  0
LINE
  5
E1
330
77
100
AcDbEntity
  8
0
100
AcDbLine
 10
4.934564401787881
 20
-4.249675367486191
 30
0.0
 11
5.536127223098887
 21
-4.249675367486191
 31
0.0
  0
LINE
  5
E2
330
77
100
AcDbEntity
  8
0
100
AcDbLine
 10
4.934564401787881
 20
-4.249675367486191
 30
0.0
 11
4.934564401787881
 21
-5.099675367486213
 31
0.0
  0
LINE
  5
E3
330
77
100
AcDbEntity
  8
0
100
AcDbLine
 10
4.934564401787881
 20
-5.099675367486213
 30
0.0
 11
5.536127223098916
 21
-5.099675367486213
 31
0.0
  0
LINE
  5
E4
330
77
100
AcDbEntity
  8
0
 48
0.01
100
AcDbLine
 10
5.536127223098916
 20
-5.099675367486213
 30
0.0
 11
5.536127223098887
 21
-4.249675367486191
 31
0.0
1001
PE_URL
1000

  0
TEXT
  5
E6
330
77
100
AcDbEntity
  8
0
100
AcDbText
 10
3.760484928781651
 20
0.6209441098562252
 30
0.0
 40
1.0
  1
1
 50
360.0
  7
myStyle
100
AcDbText
1001
PE_URL
1000

  0
TEXT
  5
E7
330
77
100
AcDbEntity
  8
0
100
AcDbText
 10
-4.470027776794339
 20
0.4944071561694159
 30
0.0
 40
1.0
  1
17
 50
360.0
  7
myStyle
100
AcDbText
1001
PE_URL
1000

  0
TEXT
  5
E8
330
77
100
AcDbEntity
  8
0
100
AcDbText
 10
3.349239829299719
 20
-7.940546176591283
 30
0.0
 40
1.0
  1
2
 50
360.0
  7
myStyle
100
AcDbText
1001
PE_URL
1000

  0
TEXT
  5
E9
330
77
100
AcDbEntity
  8
0
100
AcDbText
 10
-4.912907114698058
 20
-7.940546176591283
 30
0.0
 40
1.0
  1
18
 50
360.0
  7
myStyle
100
AcDbText
1001
PE_URL
1000

  0
ENDBLK
  5
EA
330
77
100
AcDbEntity
  8
0
100
AcDbBlockEnd
  0
ENDSEC
  0
SECTION
  2
ENTITIES
  0
LINE
  5
54
330
1A
100
AcDbEntity
  8
0
 48
0.01
100
AcDbLine
 10
12.4099999999998
 20
-33.19999999999993
 30
0.0
 11
16.67999999999988
 21
-33.19999999999993
 31
0.0
  0
LINE
  5
55
330
1A
100
AcDbEntity
  8
0
 48
0.01
100
AcDbLine
 10
21.37999999999973
 20
-33.19999999999993
 30
0.0
 11
25.64999999999981
 21
-33.19999999999993
 31
0.0
  0
LINE
  5
56
330
1A
100
AcDbEntity
  8
0
 48
0.01
100
AcDbLine
 10
12.4099999999998
 20
-21.19999999999999
 30
0.0
 11
16.42999999999988
 21
-21.19999999999999
 31
0.0
  0
LINE
  5
57
330
1A
100
AcDbEntity
  8
0
 48
0.01
100
AcDbLine
 10
21.62999999999973
 20
-21.19999999999999
 30
0.0
 11
25.64999999999981
 21
-21.19999999999999
 31
0.0
  0
LINE
  5
58
330
1A
100
AcDbEntity
  8
0
 48
0.01
100
AcDbLine
 10
26.64999999999981
 20
-32.19999999999993
 30
0.0
 11
26.64999999999981
 21
-29.55000000000001
 31
0.0
  0
LINE
  5
59
330
1A
100
AcDbEntity
  8
0
 48
0.01
100
AcDbLine
 10
26.64999999999981
 20
-24.85000000000002
 30
0.0
 11
26.64999999999981
 21
-22.19999999999999
 31
0.0
  0
LINE
  5
5A
330
1A
100
AcDbEntity
  8
0
 48
0.01
100
AcDbLine
 10
11.4099999999998
 20
-32.19999999999993
 30
0.0
 11
11.4099999999998
 21
-29.55000000000001
 31
0.0
  0
LINE
  5
5B
330
1A
100
AcDbEntity
  8
0
 48
0.01
100
AcDbLine
 10
11.4099999999998
 20
-24.85000000000002
 30
0.0
 11
11.4099999999998
 21
-22.19999999999999
 31
0.0
  0
ARC
  5
5C
330
1A
100
AcDbEntity
  8
0
 48
0.01
100
AcDbCircle
 10
12.4099999999998
 20
-22.19999999999999
 30
0.0
 40
0.9999999999999997
100
AcDbArc
 50
90.0
 51
180.0
  0
ARC
  5
5D
330
1A
100
AcDbEntity
  8
0
 48
0.01
100
AcDbCircle
 10
25.64999999999981
 20
-22.19999999999999
 30
0.0
 40
0.9999999999999997
100
AcDbArc
 50
0.0
 51
90.0
  0
ARC
  5
5E
330
1A
100
AcDbEntity
  8
0
 48
0.01
100
AcDbCircle
 10
12.4099999999998
 20
-32.19999999999993
 30
0.0
 40
0.9999999999999997
100
AcDbArc
 50
180.0
 51
270.0
  0
ARC
  5
5F
330
1A
100
AcDbEntity
  8
0
 48
0.01
100
AcDbCircle
 10
25.64999999999981
 20
-32.19999999999993
 30
0.0
 40
0.9999999999999997
100
AcDbArc
 50
270.0
 51
0.0
  0
LINE
  5
60
330
1A
100
AcDbEntity
  8
0
 48
0.01
100
AcDbLine
 10
12.42999999999981
 20
-31.93000000000001
 30
0.0
 11
12.92999999999981
 21
-31.93000000000001
 31
0.0
  0
LINE
  5
61
330
1A
100
AcDbEntity
  8
0
 48
0.01
100
AcDbLine
 10
12.67999999999981
 20
-31.68000000000001
 30
0.0
 11
12.67999999999981
 21
-32.18000000000001
 31
0.0
  0
LINE
  5
62
330
1A
100
AcDbEntity
  8
0
 48
0.01
100
AcDbLine
 10
14.9699999999998
 20
-31.93000000000001
 30
0.0
 11
15.4699999999998
 21
-31.93000000000001
 31
0.0
  0
LINE
  5
63
330
1A
100
AcDbEntity
  8
0
 48
0.01
100
AcDbLine
 10
15.2199999999998
 20
-31.68000000000001
 30
0.0
 11
15.2199999999998
 21
-32.18000000000001
 31
0.0
  0
LINE
  5
64
330
1A
100
AcDbEntity
  8
0
 48
0.01
100
AcDbLine
 10
17.50999999999979
 20
-31.93000000000001
 30
0.0
 11
18.00999999999979
 21
-31.93000000000001
 31
0.0
  0
LINE
  5
65
330
1A
100
AcDbEntity
  8
0
 48
0.01
100
AcDbLine
 10
17.75999999999979
 20
-31.68000000000001
 30
0.0
 11
17.75999999999979
 21
-32.18000000000001
 31
0.0
  0
LINE
  5
66
330
1A
100
AcDbEntity
  8
0
 48
0.01
100
AcDbLine
 10
20.04999999999981
 20
-31.93000000000001
 30
0.0
 11
20.54999999999981
 21
-31.93000000000001
 31
0.0
  0
LINE
  5
67
330
1A
100
AcDbEntity
  8
0
 48
0.01
100
AcDbLine
 10
20.29999999999981
 20
-31.68000000000001
 30
0.0
 11
20.29999999999981
 21
-32.18000000000001
 31
0.0
  0
LINE
  5
68
330
1A
100
AcDbEntity
  8
0
 48
0.01
100
AcDbLine
 10
22.5899999999998
 20
-31.93000000000001
 30
0.0
 11
23.0899999999998
 21
-31.93000000000001
 31
0.0
  0
LINE
  5
69
330
1A
100
AcDbEntity
  8
0
 48
0.01
100
AcDbLine
 10
22.8399999999998
 20
-31.68000000000001
 30
0.0
 11
22.8399999999998
 21
-32.18000000000001
 31
0.0
  0
LINE
  5
6A
330
1A
100
AcDbEntity
  8
0
 48
0.01
100
AcDbLine
 10
25.1299999999998
 20
-31.93000000000001
 30
0.0
 11
25.6299999999998
 21
-31.93000000000001
 31
0.0
  0
LINE
  5
6B
330
1A
100
AcDbEntity
  8
0
 48
0.01
100
AcDbLine
 10
25.3799999999998
 20
-31.68000000000001
 30
0.0
 11
25.3799999999998
 21
-32.18000000000001
 31
0.0
  0
LINE
  5
6C
330
1A
100
AcDbEntity
  8
0
 48
0.01
100
AcDbLine
 10
15.0299999999998
 20
-25.93000000000001
 30
0.0
 11
15.5299999999998
 21
-25.93000000000001
 31
0.0
  0
LINE
  5
6D
330
1A
100
AcDbEntity
  8
0
 48
0.01
100
AcDbLine
 10
15.2799999999998
 20
-25.68000000000001
 30
0.0
 11
15.2799999999998
 21
-26.18000000000001
 31
0.0
  0
LINE
  5
6E
330
1A
100
AcDbEntity
  8
0
 48
0.01
100
AcDbLine
 10
17.5299999999998
 20
-25.93000000000001
 30
0.0
 11
18.0299999999998
 21
-25.93000000000001
 31
0.0
  0
LINE
  5
6F
330
1A
100
AcDbEntity
  8
0
 48
0.01
100
AcDbLine
 10
17.7799999999998
 20
-25.68000000000001
 30
0.0
 11
17.7799999999998
 21
-26.18000000000001
 31
0.0
  0
LINE
  5
70
330
1A
100
AcDbEntity
  8
0
 48
0.01
100
AcDbLine
 10
20.0299999999998
 20
-25.93000000000001
 30
0.0
 11
20.5299999999998
 21
-25.93000000000001
 31
0.0
  0
LINE
  5
71
330
1A
100
AcDbEntity
  8
0
 48
0.01
100
AcDbLine
 10
20.2799999999998
 20
-25.68000000000001
 30
0.0
 11
20.2799999999998
 21
-26.18000000000001
 31
0.0
  0
LINE
  5
72
330
1A
100
AcDbEntity
  8
0
 48
0.01
100
AcDbLine
 10
22.5299999999998
 20
-25.93000000000001
 30
0.0
 11
23.0299999999998
 21
-25.93000000000001
 31
0.0
  0
LINE
  5
73
330
1A
100
AcDbEntity
  8
0
 48
0.01
100
AcDbLine
 10
22.7799999999998
 20
-25.68000000000001
 30
0.0
 11
22.7799999999998
 21
-26.18000000000001
 31
0.0
  0
LINE
  5
74
330
1A
100
AcDbEntity
  8
0
 48
0.01
100
AcDbLine
 10
24.12999999999982
 20
-28.12999999999994
 30
0.0
 11
24.62999999999982
 21
-28.12999999999994
 31
0.0
  0
LINE
  5
75
330
1A
100
AcDbEntity
  8
0
 48
0.01
100
AcDbLine
 10
24.37999999999982
 20
-27.87999999999994
 30
0.0
 11
24.37999999999982
 21
-28.37999999999994
 31
0.0
  0
INSERT
  5
76
330
1A
100
AcDbEntity
  8
0
 48
0.01
100
AcDbBlockReference
  2
connector_5_fp
 10
19.02999999999986
 20
-6.099999999999966
 30
0.0
 50
360.0
  0
LINE
  5
EB
330
1A
100
AcDbEntity
  8
0
 48
0.01
100
AcDbLine
 10
4.699999999999818
 20
-3.599999999999966
 30
0.0
 11
5.000000000000085
 21
-3.599999999999966
 31
0.0
  0
LINE
  5
EC
330
1A
100
AcDbEntity
  8
0
 48
0.01
100
AcDbLine
 10
8.599999999999966
 20
-3.599999999999966
 30
0.0
 11
16.67999999999996
 21
-3.599999999999966
 31
0.0
  0
LINE
  5
ED
330
1A
100
AcDbEntity
  8
0
 48
0.01
100
AcDbLine
 10
8.599999999999909
 20
-19.59999999999997
 30
0.0
 11
16.67999999999988
 21
-19.59999999999997
 31
0.0
  0
LINE
  5
EE
330
1A
100
AcDbEntity
  8
0
 48
0.01
100
AcDbLine
 10
21.37999999999981
 20
-19.59999999999991
 30
0.0
 11
29.45999999999981
 21
-19.59999999999997
 31
0.0
  0
LINE
  5
EF
330
1A
100
AcDbEntity
  8
0
 48
0.01
100
AcDbLine
 10
7.599999999999966
 20
-4.599999999999966
 30
0.0
 11
7.599999999999937
 21
-9.250000000000057
 31
0.0
  0
LINE
  5
F0
330
1A
100
AcDbEntity
  8
0
 48
0.01
100
AcDbLine
 10
7.599999999999937
 20
-13.94999999999999
 30
0.0
 11
7.599999999999909
 21
-18.59999999999997
 31
0.0
  0
LINE
  5
F1
330
1A
100
AcDbEntity
  8
0
 48
0.01
100
AcDbLine
 10
8.569999999999936
 20
-18.32999999999998
 30
0.0
 11
9.169999999999845
 21
-18.32999999999998
 31
0.0
  0
LINE
  5
F2
330
1A
100
AcDbEntity
  8
0
 48
0.01
100
AcDbLine
 10
8.86999999999989
 20
-18.63
 30
0.0
 11
8.86999999999989
 21
-18.03000000000003
 31
0.0
  0
LINE
  5
F3
330
1A
100
AcDbEntity
  8
0
 48
0.01
100
AcDbLine
 10
30.45999999999981
 20
-4.599999999999966
 30
0.0
 11
30.45999999999981
 21
-9.249999999999943
 31
0.0
  0
LINE
  5
F4
330
1A
100
AcDbEntity
  8
0
 48
0.01
100
AcDbLine
 10
30.45999999999981
 20
-13.94999999999987
 30
0.0
 11
30.45999999999981
 21
-18.59999999999997
 31
0.0
  0
LINE
  5
F5
330
1A
100
AcDbEntity
  8
0
 48
0.01
100
AcDbLine
 10
11.10999999999993
 20
-18.32999999999998
 30
0.0
 11
11.70999999999984
 21
-18.32999999999998
 31
0.0
  0
LINE
  5
F6
330
1A
100
AcDbEntity
  8
0
 48
0.01
100
AcDbLine
 10
11.40999999999988
 20
-18.63
 30
0.0
 11
11.40999999999988
 21
-18.03000000000003
 31
0.0
  0
LINE
  5
F7
330
1A
100
AcDbEntity
  8
0
 48
0.01
100
AcDbLine
 10
13.64999999999992
 20
-18.32999999999998
 30
0.0
 11
14.24999999999983
 21
-18.32999999999998
 31
0.0
  0
LINE
  5
F8
330
1A
100
AcDbEntity
  8
0
 48
0.01
100
AcDbLine
 10
13.94999999999987
 20
-18.63
 30
0.0
 11
13.94999999999987
 21
-18.03000000000003
 31
0.0
  0
LINE
  5
F9
330
1A
100
AcDbEntity
  8
0
 48
0.01
100
AcDbLine
 10
16.18999999999991
 20
-18.32999999999998
 30
0.0
 11
16.78999999999982
 21
-18.32999999999998
 31
0.0
  0
LINE
  5
FA
330
1A
100
AcDbEntity
  8
0
 48
0.01
100
AcDbLine
 10
16.48999999999987
 20
-18.63
 30
0.0
 11
16.48999999999987
 21
-18.03000000000003
 31
0.0
  0
LINE
  5
FB
330
1A
100
AcDbEntity
  8
0
 48
0.01
100
AcDbLine
 10
18.72999999999992
 20
-18.32999999999998
 30
0.0
 11
19.32999999999983
 21
-18.32999999999998
 31
0.0
  0
LINE
  5
FC
330
1A
100
AcDbEntity
  8
0
 48
0.01
100
AcDbLine
 10
19.02999999999987
 20
-18.63
 30
0.0
 11
19.02999999999987
 21
-18.03000000000003
 31
0.0
  0
LINE
  5
FD
330
1A
100
AcDbEntity
  8
0
 48
0.01
100
AcDbLine
 10
21.26999999999992
 20
-18.32999999999998
 30
0.0
 11
21.86999999999983
 21
-18.32999999999998
 31
0.0
  0
LINE
  5
FE
330
1A
100
AcDbEntity
  8
0
 48
0.01
100
AcDbLine
 10
21.56999999999988
 20
-18.63
 30
0.0
 11
21.56999999999988
 21
-18.03000000000003
 31
0.0
  0
LINE
  5
FF
330
1A
100
AcDbEntity
  8
0
 48
0.01
100
AcDbLine
 10
23.80999999999992
 20
-18.32999999999998
 30
0.0
 11
24.40999999999983
 21
-18.32999999999998
 31
0.0
  0
LINE
  5
100
330
1A
100
AcDbEntity
  8
0
 48
0.01
100
AcDbLine
 10
24.10999999999987
 20
-18.63
 30
0.0
 11
24.10999999999987
 21
-18.03000000000003
 31
0.0
  0
LINE
  5
101
330
1A
100
AcDbEntity
  8
0
 48
0.01
100
AcDbLine
 10
26.34999999999992
 20
-18.32999999999998
 30
0.0
 11
26.94999999999983
 21
-18.32999999999998
 31
0.0
  0
LINE
  5
102
330
1A
100
AcDbEntity
  8
0
 48
0.01
100
AcDbLine
 10
26.64999999999988
 20
-18.63
 30
0.0
 11
26.64999999999988
 21
-18.03000000000003
 31
0.0
  0
LINE
  5
103
330
1A
100
AcDbEntity
  8
0
 48
0.01
100
AcDbLine
 10
28.88999999999993
 20
-18.32999999999998
 30
0.0
 11
29.48999999999984
 21
-18.32999999999998
 31
0.0
  0
LINE
  5
104
330
1A
100
AcDbEntity
  8
0
 48
0.01
100
AcDbLine
 10
29.18999999999988
 20
-18.63
 30
0.0
 11
29.18999999999988
 21
-18.03000000000003
 31
0.0
  0
LINE
  5
105
330
1A
100
AcDbEntity
  8
0
 48
0.01
100
AcDbLine
 10
8.569999999999936
 20
-15.78999999999996
 30
0.0
 11
9.169999999999845
 21
-15.78999999999996
 31
0.0
  0
LINE
  5
106
330
1A
100
AcDbEntity
  8
0
 48
0.01
100
AcDbLine
 10
8.86999999999989
 20
-16.08999999999997
 30
0.0
 11
8.86999999999989
 21
-15.49000000000001
 31
0.0
  0
LINE
  5
107
330
1A
100
AcDbEntity
  8
0
 48
0.01
100
AcDbLine
 10
11.10999999999993
 20
-15.78999999999996
 30
0.0
 11
11.70999999999984
 21
-15.78999999999996
 31
0.0
  0
LINE
  5
108
330
1A
100
AcDbEntity
  8
0
 48
0.01
100
AcDbLine
 10
11.40999999999988
 20
-16.08999999999997
 30
0.0
 11
11.40999999999988
 21
-15.49000000000001
 31
0.0
  0
LINE
  5
109
330
1A
100
AcDbEntity
  8
0
 48
0.01
100
AcDbLine
 10
13.64999999999992
 20
-15.78999999999996
 30
0.0
 11
14.24999999999983
 21
-15.78999999999996
 31
0.0
  0
LINE
  5
10A
330
1A
100
AcDbEntity
  8
0
 48
0.01
100
AcDbLine
 10
13.94999999999987
 20
-16.08999999999997
 30
0.0
 11
13.94999999999987
 21
-15.49000000000001
 31
0.0
  0
LINE
  5
10B
330
1A
100
AcDbEntity
  8
0
 48
0.01
100
AcDbLine
 10
16.18999999999991
 20
-15.78999999999996
 30
0.0
 11
16.78999999999982
 21
-15.78999999999996
 31
0.0
  0
LINE
  5
10C
330
1A
100
AcDbEntity
  8
0
 48
0.01
100
AcDbLine
 10
16.48999999999987
 20
-16.08999999999997
 30
0.0
 11
16.48999999999987
 21
-15.49000000000001
 31
0.0
  0
LINE
  5
10D
330
1A
100
AcDbEntity
  8
0
 48
0.01
100
AcDbLine
 10
18.72999999999992
 20
-15.78999999999996
 30
0.0
 11
19.32999999999983
 21
-15.78999999999996
 31
0.0
  0
LINE
  5
10E
330
1A
100
AcDbEntity
  8
0
 48
0.01
100
AcDbLine
 10
19.02999999999987
 20
-16.08999999999997
 30
0.0
 11
19.02999999999987
 21
-15.49000000000001
 31
0.0
  0
LINE
  5
10F
330
1A
100
AcDbEntity
  8
0
 48
0.01
100
AcDbLine
 10
21.26999999999992
 20
-15.78999999999996
 30
0.0
 11
21.86999999999983
 21
-15.78999999999996
 31
0.0
  0
LINE
  5
110
330
1A
100
AcDbEntity
  8
0
 48
0.01
100
AcDbLine
 10
21.56999999999988
 20
-16.08999999999997
 30
0.0
 11
21.56999999999988
 21
-15.49000000000001
 31
0.0
  0
LINE
  5
111
330
1A
100
AcDbEntity
  8
0
 48
0.01
100
AcDbLine
 10
23.80999999999992
 20
-15.78999999999996
 30
0.0
 11
24.40999999999983
 21
-15.78999999999996
 31
0.0
  0
LINE
  5
112
330
1A
100
AcDbEntity
  8
0
 48
0.01
100
AcDbLine
 10
24.10999999999987
 20
-16.08999999999997
 30
0.0
 11
24.10999999999987
 21
-15.49000000000001
 31
0.0
  0
LINE
  5
113
330
1A
100
AcDbEntity
  8
0
 48
0.01
100
AcDbLine
 10
26.34999999999992
 20
-15.78999999999996
 30
0.0
 11
26.94999999999983
 21
-15.78999999999996
 31
0.0
  0
LINE
  5
114
330
1A
100
AcDbEntity
  8
0
 48
0.01
100
AcDbLine
 10
26.64999999999988
 20
-16.08999999999997
 30
0.0
 11
26.64999999999988
 21
-15.49000000000001
 31
0.0
  0
LINE
  5
115
330
1A
100
AcDbEntity
  8
0
 48
0.01
100
AcDbLine
 10
28.88999999999993
 20
-15.78999999999996
 30
0.0
 11
29.48999999999984
 21
-15.78999999999996
 31
0.0
  0
LINE
  5
116
330
1A
100
AcDbEntity
  8
0
 48
0.01
100
AcDbLine
 10
29.18999999999988
 20
-16.08999999999997
 30
0.0
 11
29.18999999999988
 21
-15.49000000000001
 31
0.0
  0
ARC
  5
117
330
1A
100
AcDbEntity
  8
0
 48
0.01
100
AcDbCircle
 10
8.599999999999909
 20
-18.59999999999997
 30
0.0
 40
1.0
100
AcDbArc
 50
180.0
 51
270.0
  0
ARC
  5
118
330
1A
100
AcDbEntity
  8
0
 48
0.01
100
AcDbCircle
 10
29.45999999999981
 20
-18.59999999999997
 30
0.0
 40
1.0
100
AcDbArc
 50
270.0
 51
0.0
  0
LINE
  5
119
330
1A
100
AcDbEntity
  8
0
 48
0.01
100
AcDbLine
 10
4.699999999999818
 20
-3.599999999999966
 30
0.0
 11
5.000000000000085
 21
-3.599999999999966
 31
0.0
  0
LINE
  5
11A
330
1A
100
AcDbEntity
  8
0
 48
0.01
100
AcDbLine
 10
8.599999999999966
 20
-3.599999999999966
 30
0.0
 11
16.67999999999996
 21
-3.599999999999966
 31
0.0
  0
CIRCLE
  5
11B
330
1A
100
AcDbEntity
  8
0
 48
0.01
100
AcDbCircle
 10
19.0299999999998
 20
-20.89999999999986
 30
0.0
 40
0.3
  0
CIRCLE
  5
11C
330
1A
100
AcDbEntity
  8
0
 48
0.01
100
AcDbCircle
 10
19.97999999999979
 20
-20.89999999999986
 30
0.0
 40
0.3
  0
CIRCLE
  5
11D
330
1A
100
AcDbEntity
  8
0
 48
0.01
100
AcDbCircle
 10
18.07999999999981
 20
-20.89999999999986
 30
0.0
 40
0.3
  0
CIRCLE
  5
11E
330
1A
100
AcDbEntity
  8
0
 48
0.01
100
AcDbCircle
 10
19.02999999999984
 20
-19.89999999999998
 30
0.0
 40
0.3
  0
CIRCLE
  5
11F
330
1A
100
AcDbEntity
  8
0
 48
0.01
100
AcDbCircle
 10
19.97999999999983
 20
-19.90000000000003
 30
0.0
 40
0.3
  0
CIRCLE
  5
120
330
1A
100
AcDbEntity
  8
0
 48
0.01
100
AcDbCircle
 10
18.07999999999986
 20
-19.89999999999992
 30
0.0
 40
0.3
  0
LINE
  5
121
330
1A
100
AcDbEntity
  8
0
 48
0.01
100
AcDbLine
 10
19.02999999999986
 20
-19.59999999999997
 30
0.0
 11
19.02999999999986
 21
-19.59999999999997
 31
0.0
  0
LINE
  5
122
330
1A
100
AcDbEntity
  8
0
 48
0.01
100
AcDbLine
 10
12.4099999999998
 20
-21.19999999999999
 30
0.0
 11
16.67999999999988
 21
-21.19999999999999
 31
0.0
  0
LINE
  5
123
330
1A
100
AcDbEntity
  8
0
 48
0.01
100
AcDbLine
 10
21.37999999999981
 20
-21.19999999999999
 30
0.0
 11
23.86282580177172
 21
-21.19999999999999
 31
0.0
  0
ARC
  5
124
330
1A
100
AcDbEntity
  8
0
 48
0.01
100
AcDbCircle
 10
16.67999999999988
 20
-20.39999999999998
 30
0.0
 40
0.8000000000000114
100
AcDbArc
 50
270.0
 51
90.0
  0
ARC
  5
125
330
1A
100
AcDbEntity
  8
0
 48
0.01
100
AcDbCircle
 10
21.37999999999981
 20
-20.39999999999992
 30
0.0
 40
0.8000000000000114
100
AcDbArc
 50
90.0
 51
270.000000000001
  0
CIRCLE
  5
126
330
1A
100
AcDbEntity
  8
0
 48
0.01
100
AcDbCircle
 10
19.02999999999989
 20
-3.299999999999955
 30
0.0
 40
0.3
  0
CIRCLE
  5
127
330
1A
100
AcDbEntity
  8
0
 48
0.01
100
AcDbCircle
 10
19.97999999999988
 20
-3.299999999999955
 30
0.0
 40
0.3
  0
CIRCLE
  5
128
330
1A
100
AcDbEntity
  8
0
 48
0.01
100
AcDbCircle
 10
18.0799999999999
 20
-3.299999999999955
 30
0.0
 40
0.3
  0
ARC
  5
129
330
1A
100
AcDbEntity
  8
0
 48
0.01
100
AcDbCircle
 10
16.67999999999996
 20
-2.800000000000068
 30
0.0
 40
0.8000000000000114
100
AcDbArc
 50
270.0
 51
90.0
  0
LINE
  5
12A
330
1A
100
AcDbEntity
  8
0
 48
0.01
100
AcDbLine
 10
16.67999999999996
 20
-2.000000000000057
 30
0.0
 11
4.699999999999818
 21
-2.000000000000057
 31
0.0
  0
LINE
  5
12B
330
1A
100
AcDbEntity
  8
0
 48
0.01
100
AcDbLine
 10
0.0
 20
0.0
 30
0.0
 11
38.05999999999977
 21
0.0000000000000568
 31
0.0
  0
CIRCLE
  5
12C
330
1A
100
AcDbEntity
  8
0
 48
0.01
100
AcDbCircle
 10
7.299999999999926
 20
-11.59999999999997
 30
0.0
 40
0.3
  0
CIRCLE
  5
12D
330
1A
100
AcDbEntity
  8
0
 48
0.01
100
AcDbCircle
 10
7.299999999999926
 20
-12.55000000000001
 30
0.0
 40
0.3
  0
CIRCLE
  5
12E
330
1A
100
AcDbEntity
  8
0
 48
0.01
100
AcDbCircle
 10
7.299999999999926
 20
-10.65000000000003
 30
0.0
 40
0.3
  0
ARC
  5
12F
330
1A
100
AcDbEntity
  8
0
 48
0.01
100
AcDbCircle
 10
6.800000000000097
 20
-9.250000000000057
 30
0.0
 40
0.8000000000000114
100
AcDbArc
 50
180.0
 51
0.0
  0
ARC
  5
130
330
1A
100
AcDbEntity
  8
0
 48
0.01
100
AcDbCircle
 10
6.799999999999983
 20
-13.94999999999999
 30
0.0
 40
0.8000000000000114
100
AcDbArc
 50
0.0
 51
180.0
  0
LINE
  5
131
330
1A
100
AcDbEntity
  8
0
 48
0.01
100
AcDbLine
 10
6.000000000000085
 20
-9.250000000000057
 30
0.0
 11
6.000000000000085
 21
-4.599999999999966
 31
0.0
  0
LINE
  5
132
330
1A
100
AcDbEntity
  8
0
 48
0.01
100
AcDbLine
 10
0.0
 20
0.0
 30
0.0
 11
0.0
 21
-36.7999999999999
 31
0.0
  0
CIRCLE
  5
133
330
1A
100
AcDbEntity
  8
0
 48
0.01
100
AcDbCircle
 10
30.76000000000002
 20
-11.59999999999985
 30
0.0
 40
0.3
  0
CIRCLE
  5
134
330
1A
100
AcDbEntity
  8
0
 48
0.01
100
AcDbCircle
 10
30.76000000000005
 20
-12.5499999999999
 30
0.0
 40
0.3
  0
CIRCLE
  5
135
330
1A
100
AcDbEntity
  8
0
 48
0.01
100
AcDbCircle
 10
30.76000000000002
 20
-10.64999999999992
 30
0.0
 40
0.3
  0
ARC
  5
136
330
1A
100
AcDbEntity
  8
0
 48
0.01
100
AcDbCircle
 10
31.25999999999985
 20
-9.249999999999943
 30
0.0
 40
0.8000000000000114
100
AcDbArc
 50
180.0
 51
0.0000000000040711
  0
ARC
  5
137
330
1A
100
AcDbEntity
  8
0
 48
0.01
100
AcDbCircle
 10
31.25999999999999
 20
-13.94999999999987
 30
0.0
 40
0.8000000000000114
100
AcDbArc
 50
0.0000000000040711
 51
180.0
  0
CIRCLE
  5
138
330
1A
100
AcDbEntity
  8
0
 48
0.01
100
AcDbCircle
 10
26.9499999999998
 20
-27.19999999999999
 30
0.0
 40
0.3
  0
CIRCLE
  5
139
330
1A
100
AcDbEntity
  8
0
 48
0.01
100
AcDbCircle
 10
26.94999999999983
 20
-28.15000000000003
 30
0.0
 40
0.3
  0
CIRCLE
  5
13A
330
1A
100
AcDbEntity
  8
0
 48
0.01
100
AcDbCircle
 10
26.9499999999998
 20
-26.25000000000006
 30
0.0
 40
0.3
  0
ARC
  5
13B
330
1A
100
AcDbEntity
  8
0
 48
0.01
100
AcDbCircle
 10
27.44999999999978
 20
-29.55000000000001
 30
0.0
 40
0.8000000000000114
100
AcDbArc
 50
0.0000000000040711
 51
180.0
  0
ARC
  5
13C
330
1A
100
AcDbEntity
  8
0
 48
0.01
100
AcDbCircle
 10
27.45000000000005
 20
-24.85000000000002
 30
0.0
 40
0.8000000000000114
100
AcDbArc
 50
179.9999999999919
 51
359.9999999999919
  0
CIRCLE
  5
13D
330
1A
100
AcDbEntity
  8
0
 48
0.01
100
AcDbCircle
 10
11.1099999999998
 20
-27.19999999999999
 30
0.0
 40
0.3
  0
CIRCLE
  5
13E
330
1A
100
AcDbEntity
  8
0
 48
0.01
100
AcDbCircle
 10
11.10999999999977
 20
-28.15000000000003
 30
0.0
 40
0.3
  0
CIRCLE
  5
13F
330
1A
100
AcDbEntity
  8
0
 48
0.01
100
AcDbCircle
 10
11.1099999999998
 20
-26.25000000000006
 30
0.0
 40
0.3
  0
ARC
  5
140
330
1A
100
AcDbEntity
  8
0
 48
0.01
100
AcDbCircle
 10
10.60999999999983
 20
-29.55000000000001
 30
0.0
 40
0.8000000000000114
100
AcDbArc
 50
0.0
 51
179.9999999999959
  0
CIRCLE
  5
141
330
1A
100
AcDbEntity
  8
0
 48
0.01
100
AcDbCircle
 10
2.349999999999909
 20
-3.299999999999898
 30
0.0
 40
0.3
  0
CIRCLE
  5
142
330
1A
100
AcDbEntity
  8
0
 48
0.01
100
AcDbCircle
 10
3.299999999999898
 20
-3.299999999999898
 30
0.0
 40
0.3
  0
CIRCLE
  5
143
330
1A
100
AcDbEntity
  8
0
 48
0.01
100
AcDbCircle
 10
1.39999999999992
 20
-3.299999999999898
 30
0.0
 40
0.3
  0
ARC
  5
144
330
1A
100
AcDbEntity
  8
0
 48
0.01
100
AcDbCircle
 10
4.699999999999818
 20
-2.800000000000011
 30
0.0
 40
0.8000000000000114
100
AcDbArc
 50
90.0
 51
270.0
  0
ARC
  5
145
330
1A
100
AcDbEntity
  8
0
 48
0.01
100
AcDbCircle
 10
5.000000000000085
 20
-4.599999999999966
 30
0.0
 40
0.9999999999999997
100
AcDbArc
 50
0.0
 51
90.0
  0
ARC
  5
146
330
1A
100
AcDbEntity
  8
0
 48
0.01
100
AcDbCircle
 10
8.599999999999966
 20
-4.599999999999966
 30
0.0
 40
0.9999999999999996
100
AcDbArc
 50
90.0
 51
180.0
  0
LINE
  5
147
330
1A
100
AcDbEntity
  8
0
 48
0.01
100
AcDbLine
 10
33.35999999999993
 20
-3.60000000000008
 30
0.0
 11
33.05999999999966
 21
-3.60000000000008
 31
0.0
  0
LINE
  5
148
330
1A
100
AcDbEntity
  8
0
 48
0.01
100
AcDbLine
 10
33.35999999999993
 20
-3.60000000000008
 30
0.0
 11
33.05999999999966
 21
-3.60000000000008
 31
0.0
  0
LINE
  5
149
330
1A
100
AcDbEntity
  8
0
 48
0.01
100
AcDbLine
 10
21.37999999999978
 20
-2.000000000000057
 30
0.0
 11
33.35999999999993
 21
-2.000000000000171
 31
0.0
  0
LINE
  5
14A
330
1A
100
AcDbEntity
  8
0
 48
0.01
100
AcDbLine
 10
32.0599999999996
 20
-9.250000000000114
 30
0.0
 11
32.05999999999963
 21
-4.600000000000023
 31
0.0
  0
LINE
  5
14B
330
1A
100
AcDbEntity
  8
0
 48
0.01
100
AcDbLine
 10
38.05999999999977
 20
-0.0000000000001137
 30
0.0
 11
38.05999999999925
 21
-36.79999999999995
 31
0.0
  0
CIRCLE
  5
14C
330
1A
100
AcDbEntity
  8
0
 48
0.01
100
AcDbCircle
 10
35.70999999999984
 20
-3.300000000000011
 30
0.0
 40
0.3
  0
CIRCLE
  5
14D
330
1A
100
AcDbEntity
  8
0
 48
0.01
100
AcDbCircle
 10
34.75999999999985
 20
-3.300000000000011
 30
0.0
 40
0.3
  0
CIRCLE
  5
14E
330
1A
100
AcDbEntity
  8
0
 48
0.01
100
AcDbCircle
 10
36.65999999999983
 20
-3.300000000000011
 30
0.0
 40
0.3
  0
ARC
  5
14F
330
1A
100
AcDbEntity
  8
0
 48
0.01
100
AcDbCircle
 10
33.35999999999993
 20
-2.800000000000125
 30
0.0
 40
0.8000000000000114
100
AcDbArc
 50
270.0
 51
90.0
  0
ARC
  5
150
330
1A
100
AcDbEntity
  8
0
 48
0.01
100
AcDbCircle
 10
33.05999999999963
 20
-4.60000000000008
 30
0.0
 40
0.9999999999999997
100
AcDbArc
 50
89.99999999999837
 51
179.9999999999967
  0
ARC
  5
151
330
1A
100
AcDbEntity
  8
0
 48
0.01
100
AcDbCircle
 10
29.45999999999975
 20
-4.600000000000023
 30
0.0
 40
0.9999999999999996
100
AcDbArc
 50
0.0
 51
89.99999999999837
  0
LINE
  5
152
330
1A
100
AcDbEntity
  8
0
 48
0.01
100
AcDbLine
 10
29.45999999999981
 20
-3.599999999999966
 30
0.0
 11
21.37999999999981
 21
-3.599999999999966
 31
0.0
  0
ARC
  5
153
330
1A
100
AcDbEntity
  8
0
 48
0.01
100
AcDbCircle
 10
21.37999999999981
 20
-2.800000000000068
 30
0.0
 40
0.8000000000000114
100
AcDbArc
 50
90.0
 51
270.0
  0
LINE
  5
154
330
1A
100
AcDbEntity
  8
0
 48
0.01
100
AcDbLine
 10
4.699999999999733
 20
-33.19999999999993
 30
0.0
 11
5.0
 21
-33.19999999999993
 31
0.0
  0
LINE
  5
155
330
1A
100
AcDbEntity
  8
0
 48
0.01
100
AcDbLine
 10
4.699999999999733
 20
-33.19999999999993
 30
0.0
 11
5.0
 21
-33.19999999999993
 31
0.0
  0
LINE
  5
156
330
1A
100
AcDbEntity
  8
0
 48
0.01
100
AcDbLine
 10
12.4099999999998
 20
-33.19999999999993
 30
0.0
 11
16.67999999999988
 21
-33.19999999999993
 31
0.0
  0
CIRCLE
  5
157
330
1A
100
AcDbEntity
  8
0
 48
0.01
100
AcDbCircle
 10
19.0299999999998
 20
-33.49999999999994
 30
0.0
 40
0.3
  0
CIRCLE
  5
158
330
1A
100
AcDbEntity
  8
0
 48
0.01
100
AcDbCircle
 10
19.97999999999979
 20
-33.49999999999994
 30
0.0
 40
0.3
  0
CIRCLE
  5
159
330
1A
100
AcDbEntity
  8
0
 48
0.01
100
AcDbCircle
 10
18.07999999999981
 20
-33.49999999999994
 30
0.0
 40
0.3
  0
ARC
  5
15A
330
1A
100
AcDbEntity
  8
0
 48
0.01
100
AcDbCircle
 10
16.67999999999988
 20
-33.99999999999983
 30
0.0
 40
0.8000000000000114
100
AcDbArc
 50
270.0
 51
90.0
  0
LINE
  5
15B
330
1A
100
AcDbEntity
  8
0
 48
0.01
100
AcDbLine
 10
16.67999999999988
 20
-34.79999999999984
 30
0.0
 11
4.699999999999733
 21
-34.79999999999984
 31
0.0
  0
LINE
  5
15C
330
1A
100
AcDbEntity
  8
0
 48
0.01
100
AcDbLine
 10
-0.0000000000000853
 20
-36.7999999999999
 30
0.0
 11
38.05999999999969
 21
-36.79999999999995
 31
0.0
  0
CIRCLE
  5
15D
330
1A
100
AcDbEntity
  8
0
 48
0.01
100
AcDbCircle
 10
2.349999999999824
 20
-33.5
 30
0.0
 40
0.3
  0
CIRCLE
  5
15E
330
1A
100
AcDbEntity
  8
0
 48
0.01
100
AcDbCircle
 10
3.299999999999812
 20
-33.5
 30
0.0
 40
0.3
  0
CIRCLE
  5
15F
330
1A
100
AcDbEntity
  8
0
 48
0.01
100
AcDbCircle
 10
1.399999999999835
 20
-33.5
 30
0.0
 40
0.3
  0
ARC
  5
160
330
1A
100
AcDbEntity
  8
0
 48
0.01
100
AcDbCircle
 10
4.699999999999733
 20
-33.99999999999989
 30
0.0
 40
0.8000000000000114
100
AcDbArc
 50
90.0
 51
270.0
  0
LINE
  5
161
330
1A
100
AcDbEntity
  8
0
 48
0.01
100
AcDbLine
 10
33.35999999999984
 20
-33.19999999999982
 30
0.0
 11
33.05999999999958
 21
-33.19999999999982
 31
0.0
  0
LINE
  5
162
330
1A
100
AcDbEntity
  8
0
 48
0.01
100
AcDbLine
 10
33.35999999999984
 20
-33.19999999999982
 30
0.0
 11
33.05999999999958
 21
-33.19999999999982
 31
0.0
  0
LINE
  5
163
330
1A
100
AcDbEntity
  8
0
 48
0.01
100
AcDbLine
 10
21.3799999999997
 20
-34.79999999999984
 30
0.0
 11
33.35999999999984
 21
-34.79999999999973
 31
0.0
  0
CIRCLE
  5
164
330
1A
100
AcDbEntity
  8
0
 48
0.01
100
AcDbCircle
 10
35.70999999999975
 20
-33.49999999999989
 30
0.0
 40
0.3
  0
CIRCLE
  5
165
330
1A
100
AcDbEntity
  8
0
 48
0.01
100
AcDbCircle
 10
34.75999999999976
 20
-33.49999999999989
 30
0.0
 40
0.3
  0
CIRCLE
  5
166
330
1A
100
AcDbEntity
  8
0
 48
0.01
100
AcDbCircle
 10
36.65999999999974
 20
-33.49999999999989
 30
0.0
 40
0.3
  0
ARC
  5
167
330
1A
100
AcDbEntity
  8
0
 48
0.01
100
AcDbCircle
 10
33.35999999999984
 20
-33.99999999999977
 30
0.0
 40
0.8000000000000114
100
AcDbArc
 50
270.0
 51
90.0
  0
LINE
  5
168
330
1A
100
AcDbEntity
  8
0
 48
0.01
100
AcDbLine
 10
25.64999999999981
 20
-33.19999999999993
 30
0.0
 11
21.37999999999973
 21
-33.19999999999993
 31
0.0
  0
ARC
  5
169
330
1A
100
AcDbEntity
  8
0
 48
0.01
100
AcDbCircle
 10
21.37999999999973
 20
-33.99999999999983
 30
0.0
 40
0.8000000000000114
100
AcDbArc
 50
90.0
 51
270.0
  0
LINE
  5
16A
330
1A
100
AcDbEntity
  8
0
 48
0.01
100
AcDbLine
 10
9.809999999999832
 20
-29.54999999999995
 30
0.0
 11
9.809999999999718
 21
-32.09500000000008
 31
0.0
  0
ARC
  5
16B
330
1A
100
AcDbEntity
  8
0
 48
0.01
100
AcDbCircle
 10
10.60999999999983
 20
-24.84999999999997
 30
0.0
 40
0.8000000000000114
100
AcDbArc
 50
180.0000000000041
 51
0.0
  0
LINE
  5
16C
330
1A
100
AcDbEntity
  8
0
 48
0.01
100
AcDbLine
 10
9.809999999999832
 20
-24.85000000000002
 30
0.0
 11
9.809999999999718
 21
-22.30499999999989
 31
0.0
  0
LINE
  5
16D
330
1A
100
AcDbEntity
  8
0
 48
0.01
100
AcDbLine
 10
28.24999999999977
 20
-29.54999999999995
 30
0.0
 11
28.24999999999989
 21
-32.09500000000008
 31
0.0
  0
LINE
  5
16E
330
1A
100
AcDbEntity
  8
0
 48
0.01
100
AcDbLine
 10
32.05999999999963
 20
-13.94999999999999
 30
0.0
 11
32.05999999999962
 21
-20.40000000000003
 31
0.0
  0
LINE
  5
16F
330
1A
100
AcDbEntity
  8
0
 48
0.01
100
AcDbLine
 10
28.24999999999977
 20
-24.85000000000002
 30
0.0
 11
28.24999999999989
 21
-22.30499999999989
 31
0.0
  0
ARC
  5
170
330
1A
100
AcDbEntity
  8
0
 48
0.01
100
AcDbCircle
 10
29.35499999999979
 20
-22.30499999999995
 30
0.0
 40
1.104999999999919
100
AcDbArc
 50
90.0
 51
179.999999999997
  0
ARC
  5
171
330
1A
100
AcDbEntity
  8
0
 48
0.01
100
AcDbCircle
 10
29.35499999999979
 20
-32.0950000000002
 30
0.0
 40
1.104999999999919
100
AcDbArc
 50
180.0
 51
270.0000000000044
  0
LINE
  5
172
330
1A
100
AcDbEntity
  8
0
 48
0.01
100
AcDbLine
 10
29.35499999999979
 20
-21.20000000000005
 30
0.0
 11
31.25999999999962
 21
-21.20000000000005
 31
0.0
  0
ARC
  5
173
330
1A
100
AcDbEntity
  8
0
 48
0.01
100
AcDbCircle
 10
31.25999999999962
 20
-20.40000000000003
 30
0.0
 40
0.8
100
AcDbArc
 50
270.0
 51
0.0
  0
LINE
  5
174
330
1A
100
AcDbEntity
  8
0
 48
0.01
100
AcDbLine
 10
29.35499999999979
 20
-33.2000000000001
 30
0.0
 11
33.20999999999971
 21
-33.19999999999982
 31
0.0
  0
LINE
  5
175
330
1A
100
AcDbEntity
  8
0
 48
0.01
100
AcDbLine
 10
5.999999999999829
 20
-13.9499999999997
 30
0.0
 11
5.999999999999716
 21
-20.39999999999975
 31
0.0
  0
ARC
  5
176
330
1A
100
AcDbEntity
  8
0
 48
0.01
100
AcDbCircle
 10
6.799999999999699
 20
-20.39999999999975
 30
0.0
 40
0.8
100
AcDbArc
 50
180.0
 51
269.999999999998
  0
LINE
  5
177
330
1A
100
AcDbEntity
  8
0
 48
0.01
100
AcDbLine
 10
8.70499999999953
 20
-21.19999999999982
 30
0.0
 11
6.79999999999967
 21
-21.19999999999976
 31
0.0
  0
ARC
  5
178
330
1A
100
AcDbEntity
  8
0
 48
0.01
100
AcDbCircle
 10
8.704999999999927
 20
-22.30499999999995
 30
0.0
 40
1.104999999999919
100
AcDbArc
 50
0.0000000000029474
 51
90.0
  0
ARC
  5
179
330
1A
100
AcDbEntity
  8
0
 48
0.01
100
AcDbCircle
 10
8.704999999999842
 20
-32.09500000000003
 30
0.0
 40
1.104999999999919
100
AcDbArc
 50
269.9999999999956
 51
0.0
  0
LINE
  5
17A
330
1A
100
AcDbEntity
  8
0
 48
0.01
100
AcDbLine
 10
8.704999999999814
 20
-33.19999999999993
 30
0.0
 11
4.849999999999909
 21
-33.19999999999959
 31
0.0
  0
CIRCLE
  5
17B
330
1A
100
AcDbEntity
  8
0
 48
0.01
100
AcDbCircle
 10
0.4499999999999318
 20
-3.299999999999898
 30
0.0
 40
0.3
  0
CIRCLE
  5
17C
330
1A
100
AcDbEntity
  8
0
 48
0.01
100
AcDbCircle
 10
37.60999999999981
 20
-3.300000000000011
 30
0.0
 40
0.3
  0
CIRCLE
  5
17D
330
1A
100
AcDbEntity
  8
0
 48
0.01
100
AcDbCircle
 10
0.4499999999998465
 20
-33.5
 30
0.0
 40
0.3
  0
CIRCLE
  5
17E
330
1A
100
AcDbEntity
  8
0
 48
0.01
100
AcDbCircle
 10
37.60999999999973
 20
-33.49999999999989
 30
0.0
 40
0.3
  0
ENDSEC
  0
SECTION
  2
OBJECTS
  0
DICTIONARY
  5
A
330
0
100
AcDbDictionary
281
     1
  3
ACAD_DETAILVIEWSTYLE
350
184
  3
ACAD_GROUP
350
28
  3
ACAD_LAYOUT
350
20
  3
ACAD_MATERIAL
350
C
  3
ACAD_MLEADERSTYLE
350
182
  3
ACAD_MLINESTYLE
350
18
  3
ACAD_PLOTSETTINGS
350
29
  3
ACAD_PLOTSTYLENAME
350
9
  3
ACAD_SCALELIST
350
2F
  3
ACAD_SECTIONVIEWSTYLE
350
185
  3
ACAD_TABLESTYLE
350
181
  3
ACAD_VISUALSTYLE
350
186
  3
ACDB_RECOMPOSE_DATA
350
1A4
  3
AcDbVariableDictionary
350
17F
  3
APPDATA
350
1A1
  0
DICTIONARY
  5
3
330
2
100
AcDbDictionary
280
     1
281
     1
  3
ACAD_LAYERSTATES
360
4
  3
ACLYDICTIONARY
360
5
  0
DICTIONARY
  5
1B
330
1A
100
AcDbDictionary
280
     1
281
     1
  3
ACAD_SORTENTS
360
1C
  0
DICTIONARY
  5
184
102
{ACAD_REACTORS
330
A
102
}
330
A
100
AcDbDictionary
281
     1
  0
DICTIONARY
  5
28
102
{ACAD_REACTORS
330
A
102
}
330
A
100
AcDbDictionary
281
     1
  0
DICTIONARY
  5
20
102
{ACAD_REACTORS
330
A
102
}
330
A
100
AcDbDictionary
281
     1
  3
Model
350
1F
  3
Sheet1
350
24
  0
DICTIONARY
  5
C
102
{ACAD_REACTORS
330
A
102
}
330
A
100
AcDbDictionary
281
     1
  3
ByBlock
350
53
  3
ByLayer
350
52
  3
Global
350
B
  0
DICTIONARY
  5
182
102
{ACAD_REACTORS
330
A
102
}
330
A
100
AcDbDictionary
281
     1
  3
Standard
350
1A0
  0
DICTIONARY
  5
18
102
{ACAD_REACTORS
330
A
102
}
330
A
100
AcDbDictionary
281
     1
  3
Standard
350
17
  0
DICTIONARY
  5
29
102
{ACAD_REACTORS
330
A
102
}
330
A
100
AcDbDictionary
281
     1
  0
ACDBDICTIONARYWDFLT
  5
9
102
{ACAD_REACTORS
330
A
102
}
330
A
100
AcDbDictionary
281
     1
  3
Normal
350
8
100
AcDbDictionaryWithDefault
340
8
  0
DICTIONARY
  5
2F
102
{ACAD_REACTORS
330
A
102
}
330
A
100
AcDbDictionary
281
     1
  3
*A1
350
51
  0
DICTIONARY
  5
185
102
{ACAD_REACTORS
330
A
102
}
330
A
100
AcDbDictionary
281
     1
  0
DICTIONARY
  5
181
102
{ACAD_REACTORS
330
A
102
}
330
A
100
AcDbDictionary
281
     1
  3
Standard
350
19F
  0
DICTIONARY
  5
186
102
{ACAD_REACTORS
330
A
102
}
330
A
100
AcDbDictionary
281
     1
  3
2dWireframe
350
18B
  3
Basic
350
18E
  3
Brighten
350
192
  3
ColorChange
350
196
  3
Conceptual
350
190
  3
Dim
350
191
  3
EdgeColorOff
350
199
  3
Facepattern
350
195
  3
Flat
350
187
  3
FlatWithEdges
350
188
  3
Gouraud
350
189
  3
GouraudWithEdges
350
18A
  3
Hidden
350
18D
  3
JitterOff
350
197
  3
Linepattern
350
194
  3
OverhangOff
350
198
  3
Realistic
350
18F
  3
Shaded
350
19E
  3
Shaded with edges
350
19D
  3
Shades of Gray
350
19A
  3
Sketchy
350
19B
  3
Thicken
350
193
  3
Wireframe
350
18C
  3
X-Ray
350
19C
  0
XRECORD
  5
1A4
102
{ACAD_REACTORS
330
A
102
}
330
A
100
AcDbXrecord
280
     1
 90
        1
330
19F
  0
DICTIONARY
  5
17F
102
{ACAD_REACTORS
330
A
102
}
330
A
100
AcDbDictionary
281
     1
  3
CANNOSCALE
350
180
  3
CMLEADERSTYLE
350
1A6
  3
CTABLESTYLE
350
1A5
  3
MSLTSCALE
350
1A7
  3
XCLIPFRAME
350
183
  0
DICTIONARY
  5
1A1
102
{ACAD_REACTORS
330
A
102
}
330
A
100
AcDbDictionary
281
     1
  0
DICTIONARY
  5
4
102
{ACAD_REACTORS
330
3
102
}
330
3
100
AcDbDictionary
281
     1
  0
DICTIONARY
  5
5
102
{ACAD_REACTORS
330
3
102
}
330
3
100
AcDbDictionary
281
     1
1001
ACAD
1000
<All
  0
SORTENTSTABLE
  5
1C
102
{ACAD_REACTORS
330
1B
102
}
330
1B
100
AcDbSortentsTable
330
1A
  0
LAYOUT
  5
1F
102
{ACAD_REACTORS
330
20
102
}
330
20
100
AcDbPlotSettings
  1

  2
none_device
  4
ISO_A3_(420.00_x_297.00_MM)
  6

 40
7.5
 41
20.0
 42
7.5
 43
20.0
 44
420.0
 45
297.0
 46
20.78282828282826
 47
0.0
 48
0.0
 49
0.0
140
0.0
141
0.0
142
1.0
143
1.155642023346303
 70
  1204
 72
     1
 73
     0
 74
     1
  7
monochrome.ctb
 75
     0
 76
     0
 77
     2
 78
   300
147
0.8653198653198654
148
-134.1869158878504
149
0.0
100
AcDbLayout
  1
Model
 70
     1
 71
     0
 10
0.0
 20
0.0
 11
420.0
 21
297.0
 12
0.0
 22
0.0
 32
0.0
 14
-0.0000000000000853
 24
-36.79999999999995
 34
0.0
 15
38.05999999999977
 25
0.0000000000000568
 35
0.0
146
0.0
 13
0.0
 23
0.0
 33
0.0
 16
1.0
 26
0.0
 36
0.0
 17
0.0
 27
1.0
 37
0.0
 76
     0
330
1A
331
2B
  0
LAYOUT
  5
24
102
{ACAD_REACTORS
330
20
102
}
330
20
100
AcDbPlotSettings
  1

  2
none_device
  4

  6

 40
0.0
 41
0.0
 42
0.0
 43
0.0
 44
0.0
 45
0.0
 46
0.0
 47
0.0
 48
0.0
 49
0.0
140
0.0
141
0.0
142
1.0
143
1.0
 70
   688
 72
     0
 73
     0
 74
     5
  7

 75
    16
 76
     0
 77
     2
 78
   300
147
1.0
148
0.0
149
0.0
100
AcDbLayout
  1
Sheet1
 70
     1
 71
     1
 10
0.0
 20
0.0
 11
420.0
 21
297.0
 12
0.0
 22
0.0
 32
0.0
 14
1.000000000000000E+20
 24
1.000000000000000E+20
 34
1.000000000000000E+20
 15
-1.000000000000000E+20
 25
-1.000000000000000E+20
 35
-1.000000000000000E+20
146
0.0
 13
0.0
 23
0.0
 33
0.0
 16
1.0
 26
0.0
 36
0.0
 17
0.0
 27
1.0
 37
0.0
 76
     0
330
21
  0
MATERIAL
  5
53
102
{ACAD_REACTORS
330
C
102
}
330
C
100
AcDbMaterial
  1
ByBlock
 72
     1
 94
      127
  0
MATERIAL
  5
52
102
{ACAD_REACTORS
330
C
102
}
330
C
100
AcDbMaterial
  1
ByLayer
 72
     1
 94
      127
  0
MATERIAL
  5
B
102
{ACAD_REACTORS
330
C
102
}
330
C
100
AcDbMaterial
  1
Global
 72
     1
 94
      127
  0
MLEADERSTYLE
  5
1A0
102
{ACAD_REACTORS
330
182
102
}
330
182
100
AcDbMLeaderStyle
179
     2
170
     2
171
     1
172
     0
 90
        2
 40
0.0
 41
0.0
173
     1
 91
-1056964608
340
F
 92
       -2
290
     1
 42
2.0
291
     1
 43
8.0
  3
Standard
341
0
 44
4.0
300

342
16
174
     1
178
     1
175
     1
176
     0
 93
-1056964608
 45
4.0
292
     0
297
     0
 46
4.0
343
0
 94
-1056964608
 47
1.0
 49
1.0
140
1.0
293
     1
141
0.0
294
     1
177
     0
142
1.0
295
     0
296
     0
143
3.75
271
     0
272
     9
273
     9
298
     0
  0
MLINESTYLE
  5
17
102
{ACAD_REACTORS
330
18
102
}
330
18
100
AcDbMlineStyle
  2
Standard
 70
     0
  3

 62
   256
 51
90.0
 52
90.0
 71
     2
 49
0.5
 62
   256
  6
BYLAYER
 49
-0.5
 62
   256
  6
BYLAYER
  0
ACDBPLACEHOLDER
  5
8
102
{ACAD_REACTORS
330
9
102
}
330
9
  0
SCALE
  5
51
102
{ACAD_REACTORS
330
2F
102
}
330
2F
100
AcDbScale
 70
     0
300
1:1
140
1.0
141
1.0
290
     1
  0
TABLESTYLE
  5
19F
102
{ACAD_REACTORS
330
181
102
}
102
{ACAD_XDICTIONARY
360
1A2
102
}
330
181
100
AcDbTableStyle
  3
Standard
 70
     0
 71
     0
 40
0.06
 41
0.06
280
     0
281
     0
  7
Standard
140
4.5
170
     2
 62
     0
 63
   257
283
     0
 90
        4
 91
        0
  1

274
    -2
284
     1
 64
     0
275
    -2
285
     1
 65
     0
276
    -2
286
     1
 66
     0
277
    -2
287
     1
 67
     0
278
    -2
288
     1
 68
     0
279
    -2
289
     1
 69
     0
  7
Standard
140
6.0
170
     5
 62
     0
 63
   257
283
     0
 90
        4
 91
        0
  1

274
    -2
284
     1
 64
     0
275
    -2
285
     1
 65
     0
276
    -2
286
     1
 66
     0
277
    -2
287
     1
 67
     0
278
    -2
288
     1
 68
     0
279
    -2
289
     1
 69
     0
  7
Standard
140
4.5
170
     5
 62
     0
 63
   257
283
     0
 90
        4
 91
        0
  1

274
    -2
284
     1
 64
     0
275
    -2
285
     1
 65
     0
276
    -2
286
     1
 66
     0
277
    -2
287
     1
 67
     0
278
    -2
288
     1
 68
     0
279
    -2
289
     1
 69
     0
  0
VISUALSTYLE
  5
18B
102
{ACAD_REACTORS
330
186
102
}
330
186
100
AcDbVisualStyle
  2
2dWireframe
 70
     4
177
     3
291
     0
 70
    58
 90
        0
176
     1
 90
        2
176
     1
 90
        0
176
     1
 90
        0
176
     1
 40
0.6
176
     1
 40
30.0
176
     1
 62
     7
420
 16777215
176
     1
 90
        1
176
     1
 90
        4
176
     1
 62
     7
176
     1
 62
   257
176
     1
 90
        1
176
     1
 90
        1
176
     1
 40
1.0
176
     1
 90
        0
176
     1
 62
   257
176
     1
 40
1.0
176
     1
 90
        1
176
     1
 90
        6
176
     1
 90
        2
176
     1
 62
     7
176
     1
 90
        5
176
     1
 90
        0
176
     1
 90
        0
176
     1
290
     0
176
     1
 90
        1
176
     1
 40
0.0
176
     1
 90
        0
176
     1
290
     1
176
     1
290
     1
176
     1
290
     0
176
     1
290
     0
176
     1
290
     0
176
     1
290
     0
176
     1
290
     0
176
     1
290
     0
176
     1
290
     0
176
     1
 90
       50
176
     1
 40
0.0
176
     1
 40
1.0
176
     1
 90
        0
176
     1
 62
    18
420
        0
176
     1
 90
       50
176
     1
 90
        3
176
     1
 62
     5
420
      255
176
     1
290
     0
176
     1
 90
       50
176
     1
 90
       50
176
     1
 90
       50
176
     1
290
     0
176
     1
 90
       50
176
     1
 62
   256
176
     0
 40
1.0
176
     0
 90
        2
176
     1
  1
strokes_ogs.tif
176
     1
290
     0
176
     1
 40
1.0
176
     1
 40
1.0
176
     1
  0
VISUALSTYLE
  5
18E
102
{ACAD_REACTORS
330
186
102
}
330
186
100
AcDbVisualStyle
  2
Basic
 70
     7
177
     3
291
     1
 70
    58
 90
        1
176
     1
 90
        0
176
     1
 90
        1
176
     1
 90
        0
176
     1
 40
0.6
176
     1
 40
30.0
176
     1
 62
     7
420
 16777215
176
     1
 90
        0
176
     1
 90
        4
176
     1
 62
     7
176
     1
 62
   257
176
     1
 90
        1
176
     1
 90
        1
176
     1
 40
1.0
176
     1
 90
        8
176
     1
 62
     7
176
     1
 40
1.0
176
     1
 90
        1
176
     1
 90
        6
176
     1
 90
        2
176
     1
 62
     7
176
     1
 90
        5
176
     1
 90
        0
176
     1
 90
        0
176
     1
290
     0
176
     1
 90
        1
176
     1
 40
0.0
176
     1
 90
        0
176
     1
290
     0
176
     1
290
     1
176
     1
290
     1
176
     1
290
     0
176
     1
290
     0
176
     1
290
     0
176
     1
290
     0
176
     1
290
     0
176
     1
290
     0
176
     1
 90
       50
176
     1
 40
0.0
176
     1
 40
1.0
176
     1
 90
        0
176
     1
 62
    18
420
        0
176
     1
 90
       50
176
     1
 90
        3
176
     1
 62
     5
420
      255
176
     1
290
     0
176
     1
 90
       50
176
     1
 90
       50
176
     1
 90
       50
176
     1
290
     0
176
     1
 90
       50
176
     1
 62
   256
176
     0
 40
1.0
176
     0
 90
        2
176
     1
  1
strokes_ogs.tif
176
     1
290
     0
176
     1
 40
1.0
176
     1
 40
1.0
176
     1
  0
VISUALSTYLE
  5
192
102
{ACAD_REACTORS
330
186
102
}
330
186
100
AcDbVisualStyle
  2
Brighten
 70
    12
177
     3
291
     1
 70
    58
 90
        2
176
     1
 90
        2
176
     1
 90
        0
176
     1
 90
        0
176
     1
 40
0.6
176
     1
 40
30.0
176
     1
 62
     7
420
 16777215
176
     1
 90
        1
176
     1
 90
        4
176
     1
 62
     7
176
     1
 62
   257
176
     1
 90
        1
176
     1
 90
        1
176
     1
 40
1.0
176
     1
 90
        8
176
     1
 62
     7
176
     1
 40
1.0
176
     1
 90
        1
176
     1
 90
        6
176
     1
 90
        2
176
     1
 62
     7
176
     1
 90
        5
176
     1
 90
        0
176
     1
 90
        0
176
     1
290
     0
176
     1
 90
        1
176
     1
 40
50.0
176
     1
 90
        0
176
     1
290
     0
176
     1
290
     1
176
     1
290
     1
176
     1
290
     0
176
     1
290
     0
176
     1
290
     0
176
     1
290
     0
176
     1
290
     0
176
     1
290
     0
176
     1
 90
       50
176
     1
 40
0.0
176
     1
 40
1.0
176
     1
 90
        0
176
     1
 62
    18
420
        0
176
     1
 90
       50
176
     1
 90
        3
176
     1
 62
     5
420
      255
176
     1
290
     0
176
     1
 90
       50
176
     1
 90
       50
176
     1
 90
       50
176
     1
290
     0
176
     1
 90
       50
176
     1
 62
   256
176
     0
 40
1.0
176
     0
 90
        2
176
     1
  1
strokes_ogs.tif
176
     1
290
     0
176
     1
 40
1.0
176
     1
 40
1.0
176
     1
  0
VISUALSTYLE
  5
196
102
{ACAD_REACTORS
330
186
102
}
330
186
100
AcDbVisualStyle
  2
ColorChange
 70
    16
177
     3
291
     1
 70
    58
 90
        2
176
     1
 90
        2
176
     1
 90
        3
176
     1
 90
        0
176
     1
 40
0.6
176
     1
 40
30.0
176
     1
 62
     8
420
  8421504
176
     1
 90
        1
176
     1
 90
        4
176
     1
 62
     7
176
     1
 62
   257
176
     1
 90
        1
176
     1
 90
        1
176
     1
 40
1.0
176
     1
 90
        8
176
     1
 62
     8
420
  8421504
176
     1
 40
1.0
176
     1
 90
        1
176
     1
 90
        6
176
     1
 90
        2
176
     1
 62
     7
176
     1
 90
        5
176
     1
 90
        0
176
     1
 90
        0
176
     1
290
     0
176
     1
 90
        1
176
     1
 40
0.0
176
     1
 90
        0
176
     1
290
     0
176
     1
290
     1
176
     1
290
     1
176
     1
290
     0
176
     1
290
     0
176
     1
290
     0
176
     1
290
     0
176
     1
290
     0
176
     1
290
     0
176
     1
 90
       50
176
     1
 40
0.0
176
     1
 40
1.0
176
     1
 90
        0
176
     1
 62
    18
420
        0
176
     1
 90
       50
176
     1
 90
        3
176
     1
 62
     5
420
      255
176
     1
290
     0
176
     1
 90
       50
176
     1
 90
       50
176
     1
 90
       50
176
     1
290
     0
176
     1
 90
       50
176
     1
 62
   256
176
     0
 40
1.0
176
     0
 90
        2
176
     1
  1
strokes_ogs.tif
176
     1
290
     0
176
     1
 40
1.0
176
     1
 40
1.0
176
     1
  0
VISUALSTYLE
  5
190
102
{ACAD_REACTORS
330
186
102
}
330
186
100
AcDbVisualStyle
  2
Conceptual
 70
     9
177
     3
291
     0
 70
    58
 90
        3
176
     1
 90
        2
176
     1
 90
        0
176
     1
 90
        0
176
     1
 40
0.6
176
     1
 40
30.0
176
     1
 62
     7
420
 16777215
176
     1
 90
        2
176
     1
 90
        2
176
     1
 62
     7
176
     1
 62
   257
176
     1
 90
        1
176
     1
 90
        1
176
     1
 40
179.0
176
     1
 90
        8
176
     1
 62
     7
176
     1
 40
1.0
176
     1
 90
        1
176
     1
 90
        6
176
     1
 90
        2
176
     1
 62
     7
176
     1
 90
        3
176
     1
 90
        0
176
     1
 90
        0
176
     1
290
     0
176
     1
 90
        1
176
     1
 40
0.0
176
     1
 90
        0
176
     1
290
     0
176
     1
290
     1
176
     1
290
     1
176
     1
290
     0
176
     1
290
     0
176
     1
290
     0
176
     1
290
     0
176
     1
290
     0
176
     1
290
     0
176
     1
 90
       50
176
     1
 40
0.0
176
     1
 40
1.0
176
     1
 90
        0
176
     1
 62
    18
420
        0
176
     1
 90
       50
176
     1
 90
        3
176
     1
 62
     5
420
      255
176
     1
290
     0
176
     1
 90
       50
176
     1
 90
       50
176
     1
 90
       50
176
     1
290
     0
176
     1
 90
       50
176
     1
 62
   256
176
     0
 40
1.0
176
     0
 90
        2
176
     1
  1
strokes_ogs.tif
176
     1
290
     0
176
     1
 40
1.0
176
     1
 40
1.0
176
     1
  0
VISUALSTYLE
  5
191
102
{ACAD_REACTORS
330
186
102
}
330
186
100
AcDbVisualStyle
  2
Dim
 70
    11
177
     3
291
     1
 70
    58
 90
        2
176
     1
 90
        2
176
     1
 90
        0
176
     1
 90
        0
176
     1
 40
0.6
176
     1
 40
30.0
176
     1
 62
     7
420
 16777215
176
     1
 90
        1
176
     1
 90
        4
176
     1
 62
     7
176
     1
 62
   257
176
     1
 90
        1
176
     1
 90
        1
176
     1
 40
1.0
176
     1
 90
        8
176
     1
 62
     7
176
     1
 40
1.0
176
     1
 90
        1
176
     1
 90
        6
176
     1
 90
        2
176
     1
 62
     7
176
     1
 90
        5
176
     1
 90
        0
176
     1
 90
        0
176
     1
290
     0
176
     1
 90
        1
176
     1
 40
-50.0
176
     1
 90
        0
176
     1
290
     0
176
     1
290
     1
176
     1
290
     1
176
     1
290
     0
176
     1
290
     0
176
     1
290
     0
176
     1
290
     0
176
     1
290
     0
176
     1
290
     0
176
     1
 90
       50
176
     1
 40
0.0
176
     1
 40
1.0
176
     1
 90
        0
176
     1
 62
    18
420
        0
176
     1
 90
       50
176
     1
 90
        3
176
     1
 62
     5
420
      255
176
     1
290
     0
176
     1
 90
       50
176
     1
 90
       50
176
     1
 90
       50
176
     1
290
     0
176
     1
 90
       50
176
     1
 62
   256
176
     0
 40
1.0
176
     0
 90
        2
176
     1
  1
strokes_ogs.tif
176
     1
290
     0
176
     1
 40
1.0
176
     1
 40
1.0
176
     1
  0
VISUALSTYLE
  5
199
102
{ACAD_REACTORS
330
186
102
}
330
186
100
AcDbVisualStyle
  2
EdgeColorOff
 70
    22
177
     3
291
     1
 70
    58
 90
        2
176
     0
 90
        2
176
     0
 90
        0
176
     0
 90
        0
176
     0
 40
0.6
176
     0
 40
30.0
176
     0
 62
     7
420
 16777215
176
     0
 90
        1
176
     0
 90
        4
176
     0
 62
     7
176
     0
 62
   257
176
     0
 90
        1
176
     0
 90
        1
176
     0
 40
1.0
176
     0
 90
        8
176
     2
 62
     7
176
     0
 40
1.0
176
     0
 90
        1
176
     0
 90
        6
176
     0
 90
        2
176
     0
 62
     7
176
     0
 90
        5
176
     0
 90
        0
176
     0
 90
        0
176
     0
290
     0
176
     0
 90
        1
176
     0
 40
0.0
176
     0
 90
        0
176
     0
290
     0
176
     0
290
     1
176
     0
290
     1
176
     0
290
     0
176
     0
290
     0
176
     0
290
     0
176
     0
290
     0
176
     0
290
     0
176
     0
290
     0
176
     0
 90
       50
176
     0
 40
0.0
176
     0
 40
1.0
176
     0
 90
        0
176
     0
 62
    18
420
        0
176
     0
 90
       50
176
     0
 90
        3
176
     0
 62
     5
420
      255
176
     0
290
     0
176
     0
 90
       50
176
     0
 90
       50
176
     0
 90
       50
176
     0
290
     0
176
     0
 90
       50
176
     0
 62
   256
176
     0
 40
1.0
176
     0
 90
        2
176
     0
  1
strokes_ogs.tif
176
     0
290
     0
176
     0
 40
1.0
176
     0
 40
1.0
176
     0
  0
VISUALSTYLE
  5
195
102
{ACAD_REACTORS
330
186
102
}
330
186
100
AcDbVisualStyle
  2
Facepattern
 70
    15
177
     3
291
     1
 70
    58
 90
        2
176
     1
 90
        2
176
     1
 90
        0
176
     1
 90
        0
176
     1
 40
0.6
176
     1
 40
30.0
176
     1
 62
     7
420
 16777215
176
     1
 90
        1
176
     1
 90
        4
176
     1
 62
     7
176
     1
 62
   257
176
     1
 90
        1
176
     1
 90
        1
176
     1
 40
1.0
176
     1
 90
        8
176
     1
 62
     7
176
     1
 40
1.0
176
     1
 90
        1
176
     1
 90
        6
176
     1
 90
        2
176
     1
 62
     7
176
     1
 90
        5
176
     1
 90
        0
176
     1
 90
        0
176
     1
290
     0
176
     1
 90
        1
176
     1
 40
0.0
176
     1
 90
        0
176
     1
290
     0
176
     1
290
     1
176
     1
290
     1
176
     1
290
     0
176
     1
290
     0
176
     1
290
     0
176
     1
290
     0
176
     1
290
     0
176
     1
290
     0
176
     1
 90
       50
176
     1
 40
0.0
176
     1
 40
1.0
176
     1
 90
        0
176
     1
 62
    18
420
        0
176
     1
 90
       50
176
     1
 90
        3
176
     1
 62
     5
420
      255
176
     1
290
     0
176
     1
 90
       50
176
     1
 90
       50
176
     1
 90
       50
176
     1
290
     0
176
     1
 90
       50
176
     1
 62
   256
176
     0
 40
1.0
176
     0
 90
        2
176
     1
  1
strokes_ogs.tif
176
     1
290
     0
176
     1
 40
1.0
176
     1
 40
1.0
176
     1
  0
VISUALSTYLE
  5
187
102
{ACAD_REACTORS
330
186
102
}
330
186
100
AcDbVisualStyle
  2
Flat
 70
     0
177
     3
291
     1
 70
    58
 90
        2
176
     1
 90
        1
176
     1
 90
        1
176
     1
 90
        2
176
     1
 40
0.6
176
     1
 40
30.0
176
     1
 62
     7
420
 16777215
176
     1
 90
        0
176
     1
 90
        0
176
     1
 62
     7
176
     1
 62
   257
176
     1
 90
        1
176
     1
 90
        1
176
     1
 40
1.0
176
     1
 90
        8
176
     1
 62
     7
176
     1
 40
1.0
176
     1
 90
        1
176
     1
 90
        6
176
     1
 90
        2
176
     1
 62
     7
176
     1
 90
        5
176
     1
 90
        0
176
     1
 90
        0
176
     1
290
     0
176
     1
 90
       13
176
     1
 40
0.0
176
     1
 90
        0
176
     1
290
     0
176
     1
290
     1
176
     1
290
     1
176
     1
290
     0
176
     1
290
     0
176
     1
290
     0
176
     1
290
     0
176
     1
290
     0
176
     1
290
     0
176
     1
 90
       50
176
     1
 40
0.0
176
     1
 40
1.0
176
     1
 90
        0
176
     1
 62
    18
420
        0
176
     1
 90
       50
176
     1
 90
        3
176
     1
 62
     5
420
      255
176
     1
290
     0
176
     1
 90
       50
176
     1
 90
       50
176
     1
 90
       50
176
     1
290
     0
176
     1
 90
       50
176
     1
 62
   256
176
     0
 40
1.0
176
     0
 90
        2
176
     1
  1
strokes_ogs.tif
176
     1
290
     0
176
     1
 40
1.0
176
     1
 40
1.0
176
     1
  0
VISUALSTYLE
  5
188
102
{ACAD_REACTORS
330
186
102
}
330
186
100
AcDbVisualStyle
  2
FlatWithEdges
 70
     1
177
     3
291
     1
 70
    58
 90
        2
176
     1
 90
        1
176
     1
 90
        1
176
     1
 90
        2
176
     1
 40
0.6
176
     1
 40
30.0
176
     1
 62
     7
420
 16777215
176
     1
 90
        1
176
     1
 90
        0
176
     1
 62
     7
176
     1
 62
   257
176
     1
 90
        1
176
     1
 90
        1
176
     1
 40
1.0
176
     1
 90
        0
176
     1
 62
   257
176
     1
 40
1.0
176
     1
 90
        1
176
     1
 90
        6
176
     1
 90
        2
176
     1
 62
     7
176
     1
 90
        5
176
     1
 90
        0
176
     1
 90
        0
176
     1
290
     0
176
     1
 90
       13
176
     1
 40
0.0
176
     1
 90
        0
176
     1
290
     0
176
     1
290
     1
176
     1
290
     1
176
     1
290
     0
176
     1
290
     0
176
     1
290
     0
176
     1
290
     0
176
     1
290
     0
176
     1
290
     0
176
     1
 90
       50
176
     1
 40
0.0
176
     1
 40
1.0
176
     1
 90
        0
176
     1
 62
    18
420
        0
176
     1
 90
       50
176
     1
 90
        3
176
     1
 62
     5
420
      255
176
     1
290
     0
176
     1
 90
       50
176
     1
 90
       50
176
     1
 90
       50
176
     1
290
     0
176
     1
 90
       50
176
     1
 62
   256
176
     0
 40
1.0
176
     0
 90
        2
176
     1
  1
strokes_ogs.tif
176
     1
290
     0
176
     1
 40
1.0
176
     1
 40
1.0
176
     1
  0
VISUALSTYLE
  5
189
102
{ACAD_REACTORS
330
186
102
}
330
186
100
AcDbVisualStyle
  2
Gouraud
 70
     2
177
     3
291
     1
 70
    58
 90
        2
176
     1
 90
        2
176
     1
 90
        1
176
     1
 90
        2
176
     1
 40
0.6
176
     1
 40
30.0
176
     1
 62
     7
420
 16777215
176
     1
 90
        0
176
     1
 90
        0
176
     1
 62
     7
176
     1
 62
   257
176
     1
 90
        1
176
     1
 90
        1
176
     1
 40
1.0
176
     1
 90
        0
176
     1
 62
     7
176
     1
 40
1.0
176
     1
 90
        1
176
     1
 90
        6
176
     1
 90
        2
176
     1
 62
     7
176
     1
 90
        5
176
     1
 90
        0
176
     1
 90
        0
176
     1
290
     0
176
     1
 90
       13
176
     1
 40
0.0
176
     1
 90
        0
176
     1
290
     0
176
     1
290
     1
176
     1
290
     1
176
     1
290
     0
176
     1
290
     0
176
     1
290
     0
176
     1
290
     0
176
     1
290
     0
176
     1
290
     0
176
     1
 90
       50
176
     1
 40
0.0
176
     1
 40
1.0
176
     1
 90
        0
176
     1
 62
    18
420
        0
176
     1
 90
       50
176
     1
 90
        3
176
     1
 62
     5
420
      255
176
     1
290
     0
176
     1
 90
       50
176
     1
 90
       50
176
     1
 90
       50
176
     1
290
     0
176
     1
 90
       50
176
     1
 62
   256
176
     0
 40
1.0
176
     0
 90
        2
176
     1
  1
strokes_ogs.tif
176
     1
290
     0
176
     1
 40
1.0
176
     1
 40
1.0
176
     1
  0
VISUALSTYLE
  5
18A
102
{ACAD_REACTORS
330
186
102
}
330
186
100
AcDbVisualStyle
  2
GouraudWithEdges
 70
     3
177
     3
291
     1
 70
    58
 90
        2
176
     1
 90
        2
176
     1
 90
        1
176
     1
 90
        2
176
     1
 40
0.6
176
     1
 40
30.0
176
     1
 62
     7
420
 16777215
176
     1
 90
        1
176
     1
 90
        0
176
     1
 62
     7
176
     1
 62
   257
176
     1
 90
        1
176
     1
 90
        1
176
     1
 40
1.0
176
     1
 90
        0
176
     1
 62
   257
176
     1
 40
1.0
176
     1
 90
        1
176
     1
 90
        6
176
     1
 90
        2
176
     1
 62
     7
176
     1
 90
        5
176
     1
 90
        0
176
     1
 90
        0
176
     1
290
     0
176
     1
 90
       13
176
     1
 40
0.0
176
     1
 90
        0
176
     1
290
     0
176
     1
290
     1
176
     1
290
     1
176
     1
290
     0
176
     1
290
     0
176
     1
290
     0
176
     1
290
     0
176
     1
290
     0
176
     1
290
     0
176
     1
 90
       50
176
     1
 40
0.0
176
     1
 40
1.0
176
     1
 90
        0
176
     1
 62
    18
420
        0
176
     1
 90
       50
176
     1
 90
        3
176
     1
 62
     5
420
      255
176
     1
290
     0
176
     1
 90
       50
176
     1
 90
       50
176
     1
 90
       50
176
     1
290
     0
176
     1
 90
       50
176
     1
 62
   256
176
     0
 40
1.0
176
     0
 90
        2
176
     1
  1
strokes_ogs.tif
176
     1
290
     0
176
     1
 40
1.0
176
     1
 40
1.0
176
     1
  0
VISUALSTYLE
  5
18D
102
{ACAD_REACTORS
330
186
102
}
330
186
100
AcDbVisualStyle
  2
Hidden
 70
     6
177
     3
291
     0
 70
    58
 90
        1
176
     1
 90
        2
176
     1
 90
        2
176
     1
 90
        0
176
     1
 40
0.6
176
     1
 40
30.0
176
     1
 62
     7
420
 16777215
176
     1
 90
        2
176
     1
 90
        2
176
     1
 62
     7
176
     1
 62
   257
176
     1
 90
        2
176
     1
 90
        1
176
     1
 40
40.0
176
     1
 90
        0
176
     1
 62
   257
176
     1
 40
1.0
176
     1
 90
        1
176
     1
 90
        6
176
     1
 90
        2
176
     1
 62
     7
176
     1
 90
        3
176
     1
 90
        0
176
     1
 90
        0
176
     1
290
     0
176
     1
 90
        1
176
     1
 40
0.0
176
     1
 90
        0
176
     1
290
     0
176
     1
290
     1
176
     1
290
     1
176
     1
290
     0
176
     1
290
     0
176
     1
290
     0
176
     1
290
     0
176
     1
290
     0
176
     1
290
     0
176
     1
 90
       50
176
     1
 40
0.0
176
     1
 40
1.0
176
     1
 90
        0
176
     1
 62
    18
420
        0
176
     1
 90
       50
176
     1
 90
        3
176
     1
 62
     5
420
      255
176
     1
290
     0
176
     1
 90
       50
176
     1
 90
       50
176
     1
 90
       50
176
     1
290
     0
176
     1
 90
       50
176
     1
 62
   256
176
     0
 40
1.0
176
     0
 90
        2
176
     1
  1
strokes_ogs.tif
176
     1
290
     0
176
     1
 40
1.0
176
     1
 40
1.0
176
     1
  0
VISUALSTYLE
  5
197
102
{ACAD_REACTORS
330
186
102
}
330
186
100
AcDbVisualStyle
  2
JitterOff
 70
    20
177
     3
291
     1
 70
    58
 90
        2
176
     0
 90
        2
176
     0
 90
        0
176
     0
 90
        0
176
     0
 40
0.6
176
     0
 40
30.0
176
     0
 62
     7
420
 16777215
176
     0
 90
        1
176
     0
 90
        4
176
     0
 62
     7
176
     0
 62
   257
176
     0
 90
        1
176
     0
 90
        1
176
     0
 40
1.0
176
     0
 90
       10
176
     2
 62
     7
176
     0
 40
1.0
176
     0
 90
        1
176
     0
 90
        6
176
     0
 90
        2
176
     0
 62
     7
176
     0
 90
        5
176
     0
 90
        0
176
     0
 90
        0
176
     0
290
     0
176
     0
 90
        1
176
     0
 40
0.0
176
     0
 90
        0
176
     0
290
     0
176
     0
290
     1
176
     0
290
     1
176
     0
290
     0
176
     0
290
     0
176
     0
290
     0
176
     0
290
     0
176
     0
290
     0
176
     0
290
     0
176
     0
 90
       50
176
     0
 40
0.0
176
     0
 40
1.0
176
     0
 90
        0
176
     0
 62
    18
420
        0
176
     0
 90
       50
176
     0
 90
        3
176
     0
 62
     5
420
      255
176
     0
290
     0
176
     0
 90
       50
176
     0
 90
       50
176
     0
 90
       50
176
     0
290
     0
176
     0
 90
       50
176
     0
 62
   256
176
     0
 40
1.0
176
     0
 90
        2
176
     0
  1
strokes_ogs.tif
176
     0
290
     0
176
     0
 40
1.0
176
     0
 40
1.0
176
     0
  0
VISUALSTYLE
  5
194
102
{ACAD_REACTORS
330
186
102
}
330
186
100
AcDbVisualStyle
  2
Linepattern
 70
    14
177
     3
291
     1
 70
    58
 90
        2
176
     1
 90
        2
176
     1
 90
        0
176
     1
 90
        0
176
     1
 40
0.6
176
     1
 40
30.0
176
     1
 62
     7
420
 16777215
176
     1
 90
        1
176
     1
 90
        4
176
     1
 62
     7
176
     1
 62
   257
176
     1
 90
        7
176
     1
 90
        7
176
     1
 40
1.0
176
     1
 90
        8
176
     1
 62
     7
176
     1
 40
1.0
176
     1
 90
        1
176
     1
 90
        6
176
     1
 90
        2
176
     1
 62
     7
176
     1
 90
        5
176
     1
 90
        0
176
     1
 90
        0
176
     1
290
     0
176
     1
 90
        1
176
     1
 40
0.0
176
     1
 90
        0
176
     1
290
     0
176
     1
290
     1
176
     1
290
     1
176
     1
290
     0
176
     1
290
     0
176
     1
290
     0
176
     1
290
     0
176
     1
290
     0
176
     1
290
     0
176
     1
 90
       50
176
     1
 40
0.0
176
     1
 40
1.0
176
     1
 90
        0
176
     1
 62
    18
420
        0
176
     1
 90
       50
176
     1
 90
        3
176
     1
 62
     5
420
      255
176
     1
290
     0
176
     1
 90
       50
176
     1
 90
       50
176
     1
 90
       50
176
     1
290
     0
176
     1
 90
       50
176
     1
 62
   256
176
     0
 40
1.0
176
     0
 90
        2
176
     1
  1
strokes_ogs.tif
176
     1
290
     0
176
     1
 40
1.0
176
     1
 40
1.0
176
     1
  0
VISUALSTYLE
  5
198
102
{ACAD_REACTORS
330
186
102
}
330
186
100
AcDbVisualStyle
  2
OverhangOff
 70
    21
177
     3
291
     1
 70
    58
 90
        2
176
     0
 90
        2
176
     0
 90
        0
176
     0
 90
        0
176
     0
 40
0.6
176
     0
 40
30.0
176
     0
 62
     7
420
 16777215
176
     0
 90
        1
176
     0
 90
        4
176
     0
 62
     7
176
     0
 62
   257
176
     0
 90
        1
176
     0
 90
        1
176
     0
 40
1.0
176
     0
 90
        9
176
     2
 62
     7
176
     0
 40
1.0
176
     0
 90
        1
176
     0
 90
        6
176
     0
 90
        2
176
     0
 62
     7
176
     0
 90
        5
176
     0
 90
        0
176
     0
 90
        0
176
     0
290
     0
176
     0
 90
        1
176
     0
 40
0.0
176
     0
 90
        0
176
     0
290
     0
176
     0
290
     1
176
     0
290
     1
176
     0
290
     0
176
     0
290
     0
176
     0
290
     0
176
     0
290
     0
176
     0
290
     0
176
     0
290
     0
176
     0
 90
       50
176
     0
 40
0.0
176
     0
 40
1.0
176
     0
 90
        0
176
     0
 62
    18
420
        0
176
     0
 90
       50
176
     0
 90
        3
176
     0
 62
     5
420
      255
176
     0
290
     0
176
     0
 90
       50
176
     0
 90
       50
176
     0
 90
       50
176
     0
290
     0
176
     0
 90
       50
176
     0
 62
   256
176
     0
 40
1.0
176
     0
 90
        2
176
     0
  1
strokes_ogs.tif
176
     0
290
     0
176
     0
 40
1.0
176
     0
 40
1.0
176
     0
  0
VISUALSTYLE
  5
18F
102
{ACAD_REACTORS
330
186
102
}
330
186
100
AcDbVisualStyle
  2
Realistic
 70
     8
177
     3
291
     0
 70
    58
 90
        2
176
     1
 90
        3
176
     1
 90
        0
176
     1
 90
        2
176
     1
 40
0.6
176
     1
 40
30.0
176
     1
 62
     7
420
 16777215
176
     1
 90
        0
176
     1
 90
        0
176
     1
 62
     7
176
     1
 62
   257
176
     1
 90
        1
176
     1
 90
        1
176
     1
 40
1.0
176
     1
 90
        8
176
     1
 62
   257
176
     1
 40
1.0
176
     1
 90
        1
176
     1
 90
        6
176
     1
 90
        2
176
     1
 62
     7
176
     1
 90
        3
176
     1
 90
        0
176
     1
 90
        0
176
     1
290
     0
176
     1
 90
       13
176
     1
 40
0.0
176
     1
 90
        0
176
     1
290
     0
176
     1
290
     1
176
     1
290
     1
176
     1
290
     0
176
     1
290
     0
176
     1
290
     0
176
     1
290
     0
176
     1
290
     0
176
     1
290
     0
176
     1
 90
       50
176
     1
 40
0.0
176
     1
 40
1.0
176
     1
 90
        0
176
     1
 62
    18
420
        0
176
     1
 90
       50
176
     1
 90
        3
176
     1
 62
     5
420
      255
176
     1
290
     0
176
     1
 90
       50
176
     1
 90
       50
176
     1
 90
       50
176
     1
290
     0
176
     1
 90
       50
176
     1
 62
   256
176
     0
 40
1.0
176
     0
 90
        2
176
     1
  1
strokes_ogs.tif
176
     1
290
     0
176
     1
 40
1.0
176
     1
 40
1.0
176
     1
  0
VISUALSTYLE
  5
19E
102
{ACAD_REACTORS
330
186
102
}
330
186
100
AcDbVisualStyle
  2
Shaded
 70
    27
177
     3
291
     0
 70
    58
 90
        2
176
     1
 90
        2
176
     1
 90
        1
176
     1
 90
        2
176
     1
 40
0.6
176
     1
 40
30.0
176
     1
 62
     7
420
 16777215
176
     1
 90
        0
176
     1
 90
        4
176
     1
 62
     7
176
     1
 62
   257
176
     1
 90
        1
176
     1
 90
        1
176
     1
 40
1.0
176
     1
 90
        8
176
     1
 62
   257
176
     1
 40
1.0
176
     1
 90
        1
176
     1
 90
        6
176
     1
 90
        2
176
     1
 62
     8
420
  7895160
176
     1
 90
        3
176
     1
 90
        0
176
     1
 90
        0
176
     1
290
     0
176
     1
 90
        5
176
     1
 40
0.0
176
     1
 90
        0
176
     1
290
     0
176
     1
290
     1
176
     1
290
     1
176
     1
290
     0
176
     1
290
     0
176
     1
290
     0
176
     1
290
     0
176
     1
290
     0
176
     1
290
     0
176
     1
 90
       50
176
     1
 40
0.0
176
     1
 40
1.0
176
     1
 90
        0
176
     1
 62
    18
420
        0
176
     1
 90
       50
176
     1
 90
        3
176
     1
 62
     5
420
      255
176
     1
290
     0
176
     1
 90
       50
176
     1
 90
       50
176
     1
 90
       50
176
     1
290
     0
176
     1
 90
       50
176
     1
 62
   256
176
     0
 40
1.0
176
     0
 90
        2
176
     1
  1
strokes_ogs.tif
176
     1
290
     0
176
     1
 40
1.0
176
     1
 40
1.0
176
     1
  0
VISUALSTYLE
  5
19D
102
{ACAD_REACTORS
330
186
102
}
330
186
100
AcDbVisualStyle
  2
Shaded with edges
 70
    26
177
     3
291
     0
 70
    58
 90
        2
176
     1
 90
        2
176
     1
 90
        1
176
     1
 90
        2
176
     1
 40
0.6
176
     1
 40
30.0
176
     1
 62
     7
420
 16777215
176
     1
 90
        1
176
     1
 90
       10
176
     1
 62
     7
176
     1
 62
   257
176
     1
 90
        2
176
     1
 90
        1
176
     1
 40
1.0
176
     1
 90
        8
176
     1
 62
   257
176
     1
 40
1.0
176
     1
 90
        1
176
     1
 90
        6
176
     1
 90
        2
176
     1
 62
     7
176
     1
 90
        3
176
     1
 90
        0
176
     1
 90
        0
176
     1
290
     0
176
     1
 90
        5
176
     1
 40
0.0
176
     1
 90
        0
176
     1
290
     0
176
     1
290
     1
176
     1
290
     1
176
     1
290
     0
176
     1
290
     0
176
     1
290
     0
176
     1
290
     0
176
     1
290
     0
176
     1
290
     0
176
     1
 90
       50
176
     1
 40
0.0
176
     1
 40
1.0
176
     1
 90
        0
176
     1
 62
    18
420
        0
176
     1
 90
       50
176
     1
 90
        3
176
     1
 62
     5
420
      255
176
     1
290
     0
176
     1
 90
       50
176
     1
 90
       50
176
     1
 90
       50
176
     1
290
     0
176
     1
 90
       50
176
     1
 62
   256
176
     0
 40
1.0
176
     0
 90
        2
176
     1
  1
strokes_ogs.tif
176
     1
290
     0
176
     1
 40
1.0
176
     1
 40
1.0
176
     1
  0
VISUALSTYLE
  5
19A
102
{ACAD_REACTORS
330
186
102
}
330
186
100
AcDbVisualStyle
  2
Shades of Gray
 70
    23
177
     3
291
     0
 70
    58
 90
        2
176
     1
 90
        2
176
     1
 90
        3
176
     1
 90
        0
176
     1
 40
0.6
176
     1
 40
30.0
176
     1
 62
     7
420
 16777215
176
     1
 90
        2
176
     1
 90
        2
176
     1
 62
     7
176
     1
 62
     7
176
     1
 90
        1
176
     1
 90
        1
176
     1
 40
40.0
176
     1
 90
        8
176
     1
 62
     7
176
     1
 40
1.0
176
     1
 90
        1
176
     1
 90
        6
176
     1
 90
        2
176
     1
 62
     7
176
     1
 90
        3
176
     1
 90
        0
176
     1
 90
        0
176
     1
290
     0
176
     1
 90
        1
176
     1
 40
0.0
176
     1
 90
        0
176
     1
290
     0
176
     1
290
     1
176
     1
290
     1
176
     1
290
     0
176
     1
290
     0
176
     1
290
     0
176
     1
290
     0
176
     1
290
     0
176
     1
290
     0
176
     1
 90
       50
176
     1
 40
0.0
176
     1
 40
1.0
176
     1
 90
        0
176
     1
 62
    18
420
        0
176
     1
 90
       50
176
     1
 90
        3
176
     1
 62
     5
420
      255
176
     1
290
     0
176
     1
 90
       50
176
     1
 90
       50
176
     1
 90
       50
176
     1
290
     0
176
     1
 90
       50
176
     1
 62
   256
176
     0
 40
1.0
176
     0
 90
        2
176
     1
  1
strokes_ogs.tif
176
     1
290
     0
176
     1
 40
1.0
176
     1
 40
1.0
176
     1
  0
VISUALSTYLE
  5
19B
102
{ACAD_REACTORS
330
186
102
}
330
186
100
AcDbVisualStyle
  2
Sketchy
 70
    24
177
     3
291
     0
 70
    58
 90
        1
176
     1
 90
        2
176
     1
 90
        2
176
     1
 90
        0
176
     1
 40
0.6
176
     1
 40
30.0
176
     1
 62
     7
420
 16777215
176
     1
 90
        2
176
     1
 90
        2
176
     1
 62
     7
176
     1
 62
     7
176
     1
 90
        1
176
     1
 90
        1
176
     1
 40
40.0
176
     1
 90
       11
176
     1
 62
     7
176
     1
 40
1.0
176
     1
 90
        1
176
     1
 90
        6
176
     1
 90
        2
176
     1
 62
     7
176
     1
 90
        6
176
     1
 90
        0
176
     1
 90
        0
176
     1
290
     0
176
     1
 90
        1
176
     1
 40
0.0
176
     1
 90
        0
176
     1
290
     0
176
     1
290
     1
176
     1
290
     1
176
     1
290
     0
176
     1
290
     0
176
     1
290
     0
176
     1
290
     0
176
     1
290
     0
176
     1
290
     0
176
     1
 90
       50
176
     1
 40
0.0
176
     1
 40
1.0
176
     1
 90
        0
176
     1
 62
    18
420
        0
176
     1
 90
       50
176
     1
 90
        3
176
     1
 62
     5
420
      255
176
     1
290
     0
176
     1
 90
       50
176
     1
 90
       50
176
     1
 90
       50
176
     1
290
     0
176
     1
 90
       50
176
     1
 62
   256
176
     0
 40
1.0
176
     0
 90
        2
176
     1
  1
strokes_ogs.tif
176
     1
290
     0
176
     1
 40
1.0
176
     1
 40
1.0
176
     1
  0
VISUALSTYLE
  5
193
102
{ACAD_REACTORS
330
186
102
}
330
186
100
AcDbVisualStyle
  2
Thicken
 70
    13
177
     3
291
     1
 70
    58
 90
        2
176
     1
 90
        2
176
     1
 90
        0
176
     1
 90
        0
176
     1
 40
0.6
176
     1
 40
30.0
176
     1
 62
     7
420
 16777215
176
     1
 90
        1
176
     1
 90
        4
176
     1
 62
     7
176
     1
 62
   257
176
     1
 90
        1
176
     1
 90
        1
176
     1
 40
1.0
176
     1
 90
       12
176
     1
 62
     7
176
     1
 40
1.0
176
     1
 90
        1
176
     1
 90
        6
176
     1
 90
        2
176
     1
 62
     7
176
     1
 90
        5
176
     1
 90
        0
176
     1
 90
        0
176
     1
290
     0
176
     1
 90
        1
176
     1
 40
0.0
176
     1
 90
        0
176
     1
290
     0
176
     1
290
     1
176
     1
290
     1
176
     1
290
     0
176
     1
290
     0
176
     1
290
     0
176
     1
290
     0
176
     1
290
     0
176
     1
290
     0
176
     1
 90
       50
176
     1
 40
0.0
176
     1
 40
1.0
176
     1
 90
        0
176
     1
 62
    18
420
        0
176
     1
 90
       50
176
     1
 90
        3
176
     1
 62
     5
420
      255
176
     1
290
     0
176
     1
 90
       50
176
     1
 90
       50
176
     1
 90
       50
176
     1
290
     0
176
     1
 90
       50
176
     1
 62
   256
176
     0
 40
1.0
176
     0
 90
        2
176
     1
  1
strokes_ogs.tif
176
     1
290
     0
176
     1
 40
1.0
176
     1
 40
1.0
176
     1
  0
VISUALSTYLE
  5
18C
102
{ACAD_REACTORS
330
186
102
}
330
186
100
AcDbVisualStyle
  2
Wireframe
 70
     5
177
     3
291
     0
 70
    58
 90
        0
176
     1
 90
        2
176
     1
 90
        0
176
     1
 90
        0
176
     1
 40
0.6
176
     1
 40
30.0
176
     1
 62
     7
420
 16777215
176
     1
 90
        1
176
     1
 90
        4
176
     1
 62
     7
176
     1
 62
   257
176
     1
 90
        1
176
     1
 90
        1
176
     1
 40
1.0
176
     1
 90
        0
176
     1
 62
   257
176
     1
 40
1.0
176
     1
 90
        1
176
     1
 90
        6
176
     1
 90
        2
176
     1
 62
     7
176
     1
 90
        3
176
     1
 90
        0
176
     1
 90
        0
176
     1
290
     0
176
     1
 90
        1
176
     1
 40
0.0
176
     1
 90
        0
176
     1
290
     0
176
     1
290
     1
176
     1
290
     1
176
     1
290
     0
176
     1
290
     0
176
     1
290
     0
176
     1
290
     0
176
     1
290
     0
176
     1
290
     0
176
     1
 90
       50
176
     1
 40
0.0
176
     1
 40
1.0
176
     1
 90
        0
176
     1
 62
    18
420
        0
176
     1
 90
       50
176
     1
 90
        3
176
     1
 62
     5
420
      255
176
     1
290
     0
176
     1
 90
       50
176
     1
 90
       50
176
     1
 90
       50
176
     1
290
     0
176
     1
 90
       50
176
     1
 62
   256
176
     0
 40
1.0
176
     0
 90
        2
176
     1
  1
strokes_ogs.tif
176
     1
290
     0
176
     1
 40
1.0
176
     1
 40
1.0
176
     1
  0
VISUALSTYLE
  5
19C
102
{ACAD_REACTORS
330
186
102
}
330
186
100
AcDbVisualStyle
  2
X-Ray
 70
    25
177
     3
291
     0
 70
    58
 90
        2
176
     1
 90
        2
176
     1
 90
        1
176
     1
 90
        1
176
     1
 40
0.5
176
     1
 40
30.0
176
     1
 62
     7
420
 16777215
176
     1
 90
        1
176
     1
 90
        0
176
     1
 62
     7
176
     1
 62
   257
176
     1
 90
        1
176
     1
 90
        1
176
     1
 40
1.0
176
     1
 90
        8
176
     1
 62
     7
176
     1
 40
1.0
176
     1
 90
        1
176
     1
 90
        6
176
     1
 90
        2
176
     1
 62
     7
176
     1
 90
        3
176
     1
 90
        0
176
     1
 90
        0
176
     1
290
     0
176
     1
 90
       13
176
     1
 40
0.0
176
     1
 90
        0
176
     1
290
     0
176
     1
290
     1
176
     1
290
     1
176
     1
290
     0
176
     1
290
     0
176
     1
290
     0
176
     1
290
     0
176
     1
290
     0
176
     1
290
     0
176
     1
 90
       50
176
     1
 40
0.0
176
     1
 40
1.0
176
     1
 90
        0
176
     1
 62
    18
420
        0
176
     1
 90
       50
176
     1
 90
        3
176
     1
 62
     5
420
      255
176
     1
290
     0
176
     1
 90
       50
176
     1
 90
       50
176
     1
 90
       50
176
     1
290
     0
176
     1
 90
       50
176
     1
 62
   256
176
     0
 40
1.0
176
     0
 90
        2
176
     1
  1
strokes_ogs.tif
176
     1
290
     0
176
     1
 40
1.0
176
     1
 40
1.0
176
     1
  0
DICTIONARYVAR
  5
180
102
{ACAD_REACTORS
330
17F
102
}
330
17F
100
DictionaryVariables
280
     0
  1
1:1
  0
DICTIONARYVAR
  5
1A6
102
{ACAD_REACTORS
330
17F
102
}
330
17F
100
DictionaryVariables
280
     0
  1
Standard
  0
DICTIONARYVAR
  5
1A5
102
{ACAD_REACTORS
330
17F
102
}
330
17F
100
DictionaryVariables
280
     0
  1
Standard
  0
DICTIONARYVAR
  5
1A7
102
{ACAD_REACTORS
330
17F
102
}
330
17F
100
DictionaryVariables
280
     0
  1
0
  0
DICTIONARYVAR
  5
183
102
{ACAD_REACTORS
330
17F
102
}
330
17F
100
DictionaryVariables
280
     0
  1
0
  0
DICTIONARY
  5
1A2
330
19F
100
AcDbDictionary
280
     1
281
     1
  3
ACAD_ROUNDTRIP_2008_TABLESTYLE_CELLSTYLEMAP
360
1A3
  0
CELLSTYLEMAP
  5
1A3
102
{ACAD_REACTORS
330
1A2
102
}
330
1A2
100
AcDbCellStyleMap
 90
        3
300
CELLSTYLE
  1
TABLEFORMAT_BEGIN
 90
        5
170
     1
 91
        0
 92
    32768
 62
   257
 93
        1
300
CONTENTFORMAT
  1
CONTENTFORMAT_BEGIN
 90
        0
 91
        0
 92
        4
 93
        0
300

 40
0.0
140
1.0
 94
        5
 62
     0
340
16
144
6.0
309
CONTENTFORMAT_END
171
     1
301
MARGIN
  1
CELLMARGIN_BEGIN
 40
1.5
 40
1.5
 40
1.5
 40
1.5
 40
1.5
 40
1.5
309
CELLMARGIN_END
 94
        6
 95
        1
302
GRIDFORMAT
  1
GRIDFORMAT_BEGIN
 90
        0
 91
        1
 62
     0
 92
       -2
340
F
 93
        0
 40
0.045
309
GRIDFORMAT_END
 95
        2
302
GRIDFORMAT
  1
GRIDFORMAT_BEGIN
 90
        0
 91
        1
 62
     0
 92
       -2
340
F
 93
        0
 40
0.045
309
GRIDFORMAT_END
 95
        4
302
GRIDFORMAT
  1
GRIDFORMAT_BEGIN
 90
        0
 91
        1
 62
     0
 92
       -2
340
F
 93
        0
 40
0.045
309
GRIDFORMAT_END
 95
        8
302
GRIDFORMAT
  1
GRIDFORMAT_BEGIN
 90
        0
 91
        1
 62
     0
 92
       -2
340
F
 93
        0
 40
0.045
309
GRIDFORMAT_END
 95
       16
302
GRIDFORMAT
  1
GRIDFORMAT_BEGIN
 90
        0
 91
        1
 62
     0
 92
       -2
340
F
 93
        0
 40
0.045
309
GRIDFORMAT_END
 95
       32
302
GRIDFORMAT
  1
GRIDFORMAT_BEGIN
 90
        0
 91
        1
 62
     0
 92
       -2
340
F
 93
        0
 40
0.045
309
GRIDFORMAT_END
309
TABLEFORMAT_END
  1
CELLSTYLE_BEGIN
 90
        1
 91
        1
300
_TITLE
309
CELLSTYLE_END
300
CELLSTYLE
  1
TABLEFORMAT_BEGIN
 90
        5
170
     1
 91
        0
 92
        0
 62
   257
 93
        1
300
CONTENTFORMAT
  1
CONTENTFORMAT_BEGIN
 90
        0
 91
        0
 92
        4
 93
        0
300

 40
0.0
140
1.0
 94
        5
 62
     0
340
16
144
4.5
309
CONTENTFORMAT_END
171
     1
301
MARGIN
  1
CELLMARGIN_BEGIN
 40
1.5
 40
1.5
 40
1.5
 40
1.5
 40
1.5
 40
1.5
309
CELLMARGIN_END
 94
        6
 95
        1
302
GRIDFORMAT
  1
GRIDFORMAT_BEGIN
 90
        0
 91
        1
 62
     0
 92
       -2
340
F
 93
        0
 40
0.045
309
GRIDFORMAT_END
 95
        2
302
GRIDFORMAT
  1
GRIDFORMAT_BEGIN
 90
        0
 91
        1
 62
     0
 92
       -2
340
F
 93
        0
 40
0.045
309
GRIDFORMAT_END
 95
        4
302
GRIDFORMAT
  1
GRIDFORMAT_BEGIN
 90
        0
 91
        1
 62
     0
 92
       -2
340
F
 93
        0
 40
0.045
309
GRIDFORMAT_END
 95
        8
302
GRIDFORMAT
  1
GRIDFORMAT_BEGIN
 90
        0
 91
        1
 62
     0
 92
       -2
340
F
 93
        0
 40
0.045
309
GRIDFORMAT_END
 95
       16
302
GRIDFORMAT
  1
GRIDFORMAT_BEGIN
 90
        0
 91
        1
 62
     0
 92
       -2
340
F
 93
        0
 40
0.045
309
GRIDFORMAT_END
 95
       32
302
GRIDFORMAT
  1
GRIDFORMAT_BEGIN
 90
        0
 91
        1
 62
     0
 92
       -2
340
F
 93
        0
 40
0.045
309
GRIDFORMAT_END
309
TABLEFORMAT_END
  1
CELLSTYLE_BEGIN
 90
        2
 91
        1
300
_HEADER
309
CELLSTYLE_END
300
CELLSTYLE
  1
TABLEFORMAT_BEGIN
 90
        5
170
     1
 91
        0
 92
        0
 62
   257
 93
        1
300
CONTENTFORMAT
  1
CONTENTFORMAT_BEGIN
 90
        0
 91
        0
 92
        4
 93
        0
300

 40
0.0
140
1.0
 94
        2
 62
     0
340
16
144
4.5
309
CONTENTFORMAT_END
171
     1
301
MARGIN
  1
CELLMARGIN_BEGIN
 40
1.5
 40
1.5
 40
1.5
 40
1.5
 40
1.5
 40
1.5
309
CELLMARGIN_END
 94
        6
 95
        1
302
GRIDFORMAT
  1
GRIDFORMAT_BEGIN
 90
        0
 91
        1
 62
     0
 92
       -2
340
F
 93
        0
 40
0.045
309
GRIDFORMAT_END
 95
        2
302
GRIDFORMAT
  1
GRIDFORMAT_BEGIN
 90
        0
 91
        1
 62
     0
 92
       -2
340
F
 93
        0
 40
0.045
309
GRIDFORMAT_END
 95
        4
302
GRIDFORMAT
  1
GRIDFORMAT_BEGIN
 90
        0
 91
        1
 62
     0
 92
       -2
340
F
 93
        0
 40
0.045
309
GRIDFORMAT_END
 95
        8
302
GRIDFORMAT
  1
GRIDFORMAT_BEGIN
 90
        0
 91
        1
 62
     0
 92
       -2
340
F
 93
        0
 40
0.045
309
GRIDFORMAT_END
 95
       16
302
GRIDFORMAT
  1
GRIDFORMAT_BEGIN
 90
        0
 91
        1
 62
     0
 92
       -2
340
F
 93
        0
 40
0.045
309
GRIDFORMAT_END
 95
       32
302
GRIDFORMAT
  1
GRIDFORMAT_BEGIN
 90
        0
 91
        1
 62
     0
 92
       -2
340
F
 93
        0
 40
0.045
309
GRIDFORMAT_END
309
TABLEFORMAT_END
  1
CELLSTYLE_BEGIN
 90
        3
 91
        2
300
_DATA
309
CELLSTYLE_END
  0
ENDSEC
  0
EOF
