%TF.GenerationSoftware,KiCad,Pcbnew,6.0.10-86aedd382b~118~ubuntu18.04.1*%
%TF.CreationDate,2023-06-08T12:44:11-07:00*%
%TF.ProjectId,1000027_V0,31303030-3032-4375-9f56-302e6b696361,rev?*%
%TF.SameCoordinates,Original*%
%TF.FileFunction,Legend,Top*%
%TF.FilePolarity,Positive*%
%FSLAX46Y46*%
G04 Gerber Fmt 4.6, Leading zero omitted, Abs format (unit mm)*
G04 Created by KiCad (PCBNEW 6.0.10-86aedd382b~118~ubuntu18.04.1) date 2023-06-08 12:44:11*
%MOMM*%
%LPD*%
G01*
G04 APERTURE LIST*
%ADD10C,0.150000*%
%ADD11C,0.200000*%
%ADD12C,0.127000*%
%ADD13C,0.210000*%
%ADD14C,0.152400*%
%ADD15C,0.250000*%
G04 APERTURE END LIST*
D10*
X159875000Y-73172380D02*
X159875000Y-72410476D01*
X159684523Y-72600952D02*
X159875000Y-72410476D01*
X160065476Y-72600952D01*
X159089285Y-73782380D02*
X159089285Y-74591904D01*
X159136904Y-74687142D01*
X159184523Y-74734761D01*
X159279761Y-74782380D01*
X159470238Y-74782380D01*
X159565476Y-74734761D01*
X159613095Y-74687142D01*
X159660714Y-74591904D01*
X159660714Y-73782380D01*
X160136904Y-74782380D02*
X160136904Y-73782380D01*
X160517857Y-73782380D01*
X160613095Y-73830000D01*
X160660714Y-73877619D01*
X160708333Y-73972857D01*
X160708333Y-74115714D01*
X160660714Y-74210952D01*
X160613095Y-74258571D01*
X160517857Y-74306190D01*
X160136904Y-74306190D01*
X141950000Y-94897380D02*
X141950000Y-94135476D01*
X141759523Y-94325952D02*
X141950000Y-94135476D01*
X142140476Y-94325952D01*
X141426190Y-96507380D02*
X141426190Y-95507380D01*
X141902380Y-96507380D02*
X141902380Y-95507380D01*
X142473809Y-96507380D01*
X142473809Y-95507380D01*
X157275000Y-95022380D02*
X157275000Y-94260476D01*
X157084523Y-94450952D02*
X157275000Y-94260476D01*
X157465476Y-94450952D01*
X156751190Y-96632380D02*
X156751190Y-95632380D01*
X157227380Y-96632380D02*
X157227380Y-95632380D01*
X157798809Y-96632380D01*
X157798809Y-95632380D01*
X139075000Y-73172380D02*
X139075000Y-72410476D01*
X138884523Y-72600952D02*
X139075000Y-72410476D01*
X139265476Y-72600952D01*
X138289285Y-73782380D02*
X138289285Y-74591904D01*
X138336904Y-74687142D01*
X138384523Y-74734761D01*
X138479761Y-74782380D01*
X138670238Y-74782380D01*
X138765476Y-74734761D01*
X138813095Y-74687142D01*
X138860714Y-74591904D01*
X138860714Y-73782380D01*
X139336904Y-74782380D02*
X139336904Y-73782380D01*
X139717857Y-73782380D01*
X139813095Y-73830000D01*
X139860714Y-73877619D01*
X139908333Y-73972857D01*
X139908333Y-74115714D01*
X139860714Y-74210952D01*
X139813095Y-74258571D01*
X139717857Y-74306190D01*
X139336904Y-74306190D01*
%TO.C,J3*%
X143700666Y-102596380D02*
X143700666Y-103310666D01*
X143653047Y-103453523D01*
X143557809Y-103548761D01*
X143414952Y-103596380D01*
X143319714Y-103596380D01*
X144081619Y-102596380D02*
X144700666Y-102596380D01*
X144367333Y-102977333D01*
X144510190Y-102977333D01*
X144605428Y-103024952D01*
X144653047Y-103072571D01*
X144700666Y-103167809D01*
X144700666Y-103405904D01*
X144653047Y-103501142D01*
X144605428Y-103548761D01*
X144510190Y-103596380D01*
X144224476Y-103596380D01*
X144129238Y-103548761D01*
X144081619Y-103501142D01*
%TO.C,J4*%
X149166666Y-94277380D02*
X149166666Y-94991666D01*
X149119047Y-95134523D01*
X149023809Y-95229761D01*
X148880952Y-95277380D01*
X148785714Y-95277380D01*
X150071428Y-94610714D02*
X150071428Y-95277380D01*
X149833333Y-94229761D02*
X149595238Y-94944047D01*
X150214285Y-94944047D01*
%TO.C,J1*%
X148891666Y-84161380D02*
X148891666Y-84875666D01*
X148844047Y-85018523D01*
X148748809Y-85113761D01*
X148605952Y-85161380D01*
X148510714Y-85161380D01*
X149891666Y-85161380D02*
X149320238Y-85161380D01*
X149605952Y-85161380D02*
X149605952Y-84161380D01*
X149510714Y-84304238D01*
X149415476Y-84399476D01*
X149320238Y-84447095D01*
%TO.C,J2*%
X148619666Y-78680380D02*
X148619666Y-79394666D01*
X148572047Y-79537523D01*
X148476809Y-79632761D01*
X148333952Y-79680380D01*
X148238714Y-79680380D01*
X149048238Y-78775619D02*
X149095857Y-78728000D01*
X149191095Y-78680380D01*
X149429190Y-78680380D01*
X149524428Y-78728000D01*
X149572047Y-78775619D01*
X149619666Y-78870857D01*
X149619666Y-78966095D01*
X149572047Y-79108952D01*
X149000619Y-79680380D01*
X149619666Y-79680380D01*
D11*
%TO.C,J3*%
X157099000Y-107569000D02*
X141859000Y-107569000D01*
X141859000Y-107569000D02*
X141859000Y-105029000D01*
X157099000Y-105029000D02*
X157099000Y-107569000D01*
X157099000Y-105029000D02*
X141859000Y-105029000D01*
X157849000Y-106299000D02*
G75*
G03*
X157849000Y-106299000I-100000J0D01*
G01*
D12*
%TO.C,J4*%
X155806000Y-102505800D02*
X143406000Y-102505800D01*
X143406000Y-102505800D02*
X143406000Y-95705800D01*
X143406000Y-95705800D02*
X155806000Y-95705800D01*
X155806000Y-102055800D02*
X155806000Y-102505800D01*
X155806000Y-95705800D02*
X155806000Y-100505800D01*
D13*
X157474200Y-99105800D02*
G75*
G03*
X157474200Y-99105800I-105000J0D01*
G01*
D12*
%TO.C,J1*%
X160800000Y-85633000D02*
X160800000Y-90463000D01*
X137940000Y-90463000D02*
X137940000Y-85633000D01*
X137940000Y-85633000D02*
X160800000Y-85633000D01*
X137940000Y-90463000D02*
X160800000Y-90463000D01*
D11*
X161550000Y-86778000D02*
G75*
G03*
X161550000Y-86778000I-100000J0D01*
G01*
D14*
%TO.C,J2*%
X157825000Y-77386688D02*
X157825000Y-73600174D01*
X141125000Y-73600174D02*
X141125000Y-77386688D01*
X145168866Y-78299826D02*
X153781134Y-78299826D01*
X141125000Y-77386688D02*
X145168866Y-78299826D01*
X153781134Y-78299826D02*
X157825000Y-77386688D01*
X157825000Y-73600174D02*
X141125000Y-73600174D01*
D15*
X154282782Y-73039849D02*
G75*
G03*
X154282782Y-73039849I-125000J0D01*
G01*
%TD*%
M02*
