%TF.GenerationSoftware,KiCad,Pcbnew,6.0.10-86aedd382b~118~ubuntu18.04.1*%
%TF.CreationDate,2023-06-08T12:45:09-07:00*%
%TF.ProjectId,1000026_V0.kicad_pcb,31303030-3032-4365-9f56-302e6b696361,rev?*%
%TF.SameCoordinates,Original*%
%TF.FileFunction,Legend,Top*%
%TF.FilePolarity,Positive*%
%FSLAX46Y46*%
G04 Gerber Fmt 4.6, Leading zero omitted, Abs format (unit mm)*
G04 Created by KiCad (PCBNEW 6.0.10-86aedd382b~118~ubuntu18.04.1) date 2023-06-08 12:45:09*
%MOMM*%
%LPD*%
G01*
G04 APERTURE LIST*
%ADD10C,0.120000*%
%ADD11C,0.150000*%
%ADD12C,0.127000*%
%ADD13C,0.152400*%
%ADD14C,0.250000*%
%ADD15C,0.260000*%
%ADD16C,0.210000*%
%ADD17C,0.200000*%
G04 APERTURE END LIST*
D10*
X104607657Y-73352485D02*
X104250514Y-73352485D01*
X104214800Y-73709628D01*
X104250514Y-73673914D01*
X104321942Y-73638200D01*
X104500514Y-73638200D01*
X104571942Y-73673914D01*
X104607657Y-73709628D01*
X104643371Y-73781057D01*
X104643371Y-73959628D01*
X104607657Y-74031057D01*
X104571942Y-74066771D01*
X104500514Y-74102485D01*
X104321942Y-74102485D01*
X104250514Y-74066771D01*
X104214800Y-74031057D01*
X104857657Y-73352485D02*
X105107657Y-74102485D01*
X105357657Y-73352485D01*
X106179085Y-73816771D02*
X105607657Y-73816771D01*
X105750514Y-73959628D02*
X105607657Y-73816771D01*
X105750514Y-73673914D01*
X106464800Y-73352485D02*
X106929085Y-73352485D01*
X106679085Y-73638200D01*
X106786228Y-73638200D01*
X106857657Y-73673914D01*
X106893371Y-73709628D01*
X106929085Y-73781057D01*
X106929085Y-73959628D01*
X106893371Y-74031057D01*
X106857657Y-74066771D01*
X106786228Y-74102485D01*
X106571942Y-74102485D01*
X106500514Y-74066771D01*
X106464800Y-74031057D01*
X107250514Y-74031057D02*
X107286228Y-74066771D01*
X107250514Y-74102485D01*
X107214800Y-74066771D01*
X107250514Y-74031057D01*
X107250514Y-74102485D01*
X107536228Y-73352485D02*
X108000514Y-73352485D01*
X107750514Y-73638200D01*
X107857657Y-73638200D01*
X107929085Y-73673914D01*
X107964800Y-73709628D01*
X108000514Y-73781057D01*
X108000514Y-73959628D01*
X107964800Y-74031057D01*
X107929085Y-74066771D01*
X107857657Y-74102485D01*
X107643371Y-74102485D01*
X107571942Y-74066771D01*
X107536228Y-74031057D01*
X108214800Y-73352485D02*
X108464800Y-74102485D01*
X108714800Y-73352485D01*
X103114800Y-103002485D02*
X103543371Y-103002485D01*
X103329085Y-103752485D02*
X103329085Y-103002485D01*
X103900514Y-103752485D02*
X103829085Y-103716771D01*
X103793371Y-103681057D01*
X103757657Y-103609628D01*
X103757657Y-103395342D01*
X103793371Y-103323914D01*
X103829085Y-103288200D01*
X103900514Y-103252485D01*
X104007657Y-103252485D01*
X104079085Y-103288200D01*
X104114800Y-103323914D01*
X104150514Y-103395342D01*
X104150514Y-103609628D01*
X104114800Y-103681057D01*
X104079085Y-103716771D01*
X104007657Y-103752485D01*
X103900514Y-103752485D01*
X105186228Y-103002485D02*
X105329085Y-103002485D01*
X105400514Y-103038200D01*
X105471942Y-103109628D01*
X105507657Y-103252485D01*
X105507657Y-103502485D01*
X105471942Y-103645342D01*
X105400514Y-103716771D01*
X105329085Y-103752485D01*
X105186228Y-103752485D01*
X105114800Y-103716771D01*
X105043371Y-103645342D01*
X105007657Y-103502485D01*
X105007657Y-103252485D01*
X105043371Y-103109628D01*
X105114800Y-103038200D01*
X105186228Y-103002485D01*
X106186228Y-103752485D02*
X105829085Y-103752485D01*
X105829085Y-103002485D01*
X106436228Y-103359628D02*
X106686228Y-103359628D01*
X106793371Y-103752485D02*
X106436228Y-103752485D01*
X106436228Y-103002485D01*
X106793371Y-103002485D01*
X107114800Y-103752485D02*
X107114800Y-103002485D01*
X107293371Y-103002485D01*
X107400514Y-103038200D01*
X107471942Y-103109628D01*
X107507657Y-103181057D01*
X107543371Y-103323914D01*
X107543371Y-103431057D01*
X107507657Y-103573914D01*
X107471942Y-103645342D01*
X107400514Y-103716771D01*
X107293371Y-103752485D01*
X107114800Y-103752485D01*
X132239800Y-91563200D02*
X132239800Y-91206057D01*
X132454085Y-91634628D02*
X131704085Y-91384628D01*
X132454085Y-91134628D01*
X132454085Y-90884628D02*
X131954085Y-90884628D01*
X132096942Y-90884628D02*
X132025514Y-90848914D01*
X131989800Y-90813200D01*
X131954085Y-90741771D01*
X131954085Y-90670342D01*
X132454085Y-90098914D02*
X131704085Y-90098914D01*
X132418371Y-90098914D02*
X132454085Y-90170342D01*
X132454085Y-90313200D01*
X132418371Y-90384628D01*
X132382657Y-90420342D01*
X132311228Y-90456057D01*
X132096942Y-90456057D01*
X132025514Y-90420342D01*
X131989800Y-90384628D01*
X131954085Y-90313200D01*
X131954085Y-90170342D01*
X131989800Y-90098914D01*
X131954085Y-89420342D02*
X132454085Y-89420342D01*
X131954085Y-89741771D02*
X132346942Y-89741771D01*
X132418371Y-89706057D01*
X132454085Y-89634628D01*
X132454085Y-89527485D01*
X132418371Y-89456057D01*
X132382657Y-89420342D01*
X132454085Y-89063200D02*
X131954085Y-89063200D01*
X131704085Y-89063200D02*
X131739800Y-89098914D01*
X131775514Y-89063200D01*
X131739800Y-89027485D01*
X131704085Y-89063200D01*
X131775514Y-89063200D01*
X131954085Y-88706057D02*
X132454085Y-88706057D01*
X132025514Y-88706057D02*
X131989800Y-88670342D01*
X131954085Y-88598914D01*
X131954085Y-88491771D01*
X131989800Y-88420342D01*
X132061228Y-88384628D01*
X132454085Y-88384628D01*
X132454085Y-87920342D02*
X132418371Y-87991771D01*
X132382657Y-88027485D01*
X132311228Y-88063200D01*
X132096942Y-88063200D01*
X132025514Y-88027485D01*
X131989800Y-87991771D01*
X131954085Y-87920342D01*
X131954085Y-87813200D01*
X131989800Y-87741771D01*
X132025514Y-87706057D01*
X132096942Y-87670342D01*
X132311228Y-87670342D01*
X132382657Y-87706057D01*
X132418371Y-87741771D01*
X132454085Y-87813200D01*
X132454085Y-87920342D01*
X132061228Y-86527485D02*
X132096942Y-86420342D01*
X132132657Y-86384628D01*
X132204085Y-86348914D01*
X132311228Y-86348914D01*
X132382657Y-86384628D01*
X132418371Y-86420342D01*
X132454085Y-86491771D01*
X132454085Y-86777485D01*
X131704085Y-86777485D01*
X131704085Y-86527485D01*
X131739800Y-86456057D01*
X131775514Y-86420342D01*
X131846942Y-86384628D01*
X131918371Y-86384628D01*
X131989800Y-86420342D01*
X132025514Y-86456057D01*
X132061228Y-86527485D01*
X132061228Y-86777485D01*
X132454085Y-85670342D02*
X132454085Y-86027485D01*
X131704085Y-86027485D01*
X132061228Y-85420342D02*
X132061228Y-85170342D01*
X132454085Y-85063200D02*
X132454085Y-85420342D01*
X131704085Y-85420342D01*
X131704085Y-85063200D01*
X131704085Y-84241771D02*
X131704085Y-83777485D01*
X131989800Y-84027485D01*
X131989800Y-83920342D01*
X132025514Y-83848914D01*
X132061228Y-83813200D01*
X132132657Y-83777485D01*
X132311228Y-83777485D01*
X132382657Y-83813200D01*
X132418371Y-83848914D01*
X132454085Y-83920342D01*
X132454085Y-84134628D01*
X132418371Y-84206057D01*
X132382657Y-84241771D01*
X131704085Y-83527485D02*
X131704085Y-83063200D01*
X131989800Y-83313200D01*
X131989800Y-83206057D01*
X132025514Y-83134628D01*
X132061228Y-83098914D01*
X132132657Y-83063200D01*
X132311228Y-83063200D01*
X132382657Y-83098914D01*
X132418371Y-83134628D01*
X132454085Y-83206057D01*
X132454085Y-83420342D01*
X132418371Y-83491771D01*
X132382657Y-83527485D01*
X138250514Y-120352485D02*
X138393371Y-120352485D01*
X138464800Y-120388200D01*
X138536228Y-120459628D01*
X138571942Y-120602485D01*
X138571942Y-120852485D01*
X138536228Y-120995342D01*
X138464800Y-121066771D01*
X138393371Y-121102485D01*
X138250514Y-121102485D01*
X138179085Y-121066771D01*
X138107657Y-120995342D01*
X138071942Y-120852485D01*
X138071942Y-120602485D01*
X138107657Y-120459628D01*
X138179085Y-120388200D01*
X138250514Y-120352485D01*
X138893371Y-121102485D02*
X138893371Y-120352485D01*
X139321942Y-121102485D01*
X139321942Y-120352485D01*
X127100514Y-120352485D02*
X127243371Y-120352485D01*
X127314800Y-120388200D01*
X127386228Y-120459628D01*
X127421942Y-120602485D01*
X127421942Y-120852485D01*
X127386228Y-120995342D01*
X127314800Y-121066771D01*
X127243371Y-121102485D01*
X127100514Y-121102485D01*
X127029085Y-121066771D01*
X126957657Y-120995342D01*
X126921942Y-120852485D01*
X126921942Y-120602485D01*
X126957657Y-120459628D01*
X127029085Y-120388200D01*
X127100514Y-120352485D01*
X127993371Y-120709628D02*
X127743371Y-120709628D01*
X127743371Y-121102485D02*
X127743371Y-120352485D01*
X128100514Y-120352485D01*
X128636228Y-120709628D02*
X128386228Y-120709628D01*
X128386228Y-121102485D02*
X128386228Y-120352485D01*
X128743371Y-120352485D01*
X182468371Y-97477485D02*
X182896942Y-97477485D01*
X182682657Y-98227485D02*
X182682657Y-97477485D01*
X183254085Y-98227485D02*
X183182657Y-98191771D01*
X183146942Y-98156057D01*
X183111228Y-98084628D01*
X183111228Y-97870342D01*
X183146942Y-97798914D01*
X183182657Y-97763200D01*
X183254085Y-97727485D01*
X183361228Y-97727485D01*
X183432657Y-97763200D01*
X183468371Y-97798914D01*
X183504085Y-97870342D01*
X183504085Y-98084628D01*
X183468371Y-98156057D01*
X183432657Y-98191771D01*
X183361228Y-98227485D01*
X183254085Y-98227485D01*
X184825514Y-98156057D02*
X184789800Y-98191771D01*
X184682657Y-98227485D01*
X184611228Y-98227485D01*
X184504085Y-98191771D01*
X184432657Y-98120342D01*
X184396942Y-98048914D01*
X184361228Y-97906057D01*
X184361228Y-97798914D01*
X184396942Y-97656057D01*
X184432657Y-97584628D01*
X184504085Y-97513200D01*
X184611228Y-97477485D01*
X184682657Y-97477485D01*
X184789800Y-97513200D01*
X184825514Y-97548914D01*
X185468371Y-98227485D02*
X185468371Y-97834628D01*
X185432657Y-97763200D01*
X185361228Y-97727485D01*
X185218371Y-97727485D01*
X185146942Y-97763200D01*
X185468371Y-98191771D02*
X185396942Y-98227485D01*
X185218371Y-98227485D01*
X185146942Y-98191771D01*
X185111228Y-98120342D01*
X185111228Y-98048914D01*
X185146942Y-97977485D01*
X185218371Y-97941771D01*
X185396942Y-97941771D01*
X185468371Y-97906057D01*
X185825514Y-98227485D02*
X185825514Y-97727485D01*
X185825514Y-97798914D02*
X185861228Y-97763200D01*
X185932657Y-97727485D01*
X186039800Y-97727485D01*
X186111228Y-97763200D01*
X186146942Y-97834628D01*
X186146942Y-98227485D01*
X186146942Y-97834628D02*
X186182657Y-97763200D01*
X186254085Y-97727485D01*
X186361228Y-97727485D01*
X186432657Y-97763200D01*
X186468371Y-97834628D01*
X186468371Y-98227485D01*
X187111228Y-98191771D02*
X187039800Y-98227485D01*
X186896942Y-98227485D01*
X186825514Y-98191771D01*
X186789800Y-98120342D01*
X186789800Y-97834628D01*
X186825514Y-97763200D01*
X186896942Y-97727485D01*
X187039800Y-97727485D01*
X187111228Y-97763200D01*
X187146942Y-97834628D01*
X187146942Y-97906057D01*
X186789800Y-97977485D01*
X187468371Y-98227485D02*
X187468371Y-97727485D01*
X187468371Y-97870342D02*
X187504085Y-97798914D01*
X187539800Y-97763200D01*
X187611228Y-97727485D01*
X187682657Y-97727485D01*
X188254085Y-98227485D02*
X188254085Y-97834628D01*
X188218371Y-97763200D01*
X188146942Y-97727485D01*
X188004085Y-97727485D01*
X187932657Y-97763200D01*
X188254085Y-98191771D02*
X188182657Y-98227485D01*
X188004085Y-98227485D01*
X187932657Y-98191771D01*
X187896942Y-98120342D01*
X187896942Y-98048914D01*
X187932657Y-97977485D01*
X188004085Y-97941771D01*
X188182657Y-97941771D01*
X188254085Y-97906057D01*
X188793371Y-61888200D02*
X188721942Y-61852485D01*
X188614800Y-61852485D01*
X188507657Y-61888200D01*
X188436228Y-61959628D01*
X188400514Y-62031057D01*
X188364800Y-62173914D01*
X188364800Y-62281057D01*
X188400514Y-62423914D01*
X188436228Y-62495342D01*
X188507657Y-62566771D01*
X188614800Y-62602485D01*
X188686228Y-62602485D01*
X188793371Y-62566771D01*
X188829085Y-62531057D01*
X188829085Y-62281057D01*
X188686228Y-62281057D01*
X189150514Y-62602485D02*
X189150514Y-61852485D01*
X189579085Y-62602485D01*
X189579085Y-61852485D01*
X189936228Y-62602485D02*
X189936228Y-61852485D01*
X190114800Y-61852485D01*
X190221942Y-61888200D01*
X190293371Y-61959628D01*
X190329085Y-62031057D01*
X190364800Y-62173914D01*
X190364800Y-62281057D01*
X190329085Y-62423914D01*
X190293371Y-62495342D01*
X190221942Y-62566771D01*
X190114800Y-62602485D01*
X189936228Y-62602485D01*
X115918371Y-120738200D02*
X115846942Y-120702485D01*
X115739800Y-120702485D01*
X115632657Y-120738200D01*
X115561228Y-120809628D01*
X115525514Y-120881057D01*
X115489800Y-121023914D01*
X115489800Y-121131057D01*
X115525514Y-121273914D01*
X115561228Y-121345342D01*
X115632657Y-121416771D01*
X115739800Y-121452485D01*
X115811228Y-121452485D01*
X115918371Y-121416771D01*
X115954085Y-121381057D01*
X115954085Y-121131057D01*
X115811228Y-121131057D01*
X116275514Y-121452485D02*
X116275514Y-120702485D01*
X116704085Y-121452485D01*
X116704085Y-120702485D01*
X117061228Y-121452485D02*
X117061228Y-120702485D01*
X117239800Y-120702485D01*
X117346942Y-120738200D01*
X117418371Y-120809628D01*
X117454085Y-120881057D01*
X117489800Y-121023914D01*
X117489800Y-121131057D01*
X117454085Y-121273914D01*
X117418371Y-121345342D01*
X117346942Y-121416771D01*
X117239800Y-121452485D01*
X117061228Y-121452485D01*
X188857657Y-66316771D02*
X189429085Y-66316771D01*
X189143371Y-66602485D02*
X189143371Y-66031057D01*
X189714800Y-65852485D02*
X190214800Y-65852485D01*
X189893371Y-66602485D01*
X190500514Y-66531057D02*
X190536228Y-66566771D01*
X190500514Y-66602485D01*
X190464800Y-66566771D01*
X190500514Y-66531057D01*
X190500514Y-66602485D01*
X191179085Y-66102485D02*
X191179085Y-66602485D01*
X191000514Y-65816771D02*
X190821942Y-66352485D01*
X191286228Y-66352485D01*
X191464800Y-65852485D02*
X191714800Y-66602485D01*
X191964800Y-65852485D01*
X192929085Y-65852485D02*
X193071942Y-65852485D01*
X193143371Y-65888200D01*
X193214800Y-65959628D01*
X193250514Y-66102485D01*
X193250514Y-66352485D01*
X193214800Y-66495342D01*
X193143371Y-66566771D01*
X193071942Y-66602485D01*
X192929085Y-66602485D01*
X192857657Y-66566771D01*
X192786228Y-66495342D01*
X192750514Y-66352485D01*
X192750514Y-66102485D01*
X192786228Y-65959628D01*
X192857657Y-65888200D01*
X192929085Y-65852485D01*
X193571942Y-65852485D02*
X193571942Y-66459628D01*
X193607657Y-66531057D01*
X193643371Y-66566771D01*
X193714800Y-66602485D01*
X193857657Y-66602485D01*
X193929085Y-66566771D01*
X193964800Y-66531057D01*
X194000514Y-66459628D01*
X194000514Y-65852485D01*
X194250514Y-65852485D02*
X194679085Y-65852485D01*
X194464800Y-66602485D02*
X194464800Y-65852485D01*
X175129085Y-118152485D02*
X175557657Y-118152485D01*
X175343371Y-118902485D02*
X175343371Y-118152485D01*
X175914800Y-118902485D02*
X175843371Y-118866771D01*
X175807657Y-118831057D01*
X175771942Y-118759628D01*
X175771942Y-118545342D01*
X175807657Y-118473914D01*
X175843371Y-118438200D01*
X175914800Y-118402485D01*
X176021942Y-118402485D01*
X176093371Y-118438200D01*
X176129085Y-118473914D01*
X176164800Y-118545342D01*
X176164800Y-118759628D01*
X176129085Y-118831057D01*
X176093371Y-118866771D01*
X176021942Y-118902485D01*
X175914800Y-118902485D01*
X177021942Y-118866771D02*
X177129085Y-118902485D01*
X177307657Y-118902485D01*
X177379085Y-118866771D01*
X177414800Y-118831057D01*
X177450514Y-118759628D01*
X177450514Y-118688200D01*
X177414800Y-118616771D01*
X177379085Y-118581057D01*
X177307657Y-118545342D01*
X177164800Y-118509628D01*
X177093371Y-118473914D01*
X177057657Y-118438200D01*
X177021942Y-118366771D01*
X177021942Y-118295342D01*
X177057657Y-118223914D01*
X177093371Y-118188200D01*
X177164800Y-118152485D01*
X177343371Y-118152485D01*
X177450514Y-118188200D01*
X178057657Y-118866771D02*
X177986228Y-118902485D01*
X177843371Y-118902485D01*
X177771942Y-118866771D01*
X177736228Y-118795342D01*
X177736228Y-118509628D01*
X177771942Y-118438200D01*
X177843371Y-118402485D01*
X177986228Y-118402485D01*
X178057657Y-118438200D01*
X178093371Y-118509628D01*
X178093371Y-118581057D01*
X177736228Y-118652485D01*
X178414800Y-118902485D02*
X178414800Y-118402485D01*
X178414800Y-118545342D02*
X178450514Y-118473914D01*
X178486228Y-118438200D01*
X178557657Y-118402485D01*
X178629085Y-118402485D01*
X178807657Y-118402485D02*
X178986228Y-118902485D01*
X179164800Y-118402485D01*
X179557657Y-118902485D02*
X179486228Y-118866771D01*
X179450514Y-118831057D01*
X179414800Y-118759628D01*
X179414800Y-118545342D01*
X179450514Y-118473914D01*
X179486228Y-118438200D01*
X179557657Y-118402485D01*
X179664800Y-118402485D01*
X179736228Y-118438200D01*
X179771942Y-118473914D01*
X179807657Y-118545342D01*
X179807657Y-118759628D01*
X179771942Y-118831057D01*
X179736228Y-118866771D01*
X179664800Y-118902485D01*
X179557657Y-118902485D01*
X180950514Y-118509628D02*
X181057657Y-118545342D01*
X181093371Y-118581057D01*
X181129085Y-118652485D01*
X181129085Y-118759628D01*
X181093371Y-118831057D01*
X181057657Y-118866771D01*
X180986228Y-118902485D01*
X180700514Y-118902485D01*
X180700514Y-118152485D01*
X180950514Y-118152485D01*
X181021942Y-118188200D01*
X181057657Y-118223914D01*
X181093371Y-118295342D01*
X181093371Y-118366771D01*
X181057657Y-118438200D01*
X181021942Y-118473914D01*
X180950514Y-118509628D01*
X180700514Y-118509628D01*
X181557657Y-118902485D02*
X181486228Y-118866771D01*
X181450514Y-118831057D01*
X181414800Y-118759628D01*
X181414800Y-118545342D01*
X181450514Y-118473914D01*
X181486228Y-118438200D01*
X181557657Y-118402485D01*
X181664800Y-118402485D01*
X181736228Y-118438200D01*
X181771942Y-118473914D01*
X181807657Y-118545342D01*
X181807657Y-118759628D01*
X181771942Y-118831057D01*
X181736228Y-118866771D01*
X181664800Y-118902485D01*
X181557657Y-118902485D01*
X182450514Y-118902485D02*
X182450514Y-118509628D01*
X182414800Y-118438200D01*
X182343371Y-118402485D01*
X182200514Y-118402485D01*
X182129085Y-118438200D01*
X182450514Y-118866771D02*
X182379085Y-118902485D01*
X182200514Y-118902485D01*
X182129085Y-118866771D01*
X182093371Y-118795342D01*
X182093371Y-118723914D01*
X182129085Y-118652485D01*
X182200514Y-118616771D01*
X182379085Y-118616771D01*
X182450514Y-118581057D01*
X182807657Y-118902485D02*
X182807657Y-118402485D01*
X182807657Y-118545342D02*
X182843371Y-118473914D01*
X182879085Y-118438200D01*
X182950514Y-118402485D01*
X183021942Y-118402485D01*
X183593371Y-118902485D02*
X183593371Y-118152485D01*
X183593371Y-118866771D02*
X183521942Y-118902485D01*
X183379085Y-118902485D01*
X183307657Y-118866771D01*
X183271942Y-118831057D01*
X183236228Y-118759628D01*
X183236228Y-118545342D01*
X183271942Y-118473914D01*
X183307657Y-118438200D01*
X183379085Y-118402485D01*
X183521942Y-118402485D01*
X183593371Y-118438200D01*
X106932657Y-121191771D02*
X107504085Y-121191771D01*
X107218371Y-121477485D02*
X107218371Y-120906057D01*
X107789800Y-120727485D02*
X108289800Y-120727485D01*
X107968371Y-121477485D01*
X108575514Y-121406057D02*
X108611228Y-121441771D01*
X108575514Y-121477485D01*
X108539800Y-121441771D01*
X108575514Y-121406057D01*
X108575514Y-121477485D01*
X109289800Y-120727485D02*
X108932657Y-120727485D01*
X108896942Y-121084628D01*
X108932657Y-121048914D01*
X109004085Y-121013200D01*
X109182657Y-121013200D01*
X109254085Y-121048914D01*
X109289800Y-121084628D01*
X109325514Y-121156057D01*
X109325514Y-121334628D01*
X109289800Y-121406057D01*
X109254085Y-121441771D01*
X109182657Y-121477485D01*
X109004085Y-121477485D01*
X108932657Y-121441771D01*
X108896942Y-121406057D01*
X109539800Y-120727485D02*
X109789800Y-121477485D01*
X110039800Y-120727485D01*
X110861228Y-121477485D02*
X110861228Y-120727485D01*
X111218371Y-121477485D02*
X111218371Y-120727485D01*
X111646942Y-121477485D01*
X111646942Y-120727485D01*
X178129085Y-56427485D02*
X178557657Y-56427485D01*
X178343371Y-57177485D02*
X178343371Y-56427485D01*
X178914800Y-57177485D02*
X178843371Y-57141771D01*
X178807657Y-57106057D01*
X178771942Y-57034628D01*
X178771942Y-56820342D01*
X178807657Y-56748914D01*
X178843371Y-56713200D01*
X178914800Y-56677485D01*
X179021942Y-56677485D01*
X179093371Y-56713200D01*
X179129085Y-56748914D01*
X179164800Y-56820342D01*
X179164800Y-57034628D01*
X179129085Y-57106057D01*
X179093371Y-57141771D01*
X179021942Y-57177485D01*
X178914800Y-57177485D01*
X180021942Y-57141771D02*
X180129085Y-57177485D01*
X180307657Y-57177485D01*
X180379085Y-57141771D01*
X180414800Y-57106057D01*
X180450514Y-57034628D01*
X180450514Y-56963200D01*
X180414800Y-56891771D01*
X180379085Y-56856057D01*
X180307657Y-56820342D01*
X180164800Y-56784628D01*
X180093371Y-56748914D01*
X180057657Y-56713200D01*
X180021942Y-56641771D01*
X180021942Y-56570342D01*
X180057657Y-56498914D01*
X180093371Y-56463200D01*
X180164800Y-56427485D01*
X180343371Y-56427485D01*
X180450514Y-56463200D01*
X181057657Y-57141771D02*
X180986228Y-57177485D01*
X180843371Y-57177485D01*
X180771942Y-57141771D01*
X180736228Y-57070342D01*
X180736228Y-56784628D01*
X180771942Y-56713200D01*
X180843371Y-56677485D01*
X180986228Y-56677485D01*
X181057657Y-56713200D01*
X181093371Y-56784628D01*
X181093371Y-56856057D01*
X180736228Y-56927485D01*
X181414800Y-57177485D02*
X181414800Y-56677485D01*
X181414800Y-56820342D02*
X181450514Y-56748914D01*
X181486228Y-56713200D01*
X181557657Y-56677485D01*
X181629085Y-56677485D01*
X181807657Y-56677485D02*
X181986228Y-57177485D01*
X182164800Y-56677485D01*
X182557657Y-57177485D02*
X182486228Y-57141771D01*
X182450514Y-57106057D01*
X182414800Y-57034628D01*
X182414800Y-56820342D01*
X182450514Y-56748914D01*
X182486228Y-56713200D01*
X182557657Y-56677485D01*
X182664800Y-56677485D01*
X182736228Y-56713200D01*
X182771942Y-56748914D01*
X182807657Y-56820342D01*
X182807657Y-57034628D01*
X182771942Y-57106057D01*
X182736228Y-57141771D01*
X182664800Y-57177485D01*
X182557657Y-57177485D01*
X183950514Y-56784628D02*
X184057657Y-56820342D01*
X184093371Y-56856057D01*
X184129085Y-56927485D01*
X184129085Y-57034628D01*
X184093371Y-57106057D01*
X184057657Y-57141771D01*
X183986228Y-57177485D01*
X183700514Y-57177485D01*
X183700514Y-56427485D01*
X183950514Y-56427485D01*
X184021942Y-56463200D01*
X184057657Y-56498914D01*
X184093371Y-56570342D01*
X184093371Y-56641771D01*
X184057657Y-56713200D01*
X184021942Y-56748914D01*
X183950514Y-56784628D01*
X183700514Y-56784628D01*
X184557657Y-57177485D02*
X184486228Y-57141771D01*
X184450514Y-57106057D01*
X184414800Y-57034628D01*
X184414800Y-56820342D01*
X184450514Y-56748914D01*
X184486228Y-56713200D01*
X184557657Y-56677485D01*
X184664800Y-56677485D01*
X184736228Y-56713200D01*
X184771942Y-56748914D01*
X184807657Y-56820342D01*
X184807657Y-57034628D01*
X184771942Y-57106057D01*
X184736228Y-57141771D01*
X184664800Y-57177485D01*
X184557657Y-57177485D01*
X185450514Y-57177485D02*
X185450514Y-56784628D01*
X185414800Y-56713200D01*
X185343371Y-56677485D01*
X185200514Y-56677485D01*
X185129085Y-56713200D01*
X185450514Y-57141771D02*
X185379085Y-57177485D01*
X185200514Y-57177485D01*
X185129085Y-57141771D01*
X185093371Y-57070342D01*
X185093371Y-56998914D01*
X185129085Y-56927485D01*
X185200514Y-56891771D01*
X185379085Y-56891771D01*
X185450514Y-56856057D01*
X185807657Y-57177485D02*
X185807657Y-56677485D01*
X185807657Y-56820342D02*
X185843371Y-56748914D01*
X185879085Y-56713200D01*
X185950514Y-56677485D01*
X186021942Y-56677485D01*
X186593371Y-57177485D02*
X186593371Y-56427485D01*
X186593371Y-57141771D02*
X186521942Y-57177485D01*
X186379085Y-57177485D01*
X186307657Y-57141771D01*
X186271942Y-57106057D01*
X186236228Y-57034628D01*
X186236228Y-56820342D01*
X186271942Y-56748914D01*
X186307657Y-56713200D01*
X186379085Y-56677485D01*
X186521942Y-56677485D01*
X186593371Y-56713200D01*
X161143800Y-92401771D02*
X161143800Y-92044628D01*
X161358085Y-92473200D02*
X160608085Y-92223200D01*
X161358085Y-91973200D01*
X161358085Y-91723200D02*
X160858085Y-91723200D01*
X161000942Y-91723200D02*
X160929514Y-91687485D01*
X160893800Y-91651771D01*
X160858085Y-91580342D01*
X160858085Y-91508914D01*
X161358085Y-90937485D02*
X160608085Y-90937485D01*
X161322371Y-90937485D02*
X161358085Y-91008914D01*
X161358085Y-91151771D01*
X161322371Y-91223200D01*
X161286657Y-91258914D01*
X161215228Y-91294628D01*
X161000942Y-91294628D01*
X160929514Y-91258914D01*
X160893800Y-91223200D01*
X160858085Y-91151771D01*
X160858085Y-91008914D01*
X160893800Y-90937485D01*
X160858085Y-90258914D02*
X161358085Y-90258914D01*
X160858085Y-90580342D02*
X161250942Y-90580342D01*
X161322371Y-90544628D01*
X161358085Y-90473200D01*
X161358085Y-90366057D01*
X161322371Y-90294628D01*
X161286657Y-90258914D01*
X161358085Y-89901771D02*
X160858085Y-89901771D01*
X160608085Y-89901771D02*
X160643800Y-89937485D01*
X160679514Y-89901771D01*
X160643800Y-89866057D01*
X160608085Y-89901771D01*
X160679514Y-89901771D01*
X160858085Y-89544628D02*
X161358085Y-89544628D01*
X160929514Y-89544628D02*
X160893800Y-89508914D01*
X160858085Y-89437485D01*
X160858085Y-89330342D01*
X160893800Y-89258914D01*
X160965228Y-89223200D01*
X161358085Y-89223200D01*
X161358085Y-88758914D02*
X161322371Y-88830342D01*
X161286657Y-88866057D01*
X161215228Y-88901771D01*
X161000942Y-88901771D01*
X160929514Y-88866057D01*
X160893800Y-88830342D01*
X160858085Y-88758914D01*
X160858085Y-88651771D01*
X160893800Y-88580342D01*
X160929514Y-88544628D01*
X161000942Y-88508914D01*
X161215228Y-88508914D01*
X161286657Y-88544628D01*
X161322371Y-88580342D01*
X161358085Y-88651771D01*
X161358085Y-88758914D01*
X160965228Y-87366057D02*
X161000942Y-87258914D01*
X161036657Y-87223200D01*
X161108085Y-87187485D01*
X161215228Y-87187485D01*
X161286657Y-87223200D01*
X161322371Y-87258914D01*
X161358085Y-87330342D01*
X161358085Y-87616057D01*
X160608085Y-87616057D01*
X160608085Y-87366057D01*
X160643800Y-87294628D01*
X160679514Y-87258914D01*
X160750942Y-87223200D01*
X160822371Y-87223200D01*
X160893800Y-87258914D01*
X160929514Y-87294628D01*
X160965228Y-87366057D01*
X160965228Y-87616057D01*
X161358085Y-86508914D02*
X161358085Y-86866057D01*
X160608085Y-86866057D01*
X160965228Y-86258914D02*
X160965228Y-86008914D01*
X161358085Y-85901771D02*
X161358085Y-86258914D01*
X160608085Y-86258914D01*
X160608085Y-85901771D01*
X160608085Y-85080342D02*
X160608085Y-84616057D01*
X160893800Y-84866057D01*
X160893800Y-84758914D01*
X160929514Y-84687485D01*
X160965228Y-84651771D01*
X161036657Y-84616057D01*
X161215228Y-84616057D01*
X161286657Y-84651771D01*
X161322371Y-84687485D01*
X161358085Y-84758914D01*
X161358085Y-84973200D01*
X161322371Y-85044628D01*
X161286657Y-85080342D01*
X160608085Y-84366057D02*
X160608085Y-83901771D01*
X160893800Y-84151771D01*
X160893800Y-84044628D01*
X160929514Y-83973200D01*
X160965228Y-83937485D01*
X161036657Y-83901771D01*
X161215228Y-83901771D01*
X161286657Y-83937485D01*
X161322371Y-83973200D01*
X161358085Y-84044628D01*
X161358085Y-84258914D01*
X161322371Y-84330342D01*
X161286657Y-84366057D01*
X161322371Y-83044628D02*
X161358085Y-82937485D01*
X161358085Y-82758914D01*
X161322371Y-82687485D01*
X161286657Y-82651771D01*
X161215228Y-82616057D01*
X161143800Y-82616057D01*
X161072371Y-82651771D01*
X161036657Y-82687485D01*
X161000942Y-82758914D01*
X160965228Y-82901771D01*
X160929514Y-82973200D01*
X160893800Y-83008914D01*
X160822371Y-83044628D01*
X160750942Y-83044628D01*
X160679514Y-83008914D01*
X160643800Y-82973200D01*
X160608085Y-82901771D01*
X160608085Y-82723200D01*
X160643800Y-82616057D01*
X161322371Y-82008914D02*
X161358085Y-82080342D01*
X161358085Y-82223200D01*
X161322371Y-82294628D01*
X161250942Y-82330342D01*
X160965228Y-82330342D01*
X160893800Y-82294628D01*
X160858085Y-82223200D01*
X160858085Y-82080342D01*
X160893800Y-82008914D01*
X160965228Y-81973200D01*
X161036657Y-81973200D01*
X161108085Y-82330342D01*
X160858085Y-81651771D02*
X161358085Y-81651771D01*
X160929514Y-81651771D02*
X160893800Y-81616057D01*
X160858085Y-81544628D01*
X160858085Y-81437485D01*
X160893800Y-81366057D01*
X160965228Y-81330342D01*
X161358085Y-81330342D01*
X161322371Y-81008914D02*
X161358085Y-80937485D01*
X161358085Y-80794628D01*
X161322371Y-80723200D01*
X161250942Y-80687485D01*
X161215228Y-80687485D01*
X161143800Y-80723200D01*
X161108085Y-80794628D01*
X161108085Y-80901771D01*
X161072371Y-80973200D01*
X161000942Y-81008914D01*
X160965228Y-81008914D01*
X160893800Y-80973200D01*
X160858085Y-80901771D01*
X160858085Y-80794628D01*
X160893800Y-80723200D01*
X161322371Y-80080342D02*
X161358085Y-80151771D01*
X161358085Y-80294628D01*
X161322371Y-80366057D01*
X161250942Y-80401771D01*
X160965228Y-80401771D01*
X160893800Y-80366057D01*
X160858085Y-80294628D01*
X160858085Y-80151771D01*
X160893800Y-80080342D01*
X160965228Y-80044628D01*
X161036657Y-80044628D01*
X161108085Y-80401771D01*
%TO.C,A2*%
X132209085Y-108618200D02*
X132566228Y-108618200D01*
X132137657Y-108832485D02*
X132387657Y-108082485D01*
X132637657Y-108832485D01*
X132851942Y-108153914D02*
X132887657Y-108118200D01*
X132959085Y-108082485D01*
X133137657Y-108082485D01*
X133209085Y-108118200D01*
X133244800Y-108153914D01*
X133280514Y-108225342D01*
X133280514Y-108296771D01*
X133244800Y-108403914D01*
X132816228Y-108832485D01*
X133280514Y-108832485D01*
X133691228Y-68263914D02*
X133691228Y-67656771D01*
X133655514Y-67585342D01*
X133619800Y-67549628D01*
X133548371Y-67513914D01*
X133405514Y-67513914D01*
X133334085Y-67549628D01*
X133298371Y-67585342D01*
X133262657Y-67656771D01*
X133262657Y-68263914D01*
X132941228Y-67549628D02*
X132834085Y-67513914D01*
X132655514Y-67513914D01*
X132584085Y-67549628D01*
X132548371Y-67585342D01*
X132512657Y-67656771D01*
X132512657Y-67728200D01*
X132548371Y-67799628D01*
X132584085Y-67835342D01*
X132655514Y-67871057D01*
X132798371Y-67906771D01*
X132869800Y-67942485D01*
X132905514Y-67978200D01*
X132941228Y-68049628D01*
X132941228Y-68121057D01*
X132905514Y-68192485D01*
X132869800Y-68228200D01*
X132798371Y-68263914D01*
X132619800Y-68263914D01*
X132512657Y-68228200D01*
X131941228Y-67906771D02*
X131834085Y-67871057D01*
X131798371Y-67835342D01*
X131762657Y-67763914D01*
X131762657Y-67656771D01*
X131798371Y-67585342D01*
X131834085Y-67549628D01*
X131905514Y-67513914D01*
X132191228Y-67513914D01*
X132191228Y-68263914D01*
X131941228Y-68263914D01*
X131869800Y-68228200D01*
X131834085Y-68192485D01*
X131798371Y-68121057D01*
X131798371Y-68049628D01*
X131834085Y-67978200D01*
X131869800Y-67942485D01*
X131941228Y-67906771D01*
X132191228Y-67906771D01*
%TO.C,R1*%
X141304085Y-115638200D02*
X140946942Y-115888200D01*
X141304085Y-116066771D02*
X140554085Y-116066771D01*
X140554085Y-115781057D01*
X140589800Y-115709628D01*
X140625514Y-115673914D01*
X140696942Y-115638200D01*
X140804085Y-115638200D01*
X140875514Y-115673914D01*
X140911228Y-115709628D01*
X140946942Y-115781057D01*
X140946942Y-116066771D01*
X141304085Y-114923914D02*
X141304085Y-115352485D01*
X141304085Y-115138200D02*
X140554085Y-115138200D01*
X140661228Y-115209628D01*
X140732657Y-115281057D01*
X140768371Y-115352485D01*
X145929085Y-116991771D02*
X145929085Y-116527485D01*
X146214800Y-116777485D01*
X146214800Y-116670342D01*
X146250514Y-116598914D01*
X146286228Y-116563200D01*
X146357657Y-116527485D01*
X146536228Y-116527485D01*
X146607657Y-116563200D01*
X146643371Y-116598914D01*
X146679085Y-116670342D01*
X146679085Y-116884628D01*
X146643371Y-116956057D01*
X146607657Y-116991771D01*
X145929085Y-116277485D02*
X145929085Y-115813200D01*
X146214800Y-116063200D01*
X146214800Y-115956057D01*
X146250514Y-115884628D01*
X146286228Y-115848914D01*
X146357657Y-115813200D01*
X146536228Y-115813200D01*
X146607657Y-115848914D01*
X146643371Y-115884628D01*
X146679085Y-115956057D01*
X146679085Y-116170342D01*
X146643371Y-116241771D01*
X146607657Y-116277485D01*
X145929085Y-115348914D02*
X145929085Y-115277485D01*
X145964800Y-115206057D01*
X146000514Y-115170342D01*
X146071942Y-115134628D01*
X146214800Y-115098914D01*
X146393371Y-115098914D01*
X146536228Y-115134628D01*
X146607657Y-115170342D01*
X146643371Y-115206057D01*
X146679085Y-115277485D01*
X146679085Y-115348914D01*
X146643371Y-115420342D01*
X146607657Y-115456057D01*
X146536228Y-115491771D01*
X146393371Y-115527485D01*
X146214800Y-115527485D01*
X146071942Y-115491771D01*
X146000514Y-115456057D01*
X145964800Y-115420342D01*
X145929085Y-115348914D01*
X146679085Y-114241771D02*
X146679085Y-114063200D01*
X146536228Y-114063200D01*
X146500514Y-114134628D01*
X146429085Y-114206057D01*
X146321942Y-114241771D01*
X146143371Y-114241771D01*
X146036228Y-114206057D01*
X145964800Y-114134628D01*
X145929085Y-114027485D01*
X145929085Y-113884628D01*
X145964800Y-113777485D01*
X146036228Y-113706057D01*
X146143371Y-113670342D01*
X146321942Y-113670342D01*
X146429085Y-113706057D01*
X146500514Y-113777485D01*
X146536228Y-113848914D01*
X146679085Y-113848914D01*
X146679085Y-113670342D01*
%TO.C,J2*%
X104964800Y-101752485D02*
X104964800Y-102288200D01*
X104929085Y-102395342D01*
X104857657Y-102466771D01*
X104750514Y-102502485D01*
X104679085Y-102502485D01*
X105286228Y-101823914D02*
X105321942Y-101788200D01*
X105393371Y-101752485D01*
X105571942Y-101752485D01*
X105643371Y-101788200D01*
X105679085Y-101823914D01*
X105714800Y-101895342D01*
X105714800Y-101966771D01*
X105679085Y-102073914D01*
X105250514Y-102502485D01*
X105714800Y-102502485D01*
%TO.C,C3*%
X105382657Y-81163200D02*
X105418371Y-81198914D01*
X105454085Y-81306057D01*
X105454085Y-81377485D01*
X105418371Y-81484628D01*
X105346942Y-81556057D01*
X105275514Y-81591771D01*
X105132657Y-81627485D01*
X105025514Y-81627485D01*
X104882657Y-81591771D01*
X104811228Y-81556057D01*
X104739800Y-81484628D01*
X104704085Y-81377485D01*
X104704085Y-81306057D01*
X104739800Y-81198914D01*
X104775514Y-81163200D01*
X104704085Y-80913200D02*
X104704085Y-80448914D01*
X104989800Y-80698914D01*
X104989800Y-80591771D01*
X105025514Y-80520342D01*
X105061228Y-80484628D01*
X105132657Y-80448914D01*
X105311228Y-80448914D01*
X105382657Y-80484628D01*
X105418371Y-80520342D01*
X105454085Y-80591771D01*
X105454085Y-80806057D01*
X105418371Y-80877485D01*
X105382657Y-80913200D01*
X105779085Y-80831057D02*
X105779085Y-80759628D01*
X105814800Y-80688200D01*
X105850514Y-80652485D01*
X105921942Y-80616771D01*
X106064800Y-80581057D01*
X106243371Y-80581057D01*
X106386228Y-80616771D01*
X106457657Y-80652485D01*
X106493371Y-80688200D01*
X106529085Y-80759628D01*
X106529085Y-80831057D01*
X106493371Y-80902485D01*
X106457657Y-80938200D01*
X106386228Y-80973914D01*
X106243371Y-81009628D01*
X106064800Y-81009628D01*
X105921942Y-80973914D01*
X105850514Y-80938200D01*
X105814800Y-80902485D01*
X105779085Y-80831057D01*
X106457657Y-80259628D02*
X106493371Y-80223914D01*
X106529085Y-80259628D01*
X106493371Y-80295342D01*
X106457657Y-80259628D01*
X106529085Y-80259628D01*
X106529085Y-79509628D02*
X106529085Y-79938200D01*
X106529085Y-79723914D02*
X105779085Y-79723914D01*
X105886228Y-79795342D01*
X105957657Y-79866771D01*
X105993371Y-79938200D01*
X106029085Y-78295342D02*
X106529085Y-78295342D01*
X106029085Y-78616771D02*
X106421942Y-78616771D01*
X106493371Y-78581057D01*
X106529085Y-78509628D01*
X106529085Y-78402485D01*
X106493371Y-78331057D01*
X106457657Y-78295342D01*
X106136228Y-77688200D02*
X106136228Y-77938200D01*
X106529085Y-77938200D02*
X105779085Y-77938200D01*
X105779085Y-77581057D01*
%TO.C,J5*%
X176054085Y-64113200D02*
X176589800Y-64113200D01*
X176696942Y-64148914D01*
X176768371Y-64220342D01*
X176804085Y-64327485D01*
X176804085Y-64398914D01*
X176054085Y-63398914D02*
X176054085Y-63756057D01*
X176411228Y-63791771D01*
X176375514Y-63756057D01*
X176339800Y-63684628D01*
X176339800Y-63506057D01*
X176375514Y-63434628D01*
X176411228Y-63398914D01*
X176482657Y-63363200D01*
X176661228Y-63363200D01*
X176732657Y-63398914D01*
X176768371Y-63434628D01*
X176804085Y-63506057D01*
X176804085Y-63684628D01*
X176768371Y-63756057D01*
X176732657Y-63791771D01*
%TO.C,SW1*%
X164924000Y-119237371D02*
X165031142Y-119273085D01*
X165209714Y-119273085D01*
X165281142Y-119237371D01*
X165316857Y-119201657D01*
X165352571Y-119130228D01*
X165352571Y-119058800D01*
X165316857Y-118987371D01*
X165281142Y-118951657D01*
X165209714Y-118915942D01*
X165066857Y-118880228D01*
X164995428Y-118844514D01*
X164959714Y-118808800D01*
X164924000Y-118737371D01*
X164924000Y-118665942D01*
X164959714Y-118594514D01*
X164995428Y-118558800D01*
X165066857Y-118523085D01*
X165245428Y-118523085D01*
X165352571Y-118558800D01*
X165602571Y-118523085D02*
X165781142Y-119273085D01*
X165924000Y-118737371D01*
X166066857Y-119273085D01*
X166245428Y-118523085D01*
X166924000Y-119273085D02*
X166495428Y-119273085D01*
X166709714Y-119273085D02*
X166709714Y-118523085D01*
X166638285Y-118630228D01*
X166566857Y-118701657D01*
X166495428Y-118737371D01*
D11*
X162202900Y-111187381D02*
X162202900Y-111425477D01*
X161964804Y-111330239D02*
X162202900Y-111425477D01*
X162440995Y-111330239D01*
X162060042Y-111615953D02*
X162202900Y-111425477D01*
X162345757Y-111615953D01*
D10*
%TO.C,A1*%
X160259585Y-108416200D02*
X160616728Y-108416200D01*
X160188157Y-108630485D02*
X160438157Y-107880485D01*
X160688157Y-108630485D01*
X161331014Y-108630485D02*
X160902442Y-108630485D01*
X161116728Y-108630485D02*
X161116728Y-107880485D01*
X161045300Y-107987628D01*
X160973871Y-108059057D01*
X160902442Y-108094771D01*
X161741728Y-68061914D02*
X161741728Y-67454771D01*
X161706014Y-67383342D01*
X161670300Y-67347628D01*
X161598871Y-67311914D01*
X161456014Y-67311914D01*
X161384585Y-67347628D01*
X161348871Y-67383342D01*
X161313157Y-67454771D01*
X161313157Y-68061914D01*
X160991728Y-67347628D02*
X160884585Y-67311914D01*
X160706014Y-67311914D01*
X160634585Y-67347628D01*
X160598871Y-67383342D01*
X160563157Y-67454771D01*
X160563157Y-67526200D01*
X160598871Y-67597628D01*
X160634585Y-67633342D01*
X160706014Y-67669057D01*
X160848871Y-67704771D01*
X160920300Y-67740485D01*
X160956014Y-67776200D01*
X160991728Y-67847628D01*
X160991728Y-67919057D01*
X160956014Y-67990485D01*
X160920300Y-68026200D01*
X160848871Y-68061914D01*
X160670300Y-68061914D01*
X160563157Y-68026200D01*
X159991728Y-67704771D02*
X159884585Y-67669057D01*
X159848871Y-67633342D01*
X159813157Y-67561914D01*
X159813157Y-67454771D01*
X159848871Y-67383342D01*
X159884585Y-67347628D01*
X159956014Y-67311914D01*
X160241728Y-67311914D01*
X160241728Y-68061914D01*
X159991728Y-68061914D01*
X159920300Y-68026200D01*
X159884585Y-67990485D01*
X159848871Y-67919057D01*
X159848871Y-67847628D01*
X159884585Y-67776200D01*
X159920300Y-67740485D01*
X159991728Y-67704771D01*
X160241728Y-67704771D01*
%TO.C,J3*%
X113214800Y-109002485D02*
X113214800Y-109538200D01*
X113179085Y-109645342D01*
X113107657Y-109716771D01*
X113000514Y-109752485D01*
X112929085Y-109752485D01*
X113500514Y-109002485D02*
X113964800Y-109002485D01*
X113714800Y-109288200D01*
X113821942Y-109288200D01*
X113893371Y-109323914D01*
X113929085Y-109359628D01*
X113964800Y-109431057D01*
X113964800Y-109609628D01*
X113929085Y-109681057D01*
X113893371Y-109716771D01*
X113821942Y-109752485D01*
X113607657Y-109752485D01*
X113536228Y-109716771D01*
X113500514Y-109681057D01*
%TO.C,C2*%
X102557657Y-81113200D02*
X102593371Y-81148914D01*
X102629085Y-81256057D01*
X102629085Y-81327485D01*
X102593371Y-81434628D01*
X102521942Y-81506057D01*
X102450514Y-81541771D01*
X102307657Y-81577485D01*
X102200514Y-81577485D01*
X102057657Y-81541771D01*
X101986228Y-81506057D01*
X101914800Y-81434628D01*
X101879085Y-81327485D01*
X101879085Y-81256057D01*
X101914800Y-81148914D01*
X101950514Y-81113200D01*
X101950514Y-80827485D02*
X101914800Y-80791771D01*
X101879085Y-80720342D01*
X101879085Y-80541771D01*
X101914800Y-80470342D01*
X101950514Y-80434628D01*
X102021942Y-80398914D01*
X102093371Y-80398914D01*
X102200514Y-80434628D01*
X102629085Y-80863200D01*
X102629085Y-80398914D01*
X103029085Y-80781057D02*
X103029085Y-80709628D01*
X103064800Y-80638200D01*
X103100514Y-80602485D01*
X103171942Y-80566771D01*
X103314800Y-80531057D01*
X103493371Y-80531057D01*
X103636228Y-80566771D01*
X103707657Y-80602485D01*
X103743371Y-80638200D01*
X103779085Y-80709628D01*
X103779085Y-80781057D01*
X103743371Y-80852485D01*
X103707657Y-80888200D01*
X103636228Y-80923914D01*
X103493371Y-80959628D01*
X103314800Y-80959628D01*
X103171942Y-80923914D01*
X103100514Y-80888200D01*
X103064800Y-80852485D01*
X103029085Y-80781057D01*
X103707657Y-80209628D02*
X103743371Y-80173914D01*
X103779085Y-80209628D01*
X103743371Y-80245342D01*
X103707657Y-80209628D01*
X103779085Y-80209628D01*
X103779085Y-79459628D02*
X103779085Y-79888200D01*
X103779085Y-79673914D02*
X103029085Y-79673914D01*
X103136228Y-79745342D01*
X103207657Y-79816771D01*
X103243371Y-79888200D01*
X103279085Y-78245342D02*
X103779085Y-78245342D01*
X103279085Y-78566771D02*
X103671942Y-78566771D01*
X103743371Y-78531057D01*
X103779085Y-78459628D01*
X103779085Y-78352485D01*
X103743371Y-78281057D01*
X103707657Y-78245342D01*
X103386228Y-77638200D02*
X103386228Y-77888200D01*
X103779085Y-77888200D02*
X103029085Y-77888200D01*
X103029085Y-77531057D01*
%TO.C,F1*%
X122514800Y-111259628D02*
X122264800Y-111259628D01*
X122264800Y-111652485D02*
X122264800Y-110902485D01*
X122621942Y-110902485D01*
X123300514Y-111652485D02*
X122871942Y-111652485D01*
X123086228Y-111652485D02*
X123086228Y-110902485D01*
X123014800Y-111009628D01*
X122943371Y-111081057D01*
X122871942Y-111116771D01*
%TO.C,D3*%
X182661228Y-74952485D02*
X182661228Y-74202485D01*
X182839800Y-74202485D01*
X182946942Y-74238200D01*
X183018371Y-74309628D01*
X183054085Y-74381057D01*
X183089800Y-74523914D01*
X183089800Y-74631057D01*
X183054085Y-74773914D01*
X183018371Y-74845342D01*
X182946942Y-74916771D01*
X182839800Y-74952485D01*
X182661228Y-74952485D01*
X183339800Y-74202485D02*
X183804085Y-74202485D01*
X183554085Y-74488200D01*
X183661228Y-74488200D01*
X183732657Y-74523914D01*
X183768371Y-74559628D01*
X183804085Y-74631057D01*
X183804085Y-74809628D01*
X183768371Y-74881057D01*
X183732657Y-74916771D01*
X183661228Y-74952485D01*
X183446942Y-74952485D01*
X183375514Y-74916771D01*
X183339800Y-74881057D01*
X184329085Y-70841771D02*
X184900514Y-70841771D01*
X184614800Y-71127485D02*
X184614800Y-70556057D01*
X181129085Y-70791771D02*
X181700514Y-70791771D01*
%TO.C,D1*%
X160654085Y-116291771D02*
X159904085Y-116291771D01*
X159904085Y-116113200D01*
X159939800Y-116006057D01*
X160011228Y-115934628D01*
X160082657Y-115898914D01*
X160225514Y-115863200D01*
X160332657Y-115863200D01*
X160475514Y-115898914D01*
X160546942Y-115934628D01*
X160618371Y-116006057D01*
X160654085Y-116113200D01*
X160654085Y-116291771D01*
X160654085Y-115148914D02*
X160654085Y-115577485D01*
X160654085Y-115363200D02*
X159904085Y-115363200D01*
X160011228Y-115434628D01*
X160082657Y-115506057D01*
X160118371Y-115577485D01*
X156618371Y-114598914D02*
X156618371Y-114027485D01*
X156904085Y-114313200D02*
X156332657Y-114313200D01*
X156593371Y-117573914D02*
X156593371Y-117002485D01*
%TO.C,J1*%
X179589800Y-108827485D02*
X179589800Y-109363200D01*
X179554085Y-109470342D01*
X179482657Y-109541771D01*
X179375514Y-109577485D01*
X179304085Y-109577485D01*
X180339800Y-109577485D02*
X179911228Y-109577485D01*
X180125514Y-109577485D02*
X180125514Y-108827485D01*
X180054085Y-108934628D01*
X179982657Y-109006057D01*
X179911228Y-109041771D01*
%TO.C,S1*%
X132493371Y-111516771D02*
X132600514Y-111552485D01*
X132779085Y-111552485D01*
X132850514Y-111516771D01*
X132886228Y-111481057D01*
X132921942Y-111409628D01*
X132921942Y-111338200D01*
X132886228Y-111266771D01*
X132850514Y-111231057D01*
X132779085Y-111195342D01*
X132636228Y-111159628D01*
X132564800Y-111123914D01*
X132529085Y-111088200D01*
X132493371Y-111016771D01*
X132493371Y-110945342D01*
X132529085Y-110873914D01*
X132564800Y-110838200D01*
X132636228Y-110802485D01*
X132814800Y-110802485D01*
X132921942Y-110838200D01*
X133636228Y-111552485D02*
X133207657Y-111552485D01*
X133421942Y-111552485D02*
X133421942Y-110802485D01*
X133350514Y-110909628D01*
X133279085Y-110981057D01*
X133207657Y-111016771D01*
%TO.C,LED1*%
X149975514Y-112102485D02*
X149618371Y-112102485D01*
X149618371Y-111352485D01*
X150225514Y-111709628D02*
X150475514Y-111709628D01*
X150582657Y-112102485D02*
X150225514Y-112102485D01*
X150225514Y-111352485D01*
X150582657Y-111352485D01*
X150904085Y-112102485D02*
X150904085Y-111352485D01*
X151082657Y-111352485D01*
X151189800Y-111388200D01*
X151261228Y-111459628D01*
X151296942Y-111531057D01*
X151332657Y-111673914D01*
X151332657Y-111781057D01*
X151296942Y-111923914D01*
X151261228Y-111995342D01*
X151189800Y-112066771D01*
X151082657Y-112102485D01*
X150904085Y-112102485D01*
X152046942Y-112102485D02*
X151618371Y-112102485D01*
X151832657Y-112102485D02*
X151832657Y-111352485D01*
X151761228Y-111459628D01*
X151689800Y-111531057D01*
X151618371Y-111566771D01*
X153204914Y-120150228D02*
X152633485Y-120150228D01*
X148810714Y-120124828D02*
X148239285Y-120124828D01*
X148525000Y-119839114D02*
X148525000Y-120410542D01*
%TO.C,R2*%
X106240400Y-59710085D02*
X105990400Y-59352942D01*
X105811828Y-59710085D02*
X105811828Y-58960085D01*
X106097542Y-58960085D01*
X106168971Y-58995800D01*
X106204685Y-59031514D01*
X106240400Y-59102942D01*
X106240400Y-59210085D01*
X106204685Y-59281514D01*
X106168971Y-59317228D01*
X106097542Y-59352942D01*
X105811828Y-59352942D01*
X106526114Y-59031514D02*
X106561828Y-58995800D01*
X106633257Y-58960085D01*
X106811828Y-58960085D01*
X106883257Y-58995800D01*
X106918971Y-59031514D01*
X106954685Y-59102942D01*
X106954685Y-59174371D01*
X106918971Y-59281514D01*
X106490400Y-59710085D01*
X106954685Y-59710085D01*
X105407657Y-62652485D02*
X104979085Y-62652485D01*
X105193371Y-62652485D02*
X105193371Y-61902485D01*
X105121942Y-62009628D01*
X105050514Y-62081057D01*
X104979085Y-62116771D01*
X105871942Y-61902485D02*
X105943371Y-61902485D01*
X106014800Y-61938200D01*
X106050514Y-61973914D01*
X106086228Y-62045342D01*
X106121942Y-62188200D01*
X106121942Y-62366771D01*
X106086228Y-62509628D01*
X106050514Y-62581057D01*
X106014800Y-62616771D01*
X105943371Y-62652485D01*
X105871942Y-62652485D01*
X105800514Y-62616771D01*
X105764800Y-62581057D01*
X105729085Y-62509628D01*
X105693371Y-62366771D01*
X105693371Y-62188200D01*
X105729085Y-62045342D01*
X105764800Y-61973914D01*
X105800514Y-61938200D01*
X105871942Y-61902485D01*
X107014800Y-62652485D02*
X107014800Y-61902485D01*
X107443371Y-62652485D02*
X107121942Y-62223914D01*
X107443371Y-61902485D02*
X107014800Y-62331057D01*
X107729085Y-62652485D02*
X107907657Y-62652485D01*
X107907657Y-62509628D01*
X107836228Y-62473914D01*
X107764800Y-62402485D01*
X107729085Y-62295342D01*
X107729085Y-62116771D01*
X107764800Y-62009628D01*
X107836228Y-61938200D01*
X107943371Y-61902485D01*
X108086228Y-61902485D01*
X108193371Y-61938200D01*
X108264800Y-62009628D01*
X108300514Y-62116771D01*
X108300514Y-62295342D01*
X108264800Y-62402485D01*
X108193371Y-62473914D01*
X108121942Y-62509628D01*
X108121942Y-62652485D01*
X108300514Y-62652485D01*
%TO.C,J9*%
X184901800Y-76892485D02*
X184901800Y-77428200D01*
X184866085Y-77535342D01*
X184794657Y-77606771D01*
X184687514Y-77642485D01*
X184616085Y-77642485D01*
X185294657Y-77642485D02*
X185437514Y-77642485D01*
X185508942Y-77606771D01*
X185544657Y-77571057D01*
X185616085Y-77463914D01*
X185651800Y-77321057D01*
X185651800Y-77035342D01*
X185616085Y-76963914D01*
X185580371Y-76928200D01*
X185508942Y-76892485D01*
X185366085Y-76892485D01*
X185294657Y-76928200D01*
X185258942Y-76963914D01*
X185223228Y-77035342D01*
X185223228Y-77213914D01*
X185258942Y-77285342D01*
X185294657Y-77321057D01*
X185366085Y-77356771D01*
X185508942Y-77356771D01*
X185580371Y-77321057D01*
X185616085Y-77285342D01*
X185651800Y-77213914D01*
%TO.C,U1*%
X105556871Y-71879485D02*
X105556871Y-72486628D01*
X105592585Y-72558057D01*
X105628300Y-72593771D01*
X105699728Y-72629485D01*
X105842585Y-72629485D01*
X105914014Y-72593771D01*
X105949728Y-72558057D01*
X105985442Y-72486628D01*
X105985442Y-71879485D01*
X106735442Y-72629485D02*
X106306871Y-72629485D01*
X106521157Y-72629485D02*
X106521157Y-71879485D01*
X106449728Y-71986628D01*
X106378300Y-72058057D01*
X106306871Y-72093771D01*
%TO.C,A2*%
X123724800Y-63913200D02*
X123724800Y-107353200D01*
X126394800Y-104683200D02*
X126394800Y-66583200D01*
X128804800Y-61373200D02*
X136684800Y-61373200D01*
X141764800Y-63913200D02*
X136684800Y-63913200D01*
X139094800Y-102143200D02*
X139094800Y-104683200D01*
X136684800Y-71793200D02*
X128804800Y-71793200D01*
X139094800Y-102143200D02*
X139094800Y-66583200D01*
X141764800Y-107353200D02*
X141764800Y-104683200D01*
X139094800Y-66583200D02*
X141764800Y-66583200D01*
X128804800Y-71793200D02*
X128804800Y-61373200D01*
X126394800Y-104683200D02*
X123724800Y-104683200D01*
X139094800Y-104683200D02*
X141764800Y-104683200D01*
X139094800Y-102143200D02*
X141764800Y-102143200D01*
X123724800Y-107353200D02*
X141764800Y-107353200D01*
X126394800Y-66583200D02*
X123724800Y-66583200D01*
X123724800Y-63913200D02*
X128804800Y-63913200D01*
X136684800Y-61373200D02*
X136684800Y-71793200D01*
X141764800Y-102143200D02*
X141764800Y-63913200D01*
D12*
%TO.C,R1*%
X142019800Y-117109200D02*
X142019800Y-113189200D01*
X145479800Y-117109200D02*
X145479800Y-113189200D01*
D13*
%TO.C,J2*%
X106768239Y-100739182D02*
X107681377Y-96695316D01*
X107681377Y-88083048D02*
X106768239Y-84039182D01*
X102981725Y-84039182D02*
X102981725Y-100739182D01*
X102981725Y-100739182D02*
X106768239Y-100739182D01*
X106768239Y-84039182D02*
X102981725Y-84039182D01*
X107681377Y-96695316D02*
X107681377Y-88083048D01*
D14*
X102546400Y-87706400D02*
G75*
G03*
X102546400Y-87706400I-125000J0D01*
G01*
D12*
%TO.C,C3*%
X104559800Y-78759000D02*
X104559800Y-79759000D01*
X105519800Y-79759000D02*
X105519800Y-78759000D01*
D13*
%TO.C,J5*%
X187363799Y-59263201D02*
X179113798Y-59263201D01*
X179113798Y-68363183D02*
X187363799Y-68363183D01*
X179113798Y-59263201D02*
X179113798Y-68363183D01*
X187363799Y-68363183D02*
X187363799Y-59263201D01*
D15*
X177331600Y-62139400D02*
G75*
G03*
X177331600Y-62139400I-130000J0D01*
G01*
D13*
%TO.C,SW1*%
X163472900Y-117154663D02*
X163472900Y-117524100D01*
X168222700Y-116143736D02*
X168222700Y-114154664D01*
X168222700Y-117524100D02*
X168222700Y-117154663D01*
X163472900Y-117524100D02*
X168222700Y-117524100D01*
X168222700Y-113143737D02*
X168222700Y-112774300D01*
X163472900Y-114154664D02*
X163472900Y-116143736D01*
X168222700Y-112774300D02*
X163472900Y-112774300D01*
X163472900Y-112774300D02*
X163472900Y-113143737D01*
X167841700Y-115149200D02*
G75*
G03*
X167841700Y-115149200I-1993900J0D01*
G01*
D10*
%TO.C,A1*%
X164735300Y-61171200D02*
X164735300Y-71591200D01*
X167145300Y-101941200D02*
X167145300Y-104481200D01*
X164735300Y-71591200D02*
X156855300Y-71591200D01*
X154445300Y-104481200D02*
X154445300Y-66381200D01*
X169815300Y-63711200D02*
X164735300Y-63711200D01*
X156855300Y-71591200D02*
X156855300Y-61171200D01*
X167145300Y-66381200D02*
X169815300Y-66381200D01*
X151775300Y-63711200D02*
X151775300Y-107151200D01*
X156855300Y-61171200D02*
X164735300Y-61171200D01*
X167145300Y-104481200D02*
X169815300Y-104481200D01*
X169815300Y-107151200D02*
X169815300Y-104481200D01*
X154445300Y-66381200D02*
X151775300Y-66381200D01*
X167145300Y-101941200D02*
X167145300Y-66381200D01*
X154445300Y-104481200D02*
X151775300Y-104481200D01*
X167145300Y-101941200D02*
X169815300Y-101941200D01*
X151775300Y-107151200D02*
X169815300Y-107151200D01*
X169815300Y-101941200D02*
X169815300Y-63711200D01*
X151775300Y-63711200D02*
X156855300Y-63711200D01*
D13*
%TO.C,J3*%
X118101290Y-120043150D02*
X118101290Y-111793149D01*
X118101290Y-111793149D02*
X109001308Y-111793149D01*
X109001308Y-111793149D02*
X109001308Y-120043150D01*
X109001308Y-120043150D02*
X118101290Y-120043150D01*
D15*
X115355091Y-109880951D02*
G75*
G03*
X115355091Y-109880951I-130000J0D01*
G01*
D12*
%TO.C,C2*%
X101809800Y-78813200D02*
X101809800Y-79813200D01*
X102769800Y-79813200D02*
X102769800Y-78813200D01*
D13*
%TO.C,F1*%
X124318800Y-119956200D02*
X124318800Y-112590200D01*
X124318800Y-112590200D02*
X122855072Y-112590200D01*
X121016800Y-112590200D02*
X121016800Y-119956200D01*
X121016800Y-119956200D02*
X121742753Y-119956200D01*
X123592847Y-119956200D02*
X124318800Y-119956200D01*
X122480528Y-112590200D02*
X121016800Y-112590200D01*
%TO.C,D3*%
X182611800Y-70165800D02*
X182611800Y-71435800D01*
X182611800Y-70800800D02*
X183373800Y-70165800D01*
X182611800Y-70800800D02*
X183373800Y-71435800D01*
X182611800Y-70800800D02*
X183373800Y-70927800D01*
X182611800Y-70800800D02*
X183373800Y-71181800D01*
X183373800Y-70165800D02*
X183373800Y-71435800D01*
X182611800Y-70800800D02*
X183373800Y-70292800D01*
X182611800Y-70800800D02*
X183373800Y-70419800D01*
X182611800Y-70800800D02*
X183373800Y-70673800D01*
X184148500Y-71931100D02*
X182091100Y-71931100D01*
X182091100Y-73531300D02*
X184148500Y-73531300D01*
X182611800Y-70800800D02*
X183373800Y-70546800D01*
X182611800Y-70800800D02*
X183373800Y-71054800D01*
X183627800Y-70800800D02*
X182357800Y-70800800D01*
X182611800Y-70800800D02*
X183373800Y-71308800D01*
%TO.C,D1*%
X156609400Y-116196200D02*
X157117400Y-115434200D01*
X156609400Y-116196200D02*
X156355400Y-115434200D01*
X156609400Y-115180200D02*
X156609400Y-116450200D01*
X156609400Y-116196200D02*
X156101400Y-115434200D01*
X156609400Y-116196200D02*
X156863400Y-115434200D01*
X156609400Y-116196200D02*
X155974400Y-115434200D01*
X155974400Y-115434200D02*
X157244400Y-115434200D01*
X157739700Y-114659500D02*
X157739700Y-116716900D01*
X156609400Y-116196200D02*
X156736400Y-115434200D01*
X156609400Y-116196200D02*
X157244400Y-115434200D01*
X156609400Y-116196200D02*
X156482400Y-115434200D01*
X156609400Y-116196200D02*
X156990400Y-115434200D01*
X156609400Y-116196200D02*
X156228400Y-115434200D01*
X155974400Y-116196200D02*
X157244400Y-116196200D01*
X159339900Y-116716900D02*
X159339900Y-114659500D01*
D12*
%TO.C,J1*%
X185764800Y-117351000D02*
X173364800Y-117351000D01*
X185764800Y-110551000D02*
X185764800Y-115351000D01*
X173364800Y-117351000D02*
X173364800Y-110551000D01*
X185764800Y-116901000D02*
X185764800Y-117351000D01*
X173364800Y-110551000D02*
X185764800Y-110551000D01*
D16*
X187433000Y-113951000D02*
G75*
G03*
X187433000Y-113951000I-105000J0D01*
G01*
D12*
%TO.C,S1*%
X139760800Y-117407200D02*
X139760800Y-118957200D01*
X139760800Y-118957200D02*
X126910800Y-118957200D01*
X139760800Y-112357200D02*
X139760800Y-113907200D01*
X126910800Y-118957200D02*
X126910800Y-117407200D01*
X126910800Y-113907200D02*
X126910800Y-112357200D01*
X126910800Y-112357200D02*
X139760800Y-112357200D01*
D15*
X138063200Y-111339200D02*
G75*
G03*
X138063200Y-111339200I-130000J0D01*
G01*
D13*
%TO.C,LED1*%
X150074400Y-120254600D02*
X151344400Y-120254600D01*
X151090400Y-120254600D02*
X150328400Y-120508600D01*
X151090400Y-120254600D02*
X150328400Y-120381600D01*
X150328400Y-120889600D02*
X150328400Y-119619600D01*
X151090400Y-120254600D02*
X150328400Y-119619600D01*
X151090400Y-120254600D02*
X150328400Y-119873600D01*
X151090400Y-120254600D02*
X150328400Y-120000600D01*
X151090400Y-120254600D02*
X150328400Y-120889600D01*
X151090400Y-120889600D02*
X151090400Y-119619600D01*
X151090400Y-120254600D02*
X150328400Y-120635600D01*
X151090400Y-120254600D02*
X150328400Y-120762600D01*
X151090400Y-120254600D02*
X150328400Y-120127600D01*
X151090400Y-120254600D02*
X150328400Y-119746600D01*
D10*
X153249400Y-116952600D02*
X153249888Y-114310756D01*
X153249888Y-114310756D02*
G75*
G03*
X153223999Y-117003400I-2642088J-1321044D01*
G01*
D13*
%TO.C,J9*%
X183720086Y-95753218D02*
X187506600Y-95753218D01*
X182806948Y-91709352D02*
X183720086Y-95753218D01*
X183720086Y-79053218D02*
X182806948Y-83097084D01*
X182806948Y-83097084D02*
X182806948Y-91709352D01*
X187506600Y-95753218D02*
X187506600Y-79053218D01*
X187506600Y-79053218D02*
X183720086Y-79053218D01*
D14*
X188191925Y-92086000D02*
G75*
G03*
X188191925Y-92086000I-125000J0D01*
G01*
D12*
%TO.C,U1*%
X108003300Y-71355200D02*
X103603300Y-71355200D01*
X108003300Y-64455200D02*
X103603300Y-64455200D01*
D17*
X110093300Y-70830200D02*
G75*
G03*
X110093300Y-70830200I-100000J0D01*
G01*
%TD*%
M02*
