%TF.GenerationSoftware,KiCad,Pcbnew,6.0.10-86aedd382b~118~ubuntu18.04.1*%
%TF.CreationDate,2023-06-08T12:45:09-07:00*%
%TF.ProjectId,1000026_V0.kicad_pcb,31303030-3032-4365-9f56-302e6b696361,rev?*%
%TF.SameCoordinates,Original*%
%TF.FileFunction,Soldermask,Bot*%
%TF.FilePolarity,Negative*%
%FSLAX46Y46*%
G04 Gerber Fmt 4.6, Leading zero omitted, Abs format (unit mm)*
G04 Created by KiCad (PCBNEW 6.0.10-86aedd382b~118~ubuntu18.04.1) date 2023-06-08 12:45:09*
%MOMM*%
%LPD*%
G01*
G04 APERTURE LIST*
G04 Aperture macros list*
%AMRoundRect*
0 Rectangle with rounded corners*
0 $1 Rounding radius*
0 $2 $3 $4 $5 $6 $7 $8 $9 X,Y pos of 4 corners*
0 Add a 4 corners polygon primitive as box body*
4,1,4,$2,$3,$4,$5,$6,$7,$8,$9,$2,$3,0*
0 Add four circle primitives for the rounded corners*
1,1,$1+$1,$2,$3*
1,1,$1+$1,$4,$5*
1,1,$1+$1,$6,$7*
1,1,$1+$1,$8,$9*
0 Add four rect primitives between the rounded corners*
20,1,$1+$1,$2,$3,$4,$5,0*
20,1,$1+$1,$4,$5,$6,$7,0*
20,1,$1+$1,$6,$7,$8,$9,0*
20,1,$1+$1,$8,$9,$2,$3,0*%
G04 Aperture macros list end*
%ADD10C,0.751200*%
%ADD11C,0.676200*%
%ADD12C,0.010000*%
%ADD13R,1.600000X1.600000*%
%ADD14O,1.600000X1.600000*%
%ADD15C,2.200000*%
%ADD16R,1.700000X1.700000*%
%ADD17C,1.700000*%
%ADD18R,1.651000X1.651000*%
%ADD19C,1.651000*%
%ADD20C,1.200000*%
%ADD21R,2.775000X2.775000*%
%ADD22C,2.775000*%
%ADD23C,1.270000*%
%ADD24RoundRect,0.075600X0.194400X-0.224400X0.194400X0.224400X-0.194400X0.224400X-0.194400X-0.224400X0*%
%ADD25R,1.820000X1.160000*%
%ADD26RoundRect,0.075600X-0.194400X0.224400X-0.194400X-0.224400X0.194400X-0.224400X0.194400X0.224400X0*%
%ADD27RoundRect,0.041300X0.943700X0.253700X-0.943700X0.253700X-0.943700X-0.253700X0.943700X-0.253700X0*%
%ADD28R,1.157199X0.466400*%
G04 APERTURE END LIST*
D10*
%TO.C,J1*%
X176190400Y-113951000D02*
G75*
G03*
X176190400Y-113951000I-375600J0D01*
G01*
D11*
X185252900Y-116151000D02*
G75*
G03*
X185252900Y-116151000I-338100J0D01*
G01*
D10*
X181190400Y-113951000D02*
G75*
G03*
X181190400Y-113951000I-375600J0D01*
G01*
X178690400Y-113951000D02*
G75*
G03*
X178690400Y-113951000I-375600J0D01*
G01*
G36*
X184066000Y-114702200D02*
G01*
X182563600Y-114702200D01*
X182563600Y-113199800D01*
X184066000Y-113199800D01*
X184066000Y-114702200D01*
G37*
D12*
X184066000Y-114702200D02*
X182563600Y-114702200D01*
X182563600Y-113199800D01*
X184066000Y-113199800D01*
X184066000Y-114702200D01*
%TD*%
D13*
%TO.C,A2*%
X140364800Y-103413200D03*
D14*
X140364800Y-100873200D03*
X140364800Y-98333200D03*
X140364800Y-95793200D03*
X140364800Y-93253200D03*
X140364800Y-90713200D03*
X140364800Y-88173200D03*
X140364800Y-85633200D03*
X140364800Y-83093200D03*
X140364800Y-80553200D03*
X140364800Y-78013200D03*
X140364800Y-75473200D03*
X140364800Y-72933200D03*
X140364800Y-70393200D03*
X140364800Y-67853200D03*
X125124800Y-67853200D03*
X125124800Y-70393200D03*
X125124800Y-72933200D03*
X125124800Y-75473200D03*
X125124800Y-78013200D03*
X125124800Y-80553200D03*
X125124800Y-83093200D03*
X125124800Y-85633200D03*
X125124800Y-88173200D03*
X125124800Y-90713200D03*
X125124800Y-93253200D03*
X125124800Y-95793200D03*
X125124800Y-98333200D03*
X125124800Y-100873200D03*
X125124800Y-103413200D03*
%TD*%
D15*
%TO.C,H1*%
X101239800Y-57213200D03*
%TD*%
%TO.C,H3*%
X101239800Y-119213200D03*
%TD*%
%TO.C,H2*%
X193239800Y-57213200D03*
%TD*%
D16*
%TO.C,J5*%
X183373800Y-62063200D03*
D17*
X183373800Y-65563201D03*
%TD*%
D13*
%TO.C,A1*%
X168415300Y-103211200D03*
D14*
X168415300Y-100671200D03*
X168415300Y-98131200D03*
X168415300Y-95591200D03*
X168415300Y-93051200D03*
X168415300Y-90511200D03*
X168415300Y-87971200D03*
X168415300Y-85431200D03*
X168415300Y-82891200D03*
X168415300Y-80351200D03*
X168415300Y-77811200D03*
X168415300Y-75271200D03*
X168415300Y-72731200D03*
X168415300Y-70191200D03*
X168415300Y-67651200D03*
X153175300Y-67651200D03*
X153175300Y-70191200D03*
X153175300Y-72731200D03*
X153175300Y-75271200D03*
X153175300Y-77811200D03*
X153175300Y-80351200D03*
X153175300Y-82891200D03*
X153175300Y-85431200D03*
X153175300Y-87971200D03*
X153175300Y-90511200D03*
X153175300Y-93051200D03*
X153175300Y-95591200D03*
X153175300Y-98131200D03*
X153175300Y-100671200D03*
X153175300Y-103211200D03*
%TD*%
D16*
%TO.C,J3*%
X115301291Y-116053151D03*
D17*
X111801290Y-116053151D03*
%TD*%
D18*
%TO.C,F1*%
X122667800Y-118813200D03*
D19*
X122667800Y-113733200D03*
%TD*%
D20*
%TO.C,J1*%
X184914800Y-116151000D03*
%TD*%
D21*
%TO.C,S1*%
X138035800Y-115657200D03*
D22*
X133335800Y-115657200D03*
X128635800Y-115657200D03*
%TD*%
D23*
%TO.C,LED1*%
X151877800Y-115657200D03*
X149337800Y-115657200D03*
%TD*%
D15*
%TO.C,H4*%
X193239800Y-119213200D03*
%TD*%
D24*
%TO.C,C5*%
X139919800Y-56688200D03*
X139059800Y-56688200D03*
%TD*%
D25*
%TO.C,C1*%
X157589800Y-59088200D03*
X157589800Y-56138200D03*
%TD*%
D26*
%TO.C,C4*%
X153709800Y-56163200D03*
X154569800Y-56163200D03*
%TD*%
D27*
%TO.C,U2*%
X148000374Y-55840200D03*
X148000374Y-57110200D03*
X148000374Y-58380200D03*
X148000374Y-59650200D03*
X143050374Y-59650200D03*
X143050374Y-58380200D03*
X143050374Y-57110200D03*
X143050374Y-55840200D03*
%TD*%
D28*
%TO.C,D2*%
X133509500Y-56688200D03*
X135770100Y-56688200D03*
%TD*%
M02*
