M48
; DRILL file {KiCad 6.0.10-86aedd382b~118~ubuntu18.04.1} date Thu 08 Jun 2023 12:44:20 PM PDT
; FORMAT={-:-/ absolute / inch / decimal}
; #@! TF.CreationDate,2023-06-08T12:44:20-07:00
; #@! TF.GenerationSoftware,Kicad,Pcbnew,6.0.10-86aedd382b~118~ubuntu18.04.1
; #@! TF.FileFunction,Plated,1,2,PTH
FMAT,2
INCH
; #@! TA.AperFunction,Plated,PTH,ViaDrill
T1C0.0157
; #@! TA.AperFunction,Plated,PTH,ComponentDrill
T2C0.0394
; #@! TA.AperFunction,Plated,PTH,ComponentDrill
T3C0.0402
; #@! TA.AperFunction,Plated,PTH,ComponentDrill
T4C0.0413
%
G90
G05
T1
X5.7402Y-2.9823
X5.7795Y-3.0
X5.8179Y-2.9833
X5.8593Y-3.001
X5.8986Y-2.9843
X5.938Y-3.001
X5.9764Y-2.9833
X6.0344Y-3.001
X6.0787Y-2.9833
T2
X5.7424Y-3.9018
X5.8408Y-3.9018
X5.9392Y-3.9018
X6.0376Y-3.9018
T3
X5.635Y-4.185
X5.735Y-4.185
X5.835Y-4.185
X5.935Y-4.185
X6.035Y-4.185
X6.135Y-4.185
T4
X5.4807Y-3.4165
X5.4807Y-3.5165
X5.5807Y-3.4165
X5.5807Y-3.5165
X5.6807Y-3.4165
X5.6807Y-3.5165
X5.7807Y-3.4165
X5.7807Y-3.5165
X5.8807Y-3.4165
X5.8807Y-3.5165
X5.9807Y-3.4165
X5.9807Y-3.5165
X6.0807Y-3.4165
X6.0807Y-3.5165
X6.1807Y-3.4165
X6.1807Y-3.5165
X6.2807Y-3.4165
X6.2807Y-3.5165
T0
M30
