%TF.GenerationSoftware,KiCad,Pcbnew,6.0.10-86aedd382b~118~ubuntu18.04.1*%
%TF.CreationDate,2023-06-08T12:45:09-07:00*%
%TF.ProjectId,1000026_V0.kicad_pcb,31303030-3032-4365-9f56-302e6b696361,rev?*%
%TF.SameCoordinates,Original*%
%TF.FileFunction,Copper,L4,Bot*%
%TF.FilePolarity,Positive*%
%FSLAX46Y46*%
G04 Gerber Fmt 4.6, Leading zero omitted, Abs format (unit mm)*
G04 Created by KiCad (PCBNEW 6.0.10-86aedd382b~118~ubuntu18.04.1) date 2023-06-08 12:45:09*
%MOMM*%
%LPD*%
G01*
G04 APERTURE LIST*
G04 Aperture macros list*
%AMRoundRect*
0 Rectangle with rounded corners*
0 $1 Rounding radius*
0 $2 $3 $4 $5 $6 $7 $8 $9 X,Y pos of 4 corners*
0 Add a 4 corners polygon primitive as box body*
4,1,4,$2,$3,$4,$5,$6,$7,$8,$9,$2,$3,0*
0 Add four circle primitives for the rounded corners*
1,1,$1+$1,$2,$3*
1,1,$1+$1,$4,$5*
1,1,$1+$1,$6,$7*
1,1,$1+$1,$8,$9*
0 Add four rect primitives between the rounded corners*
20,1,$1+$1,$2,$3,$4,$5,0*
20,1,$1+$1,$4,$5,$6,$7,0*
20,1,$1+$1,$6,$7,$8,$9,0*
20,1,$1+$1,$8,$9,$2,$3,0*%
G04 Aperture macros list end*
%TA.AperFunction,ComponentPad*%
%ADD10R,1.600000X1.600000*%
%TD*%
%TA.AperFunction,ComponentPad*%
%ADD11O,1.600000X1.600000*%
%TD*%
%TA.AperFunction,ComponentPad*%
%ADD12R,1.700000X1.700000*%
%TD*%
%TA.AperFunction,ComponentPad*%
%ADD13C,1.700000*%
%TD*%
%TA.AperFunction,ComponentPad*%
%ADD14R,1.651000X1.651000*%
%TD*%
%TA.AperFunction,ComponentPad*%
%ADD15C,1.651000*%
%TD*%
%TA.AperFunction,ComponentPad*%
%ADD16R,1.350000X1.350000*%
%TD*%
%TA.AperFunction,ComponentPad*%
%ADD17C,1.350000*%
%TD*%
%TA.AperFunction,ComponentPad*%
%ADD18R,2.775000X2.775000*%
%TD*%
%TA.AperFunction,ComponentPad*%
%ADD19C,2.775000*%
%TD*%
%TA.AperFunction,ComponentPad*%
%ADD20C,1.270000*%
%TD*%
%TA.AperFunction,SMDPad,CuDef*%
%ADD21RoundRect,0.075600X0.194400X-0.224400X0.194400X0.224400X-0.194400X0.224400X-0.194400X-0.224400X0*%
%TD*%
%TA.AperFunction,SMDPad,CuDef*%
%ADD22R,1.820000X1.160000*%
%TD*%
%TA.AperFunction,SMDPad,CuDef*%
%ADD23RoundRect,0.075600X-0.194400X0.224400X-0.194400X-0.224400X0.194400X-0.224400X0.194400X0.224400X0*%
%TD*%
%TA.AperFunction,SMDPad,CuDef*%
%ADD24RoundRect,0.041300X0.943700X0.253700X-0.943700X0.253700X-0.943700X-0.253700X0.943700X-0.253700X0*%
%TD*%
%TA.AperFunction,SMDPad,CuDef*%
%ADD25R,1.157199X0.466400*%
%TD*%
%TA.AperFunction,ViaPad*%
%ADD26C,0.800000*%
%TD*%
%TA.AperFunction,Conductor*%
%ADD27C,0.250000*%
%TD*%
G04 APERTURE END LIST*
D10*
%TO.P,A2,1,D1/TX*%
%TO.N,unconnected-(A2-Pad1)*%
X140364800Y-103413200D03*
D11*
%TO.P,A2,2,D0/RX*%
%TO.N,unconnected-(A2-Pad2)*%
X140364800Y-100873200D03*
%TO.P,A2,3,~{RESET}*%
%TO.N,unconnected-(A2-Pad3)*%
X140364800Y-98333200D03*
%TO.P,A2,4,GND*%
%TO.N,unconnected-(A2-Pad4)*%
X140364800Y-95793200D03*
%TO.P,A2,5,D2*%
%TO.N,unconnected-(A2-Pad5)*%
X140364800Y-93253200D03*
%TO.P,A2,6,~D3*%
%TO.N,unconnected-(A2-Pad6)*%
X140364800Y-90713200D03*
%TO.P,A2,7,D4*%
%TO.N,unconnected-(A2-Pad7)*%
X140364800Y-88173200D03*
%TO.P,A2,8,~D5*%
%TO.N,unconnected-(A2-Pad8)*%
X140364800Y-85633200D03*
%TO.P,A2,9,~D6*%
%TO.N,unconnected-(A2-Pad9)*%
X140364800Y-83093200D03*
%TO.P,A2,10,D7*%
%TO.N,bit_0*%
X140364800Y-80553200D03*
%TO.P,A2,11,D8*%
%TO.N,bit_1*%
X140364800Y-78013200D03*
%TO.P,A2,12,~D9*%
%TO.N,bit_2*%
X140364800Y-75473200D03*
%TO.P,A2,13,~D10*%
%TO.N,unconnected-(A2-Pad13)*%
X140364800Y-72933200D03*
%TO.P,A2,14,D11/MOSI*%
%TO.N,/MOSI*%
X140364800Y-70393200D03*
%TO.P,A2,15,~D12/MSIO*%
%TO.N,unconnected-(A2-Pad15)*%
X140364800Y-67853200D03*
%TO.P,A2,16,D13/SCK*%
%TO.N,SCK*%
X125124800Y-67853200D03*
%TO.P,A2,17,3V3*%
%TO.N,3.3V_2*%
X125124800Y-70393200D03*
%TO.P,A2,18,AREF*%
%TO.N,unconnected-(A2-Pad18)*%
X125124800Y-72933200D03*
%TO.P,A2,19,D14/A0*%
%TO.N,unconnected-(A2-Pad19)*%
X125124800Y-75473200D03*
%TO.P,A2,20,D15/A1*%
%TO.N,Analog*%
X125124800Y-78013200D03*
%TO.P,A2,21,D16/A2*%
%TO.N,CS*%
X125124800Y-80553200D03*
%TO.P,A2,22,D17/A3*%
%TO.N,DC*%
X125124800Y-83093200D03*
%TO.P,A2,23,D18/SDA/A4*%
%TO.N,SDA_2*%
X125124800Y-85633200D03*
%TO.P,A2,24,D19/SCL/A5*%
%TO.N,SDL_2*%
X125124800Y-88173200D03*
%TO.P,A2,25,D20/A6*%
%TO.N,RST*%
X125124800Y-90713200D03*
%TO.P,A2,26,D21/A7*%
%TO.N,unconnected-(A2-Pad26)*%
X125124800Y-93253200D03*
%TO.P,A2,27,+5V*%
%TO.N,5V_2*%
X125124800Y-95793200D03*
%TO.P,A2,28,~{RESET}*%
%TO.N,unconnected-(A2-Pad28)*%
X125124800Y-98333200D03*
%TO.P,A2,29,GND*%
%TO.N,GND*%
X125124800Y-100873200D03*
%TO.P,A2,30,VIN*%
%TO.N,7.4V*%
X125124800Y-103413200D03*
%TD*%
D12*
%TO.P,J5,1,1*%
%TO.N,GND*%
X183373800Y-62063200D03*
D13*
%TO.P,J5,2,2*%
%TO.N,Net-(D3-Pad1)*%
X183373800Y-65563201D03*
%TD*%
D10*
%TO.P,A1,1,D1/TX*%
%TO.N,D1*%
X168415300Y-103211200D03*
D11*
%TO.P,A1,2,D0/RX*%
%TO.N,D2*%
X168415300Y-100671200D03*
%TO.P,A1,3,~{RESET}*%
%TO.N,unconnected-(A1-Pad3)*%
X168415300Y-98131200D03*
%TO.P,A1,4,GND*%
%TO.N,unconnected-(A1-Pad4)*%
X168415300Y-95591200D03*
%TO.P,A1,5,D2*%
%TO.N,D3*%
X168415300Y-93051200D03*
%TO.P,A1,6,~D3*%
%TO.N,D4*%
X168415300Y-90511200D03*
%TO.P,A1,7,D4*%
%TO.N,unconnected-(A1-Pad7)*%
X168415300Y-87971200D03*
%TO.P,A1,8,~D5*%
%TO.N,D5*%
X168415300Y-85431200D03*
%TO.P,A1,9,~D6*%
%TO.N,D6*%
X168415300Y-82891200D03*
%TO.P,A1,10,D7*%
%TO.N,D7*%
X168415300Y-80351200D03*
%TO.P,A1,11,D8*%
%TO.N,VSYNC*%
X168415300Y-77811200D03*
%TO.P,A1,12,~D9*%
%TO.N,XCLK*%
X168415300Y-75271200D03*
%TO.P,A1,13,~D10*%
%TO.N,D0*%
X168415300Y-72731200D03*
%TO.P,A1,14,D11/MOSI*%
%TO.N,unconnected-(A1-Pad14)*%
X168415300Y-70191200D03*
%TO.P,A1,15,~D12/MSIO*%
%TO.N,PWM*%
X168415300Y-67651200D03*
%TO.P,A1,16,D13/SCK*%
%TO.N,unconnected-(A1-Pad16)*%
X153175300Y-67651200D03*
%TO.P,A1,17,3V3*%
%TO.N,3.3V_1*%
X153175300Y-70191200D03*
%TO.P,A1,18,AREF*%
%TO.N,unconnected-(A1-Pad18)*%
X153175300Y-72731200D03*
%TO.P,A1,19,D14/A0*%
%TO.N,PCLK*%
X153175300Y-75271200D03*
%TO.P,A1,20,D15/A1*%
%TO.N,HS*%
X153175300Y-77811200D03*
%TO.P,A1,21,D16/A2*%
%TO.N,bit_2*%
X153175300Y-80351200D03*
%TO.P,A1,22,D17/A3*%
%TO.N,PB*%
X153175300Y-82891200D03*
%TO.P,A1,23,D18/SDA/A4*%
%TO.N,SDA_1*%
X153175300Y-85431200D03*
%TO.P,A1,24,D19/SCL/A5*%
%TO.N,SCL_1*%
X153175300Y-87971200D03*
%TO.P,A1,25,D20/A6*%
%TO.N,bit_1*%
X153175300Y-90511200D03*
%TO.P,A1,26,D21/A7*%
%TO.N,bit_0*%
X153175300Y-93051200D03*
%TO.P,A1,27,+5V*%
%TO.N,5V_1*%
X153175300Y-95591200D03*
%TO.P,A1,28,~{RESET}*%
%TO.N,unconnected-(A1-Pad28)*%
X153175300Y-98131200D03*
%TO.P,A1,29,GND*%
%TO.N,GND*%
X153175300Y-100671200D03*
%TO.P,A1,30,VIN*%
%TO.N,7.4V*%
X153175300Y-103211200D03*
%TD*%
D12*
%TO.P,J3,1,1*%
%TO.N,GND*%
X115301291Y-116053151D03*
D13*
%TO.P,J3,2,2*%
%TO.N,7.4V*%
X111801290Y-116053151D03*
%TD*%
D14*
%TO.P,F1,1,1*%
%TO.N,7.4V*%
X122667800Y-118813200D03*
D15*
%TO.P,F1,2,2*%
%TO.N,Net-(F1-Pad2)*%
X122667800Y-113733200D03*
%TD*%
D16*
%TO.P,J1,1,1*%
%TO.N,GND*%
X183314800Y-113951000D03*
D17*
%TO.P,J1,2,2*%
%TO.N,SDL_2*%
X180814800Y-113951000D03*
%TO.P,J1,3,3*%
%TO.N,SDA_2*%
X178314800Y-113951000D03*
%TO.P,J1,4,4*%
%TO.N,3.3V_1*%
X175814800Y-113951000D03*
%TD*%
D18*
%TO.P,S1,1*%
%TO.N,7.4V*%
X138035800Y-115657200D03*
D19*
%TO.P,S1,2*%
%TO.N,Net-(F1-Pad2)*%
X133335800Y-115657200D03*
%TO.P,S1,3*%
%TO.N,unconnected-(S1-Pad3)*%
X128635800Y-115657200D03*
%TD*%
D20*
%TO.P,LED1,1*%
%TO.N,GND*%
X151877800Y-115657200D03*
%TO.P,LED1,2*%
%TO.N,Net-(LED1-Pad2)*%
X149337800Y-115657200D03*
%TD*%
D21*
%TO.P,C5,1*%
%TO.N,/COM*%
X139919800Y-56688200D03*
%TO.P,C5,2*%
%TO.N,GND*%
X139059800Y-56688200D03*
%TD*%
D22*
%TO.P,C1,1*%
%TO.N,GND*%
X157589800Y-59088200D03*
%TO.P,C1,2*%
%TO.N,/CLK*%
X157589800Y-56138200D03*
%TD*%
D23*
%TO.P,C4,1*%
%TO.N,5V_1*%
X153709800Y-56163200D03*
%TO.P,C4,2*%
%TO.N,GND*%
X154569800Y-56163200D03*
%TD*%
D24*
%TO.P,U2,1,COM*%
%TO.N,/COM*%
X148000374Y-55840200D03*
%TO.P,U2,2,IN*%
%TO.N,PWM*%
X148000374Y-57110200D03*
%TO.P,U2,3,GND*%
%TO.N,GND*%
X148000374Y-58380200D03*
%TO.P,U2,4,VDD*%
%TO.N,5V_1*%
X148000374Y-59650200D03*
%TO.P,U2,5,OUT*%
%TO.N,/DC_out*%
X143050374Y-59650200D03*
%TO.P,U2,6,OS*%
%TO.N,/COM*%
X143050374Y-58380200D03*
%TO.P,U2,7,~{SHDN}*%
%TO.N,5V_1*%
X143050374Y-57110200D03*
%TO.P,U2,8,CLK*%
%TO.N,/CLK*%
X143050374Y-55840200D03*
%TD*%
D25*
%TO.P,D2,1*%
%TO.N,Analog*%
X133509500Y-56688200D03*
%TO.P,D2,2*%
%TO.N,/DC_out*%
X135770100Y-56688200D03*
%TD*%
D26*
%TO.N,3.3V_1*%
X181623645Y-91197045D03*
X180514800Y-83088200D03*
%TO.N,SDA_2*%
X117064800Y-86838200D03*
%TO.N,SDL_2*%
X119347800Y-87971200D03*
%TO.N,PB*%
X153742251Y-111687700D03*
X162414800Y-111688200D03*
X151142800Y-82891200D03*
X150514800Y-105088200D03*
%TO.N,SCL_1*%
X159014800Y-91788200D03*
X155938800Y-91764200D03*
%TO.N,Net-(LED1-Pad2)*%
X146389800Y-112205200D03*
%TO.N,3.3V_2*%
X110839800Y-76463200D03*
X116314800Y-75388200D03*
X122484800Y-70393200D03*
X105039800Y-77588200D03*
X116306800Y-70180200D03*
%TO.N,GND*%
X139439800Y-58863200D03*
X189156468Y-83729868D03*
X151506799Y-58380199D03*
X154671800Y-115657200D03*
X146314800Y-58438200D03*
X101214800Y-82913200D03*
X109713800Y-95591200D03*
X100337200Y-64980200D03*
X163339800Y-59088200D03*
X155789800Y-56213200D03*
X162527300Y-118750700D03*
X189045325Y-91734675D03*
%TO.N,5V_1*%
X150639800Y-95613200D03*
X150227800Y-59650200D03*
X150239800Y-56213200D03*
X145414800Y-59613200D03*
X144740400Y-57110200D03*
%TO.N,SCK*%
X119739800Y-67963200D03*
X115814800Y-68688200D03*
%TO.N,5V_2*%
X113069615Y-95718015D03*
X101255600Y-75373400D03*
X101255600Y-76822400D03*
%TO.N,CS*%
X118324799Y-80343202D03*
X117364800Y-69288200D03*
%TO.N,DC*%
X118789800Y-83088200D03*
X113839800Y-68688200D03*
%TO.N,RST*%
X112289800Y-68137700D03*
X121764800Y-89713200D03*
%TO.N,RST_5V*%
X99876400Y-68674800D03*
X99214300Y-92898800D03*
%TO.N,DC_5V*%
X105564800Y-74913200D03*
X101397800Y-68880200D03*
%TO.N,SCK_5V*%
X99939800Y-74013200D03*
X101286859Y-95063659D03*
%TO.N,7.4V*%
X158539800Y-112613200D03*
X189346800Y-72731200D03*
X158539800Y-118563200D03*
X143764800Y-119538200D03*
%TO.N,HS*%
X156954800Y-85353200D03*
X156954800Y-87628200D03*
%TO.N,XCLK*%
X190736800Y-82931200D03*
X190736800Y-88519200D03*
%TO.N,PCLK*%
X174914300Y-95885200D03*
X178036800Y-89985200D03*
X150306800Y-75271200D03*
X176004800Y-94615200D03*
%TO.N,D4*%
X185148800Y-91821200D03*
X175106672Y-89022401D03*
%TO.N,D6*%
X174368800Y-85217200D03*
X192006800Y-88773200D03*
%TO.N,D1*%
X180514800Y-84197911D03*
X171139800Y-102613200D03*
%TO.N,D3*%
X176263099Y-87253499D03*
X180514800Y-85217200D03*
%TO.N,D5*%
X181592800Y-86233200D03*
X179159800Y-86233200D03*
%TD*%
D27*
%TO.N,PWM*%
X168415300Y-67651200D02*
X168415300Y-62788700D01*
X152286800Y-57110200D02*
X148000374Y-57110200D01*
X155614800Y-60438200D02*
X152286800Y-57110200D01*
X166064800Y-60438200D02*
X155614800Y-60438200D01*
X168415300Y-62788700D02*
X166064800Y-60438200D01*
%TO.N,SDA_2*%
X178314800Y-110888200D02*
X176364800Y-108938200D01*
X178314800Y-113951000D02*
X178314800Y-110888200D01*
X117064800Y-106113200D02*
X117064800Y-86838200D01*
X176364800Y-108938200D02*
X119889800Y-108938200D01*
X119889800Y-108938200D02*
X117064800Y-106113200D01*
%TO.N,SDL_2*%
X118414800Y-106238200D02*
X120339800Y-108163200D01*
X176939800Y-108163200D02*
X180814800Y-112038200D01*
X118414800Y-88888200D02*
X118414800Y-106238200D01*
X119331800Y-87971200D02*
X118414800Y-88888200D01*
X120339800Y-108163200D02*
X176939800Y-108163200D01*
X180814800Y-112038200D02*
X180814800Y-113951000D01*
%TO.N,Analog*%
X121164800Y-57613200D02*
X122089800Y-56688200D01*
X125124800Y-78013200D02*
X122414800Y-78013200D01*
X121164800Y-76763200D02*
X121164800Y-57613200D01*
X122414800Y-78013200D02*
X121164800Y-76763200D01*
X122089800Y-56688200D02*
X133509500Y-56688200D01*
%TO.N,/CLK*%
X156014800Y-54563200D02*
X157589800Y-56138200D01*
X141590800Y-55840200D02*
X141089800Y-55339200D01*
X141289800Y-54563200D02*
X156014800Y-54563200D01*
X143050374Y-55840200D02*
X141590800Y-55840200D01*
X141089800Y-54763200D02*
X141289800Y-54563200D01*
X141089800Y-55339200D02*
X141089800Y-54763200D01*
%TO.N,/COM*%
X139919800Y-57943200D02*
X139919800Y-56688200D01*
X143050374Y-58380200D02*
X140356800Y-58380200D01*
X144664200Y-58380200D02*
X143050374Y-58380200D01*
X146035800Y-55840200D02*
X145934200Y-55941800D01*
X145934200Y-57110200D02*
X144664200Y-58380200D01*
X145934200Y-55941800D02*
X145934200Y-57110200D01*
X148000374Y-55840200D02*
X146035800Y-55840200D01*
X140356800Y-58380200D02*
X139919800Y-57943200D01*
%TO.N,/DC_out*%
X143050374Y-59650200D02*
X137926800Y-59650200D01*
X137926800Y-59650200D02*
X135770100Y-57493500D01*
X135770100Y-57493500D02*
X135770100Y-56688200D01*
%TO.N,PB*%
X149839800Y-84194200D02*
X149839800Y-104413200D01*
X151142800Y-82891200D02*
X149839800Y-84194200D01*
X162414800Y-111688200D02*
X153742751Y-111688200D01*
X153742751Y-111688200D02*
X153742251Y-111687700D01*
X149839800Y-104413200D02*
X150514800Y-105088200D01*
%TO.N,SCL_1*%
X155962800Y-91788200D02*
X155938800Y-91764200D01*
X159014800Y-91788200D02*
X155962800Y-91788200D01*
%TO.N,3.3V_2*%
X116339800Y-75363200D02*
X116314800Y-75388200D01*
X116306800Y-70180200D02*
X116339800Y-70213200D01*
X110839800Y-76463200D02*
X109714800Y-77588200D01*
X116339800Y-70213200D02*
X116339800Y-75363200D01*
X109714800Y-77588200D02*
X105039800Y-77588200D01*
%TO.N,GND*%
X155789800Y-57288200D02*
X155789800Y-56213200D01*
X157589800Y-59088200D02*
X155789800Y-57288200D01*
X139059800Y-56688200D02*
X139059800Y-58483200D01*
X154619800Y-56213200D02*
X155789800Y-56213200D01*
X154569800Y-56163200D02*
X154619800Y-56213200D01*
X157589800Y-59088200D02*
X163339800Y-59088200D01*
X146314800Y-58438200D02*
X147942374Y-58438200D01*
X139059800Y-58483200D02*
X139439800Y-58863200D01*
X148000374Y-58380200D02*
X151506799Y-58380199D01*
X147942374Y-58438200D02*
X148000374Y-58380200D01*
%TO.N,5V_1*%
X148000374Y-59650200D02*
X150227800Y-59650200D01*
X148000374Y-59650200D02*
X145451800Y-59650200D01*
X143050374Y-57110200D02*
X144740400Y-57110200D01*
X150661800Y-95591200D02*
X150639800Y-95613200D01*
X150289800Y-56163200D02*
X150239800Y-56213200D01*
X145451800Y-59650200D02*
X145414800Y-59613200D01*
X153709800Y-56163200D02*
X150289800Y-56163200D01*
X153175300Y-95591200D02*
X150661800Y-95591200D01*
%TO.N,SCK*%
X119771800Y-67945200D02*
X116557800Y-67945200D01*
X116557800Y-67945200D02*
X115814800Y-68688200D01*
%TO.N,5V_2*%
X101255600Y-76822400D02*
X101255600Y-75373400D01*
%TO.N,CS*%
X117339800Y-79358200D02*
X117339800Y-69313200D01*
X117339800Y-69313200D02*
X117364800Y-69288200D01*
X118324800Y-80343200D02*
X117339800Y-79358200D01*
%TO.N,DC*%
X113839800Y-78138200D02*
X118789800Y-83088200D01*
X113839800Y-68688200D02*
X113839800Y-78138200D01*
%TO.N,RST*%
X121764800Y-87538200D02*
X121764800Y-89713200D01*
X112289800Y-68137700D02*
X112289800Y-78063200D01*
X112289800Y-78063200D02*
X121764800Y-87538200D01*
%TO.N,RST_5V*%
X97864800Y-70686400D02*
X97864800Y-91549300D01*
X99876400Y-68674800D02*
X97864800Y-70686400D01*
X97864800Y-91549300D02*
X99214300Y-92898800D01*
%TO.N,DC_5V*%
X100827300Y-69450700D02*
X101397800Y-68880200D01*
X100827300Y-70175700D02*
X100827300Y-69450700D01*
X105564800Y-74913200D02*
X100827300Y-70175700D01*
%TO.N,SCK_5V*%
X101230200Y-95057800D02*
X99939800Y-93767400D01*
X99939800Y-93767400D02*
X99939800Y-74013200D01*
%TO.N,HS*%
X156954800Y-87628200D02*
X156954800Y-85353200D01*
%TO.N,XCLK*%
X190736800Y-88519200D02*
X190736800Y-82931200D01*
%TO.N,PCLK*%
X150021800Y-106045200D02*
X173972800Y-106045200D01*
X150306800Y-75271200D02*
X148739800Y-76838200D01*
X173972800Y-106045200D02*
X174914300Y-105103700D01*
X148739800Y-76838200D02*
X148739800Y-104763200D01*
X176004800Y-94615200D02*
X178036800Y-92583200D01*
X178036800Y-92583200D02*
X178036800Y-89985200D01*
X148739800Y-104763200D02*
X150021800Y-106045200D01*
X174914300Y-105103700D02*
X174914300Y-95885200D01*
%TO.N,D4*%
X180703800Y-89154200D02*
X183370800Y-91821200D01*
X183370800Y-91821200D02*
X185148800Y-91821200D01*
X175238471Y-89154200D02*
X180703800Y-89154200D01*
%TO.N,D6*%
X192006800Y-88773200D02*
X192006800Y-94361200D01*
X192006800Y-94361200D02*
X188704800Y-97663200D01*
X188704800Y-97663200D02*
X177782800Y-97663200D01*
X174368800Y-94249200D02*
X174368800Y-85217200D01*
X177782800Y-97663200D02*
X174368800Y-94249200D01*
%TO.N,D1*%
X173468089Y-84197911D02*
X171139800Y-86526200D01*
X171139800Y-86526200D02*
X171139800Y-102613200D01*
X180580089Y-84197911D02*
X173468089Y-84197911D01*
%TO.N,D3*%
X180576800Y-85217200D02*
X178299398Y-85217200D01*
X178299398Y-85217200D02*
X176263099Y-87253499D01*
%TO.N,D5*%
X181592800Y-86233200D02*
X179159800Y-86233200D01*
%TD*%
M02*
