M48
; DRILL file {KiCad 6.0.10-86aedd382b~118~ubuntu18.04.1} date Thu 08 Jun 2023 12:45:23 PM PDT
; FORMAT={-:-/ absolute / inch / decimal}
; #@! TF.CreationDate,2023-06-08T12:45:23-07:00
; #@! TF.GenerationSoftware,Kicad,Pcbnew,6.0.10-86aedd382b~118~ubuntu18.04.1
; #@! TF.FileFunction,Plated,1,4,PTH
FMAT,2
INCH
; #@! TA.AperFunction,Plated,PTH,ViaDrill
T1C0.0157
; #@! TA.AperFunction,Plated,PTH,ComponentDrill
T2C0.0300
; #@! TA.AperFunction,Plated,PTH,ComponentDrill
T3C0.0394
; #@! TA.AperFunction,Plated,PTH,ComponentDrill
T4C0.0450
; #@! TA.AperFunction,Plated,PTH,ComponentDrill
T5C0.0472
; #@! TA.AperFunction,Plated,PTH,ComponentDrill
T6C0.0728
%
G90
G05
T1
X3.9061Y-3.6574
X3.9321Y-2.7037
X3.9346Y-2.9139
X3.9503Y-2.5583
X3.9848Y-3.2643
X3.9864Y-2.9675
X3.9864Y-3.0245
X3.9877Y-3.7427
X3.992Y-2.7118
X4.1354Y-3.0547
X4.1561Y-2.9493
X4.3194Y-3.7634
X4.3638Y-3.0104
X4.4209Y-2.6826
X4.4516Y-3.7684
X4.4819Y-2.7043
X4.5596Y-2.7043
X4.579Y-2.763
X4.5793Y-2.968
X4.6089Y-3.4188
X4.6207Y-2.7279
X4.6585Y-3.1631
X4.6768Y-3.2712
X4.6987Y-3.4634
X4.7142Y-2.6757
X4.7939Y-3.532
X4.8222Y-2.7714
X5.4898Y-2.3174
X5.66Y-4.7062
X5.6984Y-2.2484
X5.725Y-2.347
X5.7604Y-2.3007
X5.7634Y-4.4175
X5.9145Y-2.3484
X5.915Y-2.2131
X5.9176Y-2.9634
X5.9258Y-4.1373
X5.9307Y-3.7643
X5.9505Y-3.2634
X5.9648Y-2.2984
X6.0528Y-4.3972
X6.0894Y-4.5534
X6.1335Y-2.2131
X6.1393Y-3.6128
X6.1793Y-3.3604
X6.1793Y-3.4499
X6.2417Y-4.4336
X6.2417Y-4.6678
X6.2604Y-3.6137
X6.3943Y-4.3972
X6.3987Y-4.6752
X6.4307Y-2.3263
X6.7378Y-4.0399
X6.8649Y-3.355
X6.8864Y-3.775
X6.894Y-3.5048
X6.9293Y-3.725
X6.9395Y-3.4352
X7.0093Y-3.5427
X7.0535Y-3.395
X7.1069Y-3.2712
X7.1069Y-3.3149
X7.1069Y-3.355
X7.1493Y-3.395
X7.1505Y-3.5904
X7.2893Y-3.615
X7.4427Y-3.6116
X7.4471Y-3.2965
X7.4546Y-2.8634
X7.5093Y-3.265
X7.5093Y-3.485
X7.5593Y-3.495
T2
X5.8794Y-4.5534
X5.9794Y-4.5534
T3
X4.9262Y-2.6714
X4.9262Y-2.7714
X4.9262Y-2.8714
X4.9262Y-2.9714
X4.9262Y-3.0714
X4.9262Y-3.1714
X4.9262Y-3.2714
X4.9262Y-3.3714
X4.9262Y-3.4714
X4.9262Y-3.5714
X4.9262Y-3.6714
X4.9262Y-3.7714
X4.9262Y-3.8714
X4.9262Y-3.9714
X4.9262Y-4.0714
X5.5262Y-2.6714
X5.5262Y-2.7714
X5.5262Y-2.8714
X5.5262Y-2.9714
X5.5262Y-3.0714
X5.5262Y-3.1714
X5.5262Y-3.2714
X5.5262Y-3.3714
X5.5262Y-3.4714
X5.5262Y-3.5714
X5.5262Y-3.6714
X5.5262Y-3.7714
X5.5262Y-3.8714
X5.5262Y-3.9714
X5.5262Y-4.0714
X6.0305Y-2.6634
X6.0305Y-2.7634
X6.0305Y-2.8634
X6.0305Y-2.9634
X6.0305Y-3.0634
X6.0305Y-3.1634
X6.0305Y-3.2634
X6.0305Y-3.3634
X6.0305Y-3.4634
X6.0305Y-3.5634
X6.0305Y-3.6634
X6.0305Y-3.7634
X6.0305Y-3.8634
X6.0305Y-3.9634
X6.0305Y-4.0634
X6.6305Y-2.6634
X6.6305Y-2.7634
X6.6305Y-2.8634
X6.6305Y-2.9634
X6.6305Y-3.0634
X6.6305Y-3.1634
X6.6305Y-3.2634
X6.6305Y-3.3634
X6.6305Y-3.4634
X6.6305Y-3.5634
X6.6305Y-3.6634
X6.6305Y-3.7634
X6.6305Y-3.8634
X6.6305Y-3.9634
X6.6305Y-4.0634
X6.9218Y-4.4863
X7.0203Y-4.4863
X7.1187Y-4.4863
X7.2171Y-4.4863
T4
X4.8294Y-4.4777
X4.8294Y-4.6777
T5
X4.4016Y-4.569
X4.5394Y-4.569
X7.2194Y-2.4434
X7.2194Y-2.5812
T6
X5.0644Y-4.5534
X5.2494Y-4.5534
X5.4345Y-4.5534
T0
M30
