%TF.GenerationSoftware,KiCad,Pcbnew,6.0.10-86aedd382b~118~ubuntu18.04.1*%
%TF.CreationDate,2023-06-08T12:45:09-07:00*%
%TF.ProjectId,1000026_V0.kicad_pcb,31303030-3032-4365-9f56-302e6b696361,rev?*%
%TF.SameCoordinates,Original*%
%TF.FileFunction,Paste,Top*%
%TF.FilePolarity,Positive*%
%FSLAX46Y46*%
G04 Gerber Fmt 4.6, Leading zero omitted, Abs format (unit mm)*
G04 Created by KiCad (PCBNEW 6.0.10-86aedd382b~118~ubuntu18.04.1) date 2023-06-08 12:45:09*
%MOMM*%
%LPD*%
G01*
G04 APERTURE LIST*
G04 Aperture macros list*
%AMRoundRect*
0 Rectangle with rounded corners*
0 $1 Rounding radius*
0 $2 $3 $4 $5 $6 $7 $8 $9 X,Y pos of 4 corners*
0 Add a 4 corners polygon primitive as box body*
4,1,4,$2,$3,$4,$5,$6,$7,$8,$9,$2,$3,0*
0 Add four circle primitives for the rounded corners*
1,1,$1+$1,$2,$3*
1,1,$1+$1,$4,$5*
1,1,$1+$1,$6,$7*
1,1,$1+$1,$8,$9*
0 Add four rect primitives between the rounded corners*
20,1,$1+$1,$2,$3,$4,$5,0*
20,1,$1+$1,$4,$5,$6,$7,0*
20,1,$1+$1,$6,$7,$8,$9,0*
20,1,$1+$1,$8,$9,$2,$3,0*%
G04 Aperture macros list end*
%ADD10R,3.460000X1.330000*%
%ADD11R,0.832200X0.605600*%
%ADD12R,0.850000X0.400000*%
%ADD13RoundRect,0.075600X-0.224400X-0.194400X0.224400X-0.194400X0.224400X0.194400X-0.224400X0.194400X0*%
%ADD14R,1.411198X0.771200*%
%ADD15R,1.157199X0.466400*%
%ADD16R,0.466400X1.157199*%
%ADD17R,0.654800X0.508000*%
%ADD18RoundRect,0.020500X0.764500X0.184500X-0.764500X0.184500X-0.764500X-0.184500X0.764500X-0.184500X0*%
G04 APERTURE END LIST*
D10*
%TO.C,R1*%
X143749800Y-118093200D03*
X143749800Y-112205200D03*
%TD*%
D11*
%TO.C,J2*%
X106663200Y-97612400D03*
X103996200Y-97612400D03*
X103996200Y-87122200D03*
X106663200Y-87122200D03*
D12*
X104020176Y-88057725D03*
X106646842Y-88595355D03*
X104023550Y-89063346D03*
X106646842Y-89595998D03*
X104027535Y-90057910D03*
X106656400Y-90583525D03*
X104027535Y-91068660D03*
X106656400Y-91591846D03*
X104027535Y-92055114D03*
X106652350Y-92592068D03*
X104020647Y-93059999D03*
X106656400Y-93596340D03*
X104020647Y-94068162D03*
X106651537Y-94603175D03*
X104029900Y-95063659D03*
X106657368Y-95594489D03*
X104029900Y-96062532D03*
X106657001Y-96593015D03*
%TD*%
D13*
%TO.C,C3*%
X105039800Y-78829000D03*
X105039800Y-79689000D03*
%TD*%
D14*
%TO.C,SW1*%
X162456900Y-113649200D03*
X169238700Y-113649200D03*
X162456900Y-116649200D03*
X169238700Y-116649200D03*
%TD*%
D13*
%TO.C,C2*%
X102289800Y-78883200D03*
X102289800Y-79743200D03*
%TD*%
D15*
%TO.C,D3*%
X181989500Y-72731200D03*
X184250100Y-72731200D03*
%TD*%
D16*
%TO.C,D1*%
X158539800Y-116818500D03*
X158539800Y-114557900D03*
%TD*%
D17*
%TO.C,R2*%
X105911000Y-60793200D03*
X107023000Y-60793200D03*
%TD*%
D11*
%TO.C,J9*%
X186492125Y-82180000D03*
X183825125Y-92670200D03*
X183825125Y-82180000D03*
X186492125Y-92670200D03*
D12*
X186468149Y-91734675D03*
X183841483Y-91197045D03*
X186464775Y-90729054D03*
X183841483Y-90196402D03*
X186460790Y-89734490D03*
X183831925Y-89208875D03*
X186460790Y-88723740D03*
X183831925Y-88200554D03*
X186460790Y-87737286D03*
X183835975Y-87200332D03*
X186467678Y-86732401D03*
X183831925Y-86196060D03*
X186467678Y-85724238D03*
X183836788Y-85189225D03*
X186458425Y-84728741D03*
X183830957Y-84197911D03*
X186458425Y-83729868D03*
X183831324Y-83199385D03*
%TD*%
D18*
%TO.C,U1*%
X108673300Y-70830200D03*
X108673300Y-70180200D03*
X108673300Y-69530200D03*
X108673300Y-68880200D03*
X108673300Y-68230200D03*
X108673300Y-67580200D03*
X108673300Y-66930200D03*
X108673300Y-66280200D03*
X108673300Y-65630200D03*
X108673300Y-64980200D03*
X102933300Y-64980200D03*
X102933300Y-65630200D03*
X102933300Y-66280200D03*
X102933300Y-66930200D03*
X102933300Y-67580200D03*
X102933300Y-68230200D03*
X102933300Y-68880200D03*
X102933300Y-69530200D03*
X102933300Y-70180200D03*
X102933300Y-70830200D03*
%TD*%
M02*
