%TF.GenerationSoftware,KiCad,Pcbnew,6.0.10-86aedd382b~118~ubuntu18.04.1*%
%TF.CreationDate,2023-06-08T12:45:09-07:00*%
%TF.ProjectId,1000026_V0.kicad_pcb,31303030-3032-4365-9f56-302e6b696361,rev?*%
%TF.SameCoordinates,Original*%
%TF.FileFunction,Legend,Bot*%
%TF.FilePolarity,Positive*%
%FSLAX46Y46*%
G04 Gerber Fmt 4.6, Leading zero omitted, Abs format (unit mm)*
G04 Created by KiCad (PCBNEW 6.0.10-86aedd382b~118~ubuntu18.04.1) date 2023-06-08 12:45:09*
%MOMM*%
%LPD*%
G01*
G04 APERTURE LIST*
%ADD10C,0.150000*%
%ADD11C,0.120000*%
%ADD12C,0.127000*%
%ADD13C,0.200000*%
%ADD14C,0.152400*%
G04 APERTURE END LIST*
D10*
X130112180Y-80303676D02*
X130112180Y-79732247D01*
X130112180Y-80017961D02*
X129112180Y-80017961D01*
X129255038Y-79922723D01*
X129350276Y-79827485D01*
X129397895Y-79732247D01*
X129112180Y-80922723D02*
X129112180Y-81017961D01*
X129159800Y-81113200D01*
X129207419Y-81160819D01*
X129302657Y-81208438D01*
X129493133Y-81256057D01*
X129731228Y-81256057D01*
X129921704Y-81208438D01*
X130016942Y-81160819D01*
X130064561Y-81113200D01*
X130112180Y-81017961D01*
X130112180Y-80922723D01*
X130064561Y-80827485D01*
X130016942Y-80779866D01*
X129921704Y-80732247D01*
X129731228Y-80684628D01*
X129493133Y-80684628D01*
X129302657Y-80732247D01*
X129207419Y-80779866D01*
X129159800Y-80827485D01*
X129112180Y-80922723D01*
X129112180Y-81875104D02*
X129112180Y-81970342D01*
X129159800Y-82065580D01*
X129207419Y-82113200D01*
X129302657Y-82160819D01*
X129493133Y-82208438D01*
X129731228Y-82208438D01*
X129921704Y-82160819D01*
X130016942Y-82113200D01*
X130064561Y-82065580D01*
X130112180Y-81970342D01*
X130112180Y-81875104D01*
X130064561Y-81779866D01*
X130016942Y-81732247D01*
X129921704Y-81684628D01*
X129731228Y-81637009D01*
X129493133Y-81637009D01*
X129302657Y-81684628D01*
X129207419Y-81732247D01*
X129159800Y-81779866D01*
X129112180Y-81875104D01*
X129112180Y-82827485D02*
X129112180Y-82922723D01*
X129159800Y-83017961D01*
X129207419Y-83065580D01*
X129302657Y-83113200D01*
X129493133Y-83160819D01*
X129731228Y-83160819D01*
X129921704Y-83113200D01*
X130016942Y-83065580D01*
X130064561Y-83017961D01*
X130112180Y-82922723D01*
X130112180Y-82827485D01*
X130064561Y-82732247D01*
X130016942Y-82684628D01*
X129921704Y-82637009D01*
X129731228Y-82589390D01*
X129493133Y-82589390D01*
X129302657Y-82637009D01*
X129207419Y-82684628D01*
X129159800Y-82732247D01*
X129112180Y-82827485D01*
X129112180Y-83779866D02*
X129112180Y-83875104D01*
X129159800Y-83970342D01*
X129207419Y-84017961D01*
X129302657Y-84065580D01*
X129493133Y-84113200D01*
X129731228Y-84113200D01*
X129921704Y-84065580D01*
X130016942Y-84017961D01*
X130064561Y-83970342D01*
X130112180Y-83875104D01*
X130112180Y-83779866D01*
X130064561Y-83684628D01*
X130016942Y-83637009D01*
X129921704Y-83589390D01*
X129731228Y-83541771D01*
X129493133Y-83541771D01*
X129302657Y-83589390D01*
X129207419Y-83637009D01*
X129159800Y-83684628D01*
X129112180Y-83779866D01*
X129207419Y-84494152D02*
X129159800Y-84541771D01*
X129112180Y-84637009D01*
X129112180Y-84875104D01*
X129159800Y-84970342D01*
X129207419Y-85017961D01*
X129302657Y-85065580D01*
X129397895Y-85065580D01*
X129540752Y-85017961D01*
X130112180Y-84446533D01*
X130112180Y-85065580D01*
X129112180Y-85922723D02*
X129112180Y-85732247D01*
X129159800Y-85637009D01*
X129207419Y-85589390D01*
X129350276Y-85494152D01*
X129540752Y-85446533D01*
X129921704Y-85446533D01*
X130016942Y-85494152D01*
X130064561Y-85541771D01*
X130112180Y-85637009D01*
X130112180Y-85827485D01*
X130064561Y-85922723D01*
X130016942Y-85970342D01*
X129921704Y-86017961D01*
X129683609Y-86017961D01*
X129588371Y-85970342D01*
X129540752Y-85922723D01*
X129493133Y-85827485D01*
X129493133Y-85637009D01*
X129540752Y-85541771D01*
X129588371Y-85494152D01*
X129683609Y-85446533D01*
X130207419Y-86208438D02*
X130207419Y-86970342D01*
X129112180Y-87065580D02*
X130112180Y-87398914D01*
X129112180Y-87732247D01*
X129112180Y-88256057D02*
X129112180Y-88351295D01*
X129159800Y-88446533D01*
X129207419Y-88494152D01*
X129302657Y-88541771D01*
X129493133Y-88589390D01*
X129731228Y-88589390D01*
X129921704Y-88541771D01*
X130016942Y-88494152D01*
X130064561Y-88446533D01*
X130112180Y-88351295D01*
X130112180Y-88256057D01*
X130064561Y-88160819D01*
X130016942Y-88113200D01*
X129921704Y-88065580D01*
X129731228Y-88017961D01*
X129493133Y-88017961D01*
X129302657Y-88065580D01*
X129207419Y-88113200D01*
X129159800Y-88160819D01*
X129112180Y-88256057D01*
X130112180Y-89446533D02*
X129588371Y-89446533D01*
X129493133Y-89398914D01*
X129445514Y-89303676D01*
X129445514Y-89113200D01*
X129493133Y-89017961D01*
X130064561Y-89446533D02*
X130112180Y-89351295D01*
X130112180Y-89113200D01*
X130064561Y-89017961D01*
X129969323Y-88970342D01*
X129874085Y-88970342D01*
X129778847Y-89017961D01*
X129731228Y-89113200D01*
X129731228Y-89351295D01*
X129683609Y-89446533D01*
X131626942Y-74637009D02*
X131674561Y-74589390D01*
X131722180Y-74446533D01*
X131722180Y-74351295D01*
X131674561Y-74208438D01*
X131579323Y-74113200D01*
X131484085Y-74065580D01*
X131293609Y-74017961D01*
X131150752Y-74017961D01*
X130960276Y-74065580D01*
X130865038Y-74113200D01*
X130769800Y-74208438D01*
X130722180Y-74351295D01*
X130722180Y-74446533D01*
X130769800Y-74589390D01*
X130817419Y-74637009D01*
X131722180Y-75208438D02*
X131674561Y-75113200D01*
X131626942Y-75065580D01*
X131531704Y-75017961D01*
X131245990Y-75017961D01*
X131150752Y-75065580D01*
X131103133Y-75113200D01*
X131055514Y-75208438D01*
X131055514Y-75351295D01*
X131103133Y-75446533D01*
X131150752Y-75494152D01*
X131245990Y-75541771D01*
X131531704Y-75541771D01*
X131626942Y-75494152D01*
X131674561Y-75446533D01*
X131722180Y-75351295D01*
X131722180Y-75208438D01*
X131055514Y-75970342D02*
X132055514Y-75970342D01*
X131103133Y-75970342D02*
X131055514Y-76065580D01*
X131055514Y-76256057D01*
X131103133Y-76351295D01*
X131150752Y-76398914D01*
X131245990Y-76446533D01*
X131531704Y-76446533D01*
X131626942Y-76398914D01*
X131674561Y-76351295D01*
X131722180Y-76256057D01*
X131722180Y-76065580D01*
X131674561Y-75970342D01*
X131055514Y-76779866D02*
X131722180Y-77017961D01*
X131055514Y-77256057D02*
X131722180Y-77017961D01*
X131960276Y-76922723D01*
X132007895Y-76875104D01*
X132055514Y-76779866D01*
X131722180Y-77637009D02*
X131055514Y-77637009D01*
X131245990Y-77637009D02*
X131150752Y-77684628D01*
X131103133Y-77732247D01*
X131055514Y-77827485D01*
X131055514Y-77922723D01*
X131722180Y-78256057D02*
X131055514Y-78256057D01*
X130722180Y-78256057D02*
X130769800Y-78208438D01*
X130817419Y-78256057D01*
X130769800Y-78303676D01*
X130722180Y-78256057D01*
X130817419Y-78256057D01*
X131055514Y-79160819D02*
X131865038Y-79160819D01*
X131960276Y-79113200D01*
X132007895Y-79065580D01*
X132055514Y-78970342D01*
X132055514Y-78827485D01*
X132007895Y-78732247D01*
X131674561Y-79160819D02*
X131722180Y-79065580D01*
X131722180Y-78875104D01*
X131674561Y-78779866D01*
X131626942Y-78732247D01*
X131531704Y-78684628D01*
X131245990Y-78684628D01*
X131150752Y-78732247D01*
X131103133Y-78779866D01*
X131055514Y-78875104D01*
X131055514Y-79065580D01*
X131103133Y-79160819D01*
X131722180Y-79637009D02*
X130722180Y-79637009D01*
X131722180Y-80065580D02*
X131198371Y-80065580D01*
X131103133Y-80017961D01*
X131055514Y-79922723D01*
X131055514Y-79779866D01*
X131103133Y-79684628D01*
X131150752Y-79637009D01*
X131055514Y-80398914D02*
X131055514Y-80779866D01*
X130722180Y-80541771D02*
X131579323Y-80541771D01*
X131674561Y-80589390D01*
X131722180Y-80684628D01*
X131722180Y-80779866D01*
X130960276Y-82684628D02*
X130912657Y-82589390D01*
X130912657Y-82398914D01*
X130960276Y-82303676D01*
X131055514Y-82208438D01*
X131150752Y-82160819D01*
X131341228Y-82160819D01*
X131436466Y-82208438D01*
X131531704Y-82303676D01*
X131579323Y-82398914D01*
X131579323Y-82589390D01*
X131531704Y-82684628D01*
X130579323Y-82494152D02*
X130626942Y-82256057D01*
X130769800Y-82017961D01*
X131007895Y-81875104D01*
X131245990Y-81827485D01*
X131484085Y-81875104D01*
X131722180Y-82017961D01*
X131865038Y-82256057D01*
X131912657Y-82494152D01*
X131865038Y-82732247D01*
X131722180Y-82970342D01*
X131484085Y-83113199D01*
X131245990Y-83160819D01*
X131007895Y-83113199D01*
X130769800Y-82970342D01*
X130626942Y-82732247D01*
X130579323Y-82494152D01*
X130722180Y-84637009D02*
X131436466Y-84637009D01*
X131579323Y-84589390D01*
X131674561Y-84494152D01*
X131722180Y-84351295D01*
X131722180Y-84256057D01*
X131722180Y-85541771D02*
X131198371Y-85541771D01*
X131103133Y-85494152D01*
X131055514Y-85398914D01*
X131055514Y-85208438D01*
X131103133Y-85113199D01*
X131674561Y-85541771D02*
X131722180Y-85446533D01*
X131722180Y-85208438D01*
X131674561Y-85113199D01*
X131579323Y-85065580D01*
X131484085Y-85065580D01*
X131388847Y-85113199D01*
X131341228Y-85208438D01*
X131341228Y-85446533D01*
X131293609Y-85541771D01*
X131722180Y-86017961D02*
X131055514Y-86017961D01*
X131150752Y-86017961D02*
X131103133Y-86065580D01*
X131055514Y-86160819D01*
X131055514Y-86303676D01*
X131103133Y-86398914D01*
X131198371Y-86446533D01*
X131722180Y-86446533D01*
X131198371Y-86446533D02*
X131103133Y-86494152D01*
X131055514Y-86589390D01*
X131055514Y-86732247D01*
X131103133Y-86827485D01*
X131198371Y-86875104D01*
X131722180Y-86875104D01*
X131674561Y-87732247D02*
X131722180Y-87637009D01*
X131722180Y-87446533D01*
X131674561Y-87351295D01*
X131579323Y-87303676D01*
X131198371Y-87303676D01*
X131103133Y-87351295D01*
X131055514Y-87446533D01*
X131055514Y-87637009D01*
X131103133Y-87732247D01*
X131198371Y-87779866D01*
X131293609Y-87779866D01*
X131388847Y-87303676D01*
X131674561Y-88160819D02*
X131722180Y-88256057D01*
X131722180Y-88446533D01*
X131674561Y-88541771D01*
X131579323Y-88589390D01*
X131531704Y-88589390D01*
X131436466Y-88541771D01*
X131388847Y-88446533D01*
X131388847Y-88303676D01*
X131341228Y-88208438D01*
X131245990Y-88160819D01*
X131198371Y-88160819D01*
X131103133Y-88208438D01*
X131055514Y-88303676D01*
X131055514Y-88446533D01*
X131103133Y-88541771D01*
X131626942Y-90351295D02*
X131674561Y-90303676D01*
X131722180Y-90160819D01*
X131722180Y-90065580D01*
X131674561Y-89922723D01*
X131579323Y-89827485D01*
X131484085Y-89779866D01*
X131293609Y-89732247D01*
X131150752Y-89732247D01*
X130960276Y-89779866D01*
X130865038Y-89827485D01*
X130769800Y-89922723D01*
X130722180Y-90065580D01*
X130722180Y-90160819D01*
X130769800Y-90303676D01*
X130817419Y-90351295D01*
X131722180Y-91208438D02*
X131198371Y-91208438D01*
X131103133Y-91160819D01*
X131055514Y-91065580D01*
X131055514Y-90875104D01*
X131103133Y-90779866D01*
X131674561Y-91208438D02*
X131722180Y-91113199D01*
X131722180Y-90875104D01*
X131674561Y-90779866D01*
X131579323Y-90732247D01*
X131484085Y-90732247D01*
X131388847Y-90779866D01*
X131341228Y-90875104D01*
X131341228Y-91113199D01*
X131293609Y-91208438D01*
X131055514Y-91684628D02*
X131722180Y-91684628D01*
X131150752Y-91684628D02*
X131103133Y-91732247D01*
X131055514Y-91827485D01*
X131055514Y-91970342D01*
X131103133Y-92065580D01*
X131198371Y-92113199D01*
X131722180Y-92113199D01*
X131722180Y-92732247D02*
X131674561Y-92637009D01*
X131626942Y-92589390D01*
X131531704Y-92541771D01*
X131245990Y-92541771D01*
X131150752Y-92589390D01*
X131103133Y-92637009D01*
X131055514Y-92732247D01*
X131055514Y-92875104D01*
X131103133Y-92970342D01*
X131150752Y-93017961D01*
X131245990Y-93065580D01*
X131531704Y-93065580D01*
X131626942Y-93017961D01*
X131674561Y-92970342D01*
X131722180Y-92875104D01*
X131722180Y-92732247D01*
X131055514Y-93398914D02*
X131722180Y-93637009D01*
X131055514Y-93875104D01*
X131722180Y-94684628D02*
X131198371Y-94684628D01*
X131103133Y-94637009D01*
X131055514Y-94541771D01*
X131055514Y-94351295D01*
X131103133Y-94256057D01*
X131674561Y-94684628D02*
X131722180Y-94589390D01*
X131722180Y-94351295D01*
X131674561Y-94256057D01*
X131579323Y-94208438D01*
X131484085Y-94208438D01*
X131388847Y-94256057D01*
X131341228Y-94351295D01*
X131341228Y-94589390D01*
X131293609Y-94684628D01*
X131674561Y-95208438D02*
X131722180Y-95208438D01*
X131817419Y-95160819D01*
X131865038Y-95113199D01*
X132332180Y-80898914D02*
X133046466Y-80898914D01*
X133189323Y-80851295D01*
X133284561Y-80756057D01*
X133332180Y-80613200D01*
X133332180Y-80517961D01*
X132665514Y-81803676D02*
X133332180Y-81803676D01*
X132665514Y-81375104D02*
X133189323Y-81375104D01*
X133284561Y-81422723D01*
X133332180Y-81517961D01*
X133332180Y-81660819D01*
X133284561Y-81756057D01*
X133236942Y-81803676D01*
X132665514Y-82279866D02*
X133332180Y-82279866D01*
X132760752Y-82279866D02*
X132713133Y-82327485D01*
X132665514Y-82422723D01*
X132665514Y-82565580D01*
X132713133Y-82660819D01*
X132808371Y-82708438D01*
X133332180Y-82708438D01*
X133284561Y-83565580D02*
X133332180Y-83470342D01*
X133332180Y-83279866D01*
X133284561Y-83184628D01*
X133189323Y-83137009D01*
X132808371Y-83137009D01*
X132713133Y-83184628D01*
X132665514Y-83279866D01*
X132665514Y-83470342D01*
X132713133Y-83565580D01*
X132808371Y-83613200D01*
X132903609Y-83613200D01*
X132998847Y-83137009D01*
X132427419Y-84756057D02*
X132379800Y-84803676D01*
X132332180Y-84898914D01*
X132332180Y-85137009D01*
X132379800Y-85232247D01*
X132427419Y-85279866D01*
X132522657Y-85327485D01*
X132617895Y-85327485D01*
X132760752Y-85279866D01*
X133332180Y-84708438D01*
X133332180Y-85327485D01*
X132332180Y-85946533D02*
X132332180Y-86041771D01*
X132379800Y-86137009D01*
X132427419Y-86184628D01*
X132522657Y-86232247D01*
X132713133Y-86279866D01*
X132951228Y-86279866D01*
X133141704Y-86232247D01*
X133236942Y-86184628D01*
X133284561Y-86137009D01*
X133332180Y-86041771D01*
X133332180Y-85946533D01*
X133284561Y-85851295D01*
X133236942Y-85803676D01*
X133141704Y-85756057D01*
X132951228Y-85708438D01*
X132713133Y-85708438D01*
X132522657Y-85756057D01*
X132427419Y-85803676D01*
X132379800Y-85851295D01*
X132332180Y-85946533D01*
X132427419Y-86660819D02*
X132379800Y-86708438D01*
X132332180Y-86803676D01*
X132332180Y-87041771D01*
X132379800Y-87137009D01*
X132427419Y-87184628D01*
X132522657Y-87232247D01*
X132617895Y-87232247D01*
X132760752Y-87184628D01*
X133332180Y-86613200D01*
X133332180Y-87232247D01*
X132332180Y-87565580D02*
X132332180Y-88184628D01*
X132713133Y-87851295D01*
X132713133Y-87994152D01*
X132760752Y-88089390D01*
X132808371Y-88137009D01*
X132903609Y-88184628D01*
X133141704Y-88184628D01*
X133236942Y-88137009D01*
X133284561Y-88089390D01*
X133332180Y-87994152D01*
X133332180Y-87708438D01*
X133284561Y-87613200D01*
X133236942Y-87565580D01*
X133284561Y-88660819D02*
X133332180Y-88660819D01*
X133427419Y-88613200D01*
X133475038Y-88565580D01*
X133942180Y-80256057D02*
X134942180Y-80589390D01*
X133942180Y-80922723D01*
X134942180Y-81256057D02*
X134275514Y-81256057D01*
X133942180Y-81256057D02*
X133989800Y-81208438D01*
X134037419Y-81256057D01*
X133989800Y-81303676D01*
X133942180Y-81256057D01*
X134037419Y-81256057D01*
X134894561Y-82160819D02*
X134942180Y-82065580D01*
X134942180Y-81875104D01*
X134894561Y-81779866D01*
X134846942Y-81732247D01*
X134751704Y-81684628D01*
X134465990Y-81684628D01*
X134370752Y-81732247D01*
X134323133Y-81779866D01*
X134275514Y-81875104D01*
X134275514Y-82065580D01*
X134323133Y-82160819D01*
X134275514Y-82446533D02*
X134275514Y-82827485D01*
X133942180Y-82589390D02*
X134799323Y-82589390D01*
X134894561Y-82637009D01*
X134942180Y-82732247D01*
X134942180Y-82827485D01*
X134942180Y-83303676D02*
X134894561Y-83208438D01*
X134846942Y-83160819D01*
X134751704Y-83113200D01*
X134465990Y-83113200D01*
X134370752Y-83160819D01*
X134323133Y-83208438D01*
X134275514Y-83303676D01*
X134275514Y-83446533D01*
X134323133Y-83541771D01*
X134370752Y-83589390D01*
X134465990Y-83637009D01*
X134751704Y-83637009D01*
X134846942Y-83589390D01*
X134894561Y-83541771D01*
X134942180Y-83446533D01*
X134942180Y-83303676D01*
X134942180Y-84065580D02*
X134275514Y-84065580D01*
X134465990Y-84065580D02*
X134370752Y-84113200D01*
X134323133Y-84160819D01*
X134275514Y-84256057D01*
X134275514Y-84351295D01*
X134942180Y-84684628D02*
X134275514Y-84684628D01*
X133942180Y-84684628D02*
X133989800Y-84637009D01*
X134037419Y-84684628D01*
X133989800Y-84732247D01*
X133942180Y-84684628D01*
X134037419Y-84684628D01*
X134942180Y-85589390D02*
X134418371Y-85589390D01*
X134323133Y-85541771D01*
X134275514Y-85446533D01*
X134275514Y-85256057D01*
X134323133Y-85160819D01*
X134894561Y-85589390D02*
X134942180Y-85494152D01*
X134942180Y-85256057D01*
X134894561Y-85160819D01*
X134799323Y-85113200D01*
X134704085Y-85113200D01*
X134608847Y-85160819D01*
X134561228Y-85256057D01*
X134561228Y-85494152D01*
X134513609Y-85589390D01*
X134894561Y-86113200D02*
X134942180Y-86113200D01*
X135037419Y-86065580D01*
X135085038Y-86017961D01*
X134418371Y-87637009D02*
X134465990Y-87779866D01*
X134513609Y-87827485D01*
X134608847Y-87875104D01*
X134751704Y-87875104D01*
X134846942Y-87827485D01*
X134894561Y-87779866D01*
X134942180Y-87684628D01*
X134942180Y-87303676D01*
X133942180Y-87303676D01*
X133942180Y-87637009D01*
X133989800Y-87732247D01*
X134037419Y-87779866D01*
X134132657Y-87827485D01*
X134227895Y-87827485D01*
X134323133Y-87779866D01*
X134370752Y-87732247D01*
X134418371Y-87637009D01*
X134418371Y-87303676D01*
X134846942Y-88875104D02*
X134894561Y-88827485D01*
X134942180Y-88684628D01*
X134942180Y-88589390D01*
X134894561Y-88446533D01*
X134799323Y-88351295D01*
X134704085Y-88303676D01*
X134513609Y-88256057D01*
X134370752Y-88256057D01*
X134180276Y-88303676D01*
X134085038Y-88351295D01*
X133989800Y-88446533D01*
X133942180Y-88589390D01*
X133942180Y-88684628D01*
X133989800Y-88827485D01*
X134037419Y-88875104D01*
X136456942Y-82660819D02*
X136504561Y-82613200D01*
X136552180Y-82470342D01*
X136552180Y-82375104D01*
X136504561Y-82232247D01*
X136409323Y-82137009D01*
X136314085Y-82089390D01*
X136123609Y-82041771D01*
X135980752Y-82041771D01*
X135790276Y-82089390D01*
X135695038Y-82137009D01*
X135599800Y-82232247D01*
X135552180Y-82375104D01*
X135552180Y-82470342D01*
X135599800Y-82613200D01*
X135647419Y-82660819D01*
X136552180Y-83517961D02*
X136028371Y-83517961D01*
X135933133Y-83470342D01*
X135885514Y-83375104D01*
X135885514Y-83184628D01*
X135933133Y-83089390D01*
X136504561Y-83517961D02*
X136552180Y-83422723D01*
X136552180Y-83184628D01*
X136504561Y-83089390D01*
X136409323Y-83041771D01*
X136314085Y-83041771D01*
X136218847Y-83089390D01*
X136171228Y-83184628D01*
X136171228Y-83422723D01*
X136123609Y-83517961D01*
X135885514Y-83994152D02*
X136552180Y-83994152D01*
X135980752Y-83994152D02*
X135933133Y-84041771D01*
X135885514Y-84137009D01*
X135885514Y-84279866D01*
X135933133Y-84375104D01*
X136028371Y-84422723D01*
X136552180Y-84422723D01*
X136552180Y-85327485D02*
X136028371Y-85327485D01*
X135933133Y-85279866D01*
X135885514Y-85184628D01*
X135885514Y-84994152D01*
X135933133Y-84898914D01*
X136504561Y-85327485D02*
X136552180Y-85232247D01*
X136552180Y-84994152D01*
X136504561Y-84898914D01*
X136409323Y-84851295D01*
X136314085Y-84851295D01*
X136218847Y-84898914D01*
X136171228Y-84994152D01*
X136171228Y-85232247D01*
X136123609Y-85327485D01*
X136552180Y-86232247D02*
X135552180Y-86232247D01*
X136504561Y-86232247D02*
X136552180Y-86137009D01*
X136552180Y-85946533D01*
X136504561Y-85851295D01*
X136456942Y-85803676D01*
X136361704Y-85756057D01*
X136075990Y-85756057D01*
X135980752Y-85803676D01*
X135933133Y-85851295D01*
X135885514Y-85946533D01*
X135885514Y-86137009D01*
X135933133Y-86232247D01*
X136552180Y-87137009D02*
X136028371Y-87137009D01*
X135933133Y-87089390D01*
X135885514Y-86994152D01*
X135885514Y-86803676D01*
X135933133Y-86708438D01*
X136504561Y-87137009D02*
X136552180Y-87041771D01*
X136552180Y-86803676D01*
X136504561Y-86708438D01*
X136409323Y-86660819D01*
X136314085Y-86660819D01*
X136218847Y-86708438D01*
X136171228Y-86803676D01*
X136171228Y-87041771D01*
X136123609Y-87137009D01*
D11*
X148243371Y-63073735D02*
X148243371Y-62323735D01*
X147957657Y-62323735D01*
X147886228Y-62359450D01*
X147850514Y-62395164D01*
X147814800Y-62466592D01*
X147814800Y-62573735D01*
X147850514Y-62645164D01*
X147886228Y-62680878D01*
X147957657Y-62716592D01*
X148243371Y-62716592D01*
X147564800Y-62323735D02*
X147386228Y-63073735D01*
X147243371Y-62538021D01*
X147100514Y-63073735D01*
X146921942Y-62323735D01*
X146636228Y-63073735D02*
X146636228Y-62323735D01*
X146386228Y-62859450D01*
X146136228Y-62323735D01*
X146136228Y-63073735D01*
X145207657Y-62788021D02*
X144636228Y-62788021D01*
X144779085Y-62930878D02*
X144636228Y-62788021D01*
X144779085Y-62645164D01*
X143707657Y-63073735D02*
X143707657Y-62323735D01*
X143529085Y-62323735D01*
X143421942Y-62359450D01*
X143350514Y-62430878D01*
X143314800Y-62502307D01*
X143279085Y-62645164D01*
X143279085Y-62752307D01*
X143314800Y-62895164D01*
X143350514Y-62966592D01*
X143421942Y-63038021D01*
X143529085Y-63073735D01*
X143707657Y-63073735D01*
X142529085Y-63002307D02*
X142564800Y-63038021D01*
X142671942Y-63073735D01*
X142743371Y-63073735D01*
X142850514Y-63038021D01*
X142921942Y-62966592D01*
X142957657Y-62895164D01*
X142993371Y-62752307D01*
X142993371Y-62645164D01*
X142957657Y-62502307D01*
X142921942Y-62430878D01*
X142850514Y-62359450D01*
X142743371Y-62323735D01*
X142671942Y-62323735D01*
X142564800Y-62359450D01*
X142529085Y-62395164D01*
X149939800Y-64566950D02*
X149975514Y-64531235D01*
X150046942Y-64424092D01*
X150082657Y-64352664D01*
X150118371Y-64245521D01*
X150154085Y-64066950D01*
X150154085Y-63924092D01*
X150118371Y-63745521D01*
X150082657Y-63638378D01*
X150046942Y-63566950D01*
X149975514Y-63459807D01*
X149939800Y-63424092D01*
X149546942Y-64281235D02*
X149618371Y-64245521D01*
X149654085Y-64174092D01*
X149654085Y-63531235D01*
X149154085Y-64281235D02*
X149225514Y-64245521D01*
X149261228Y-64209807D01*
X149296942Y-64138378D01*
X149296942Y-63924092D01*
X149261228Y-63852664D01*
X149225514Y-63816950D01*
X149154085Y-63781235D01*
X149046942Y-63781235D01*
X148975514Y-63816950D01*
X148939800Y-63852664D01*
X148904085Y-63924092D01*
X148904085Y-64138378D01*
X148939800Y-64209807D01*
X148975514Y-64245521D01*
X149046942Y-64281235D01*
X149154085Y-64281235D01*
X148654085Y-63781235D02*
X148511228Y-64281235D01*
X148368371Y-63924092D01*
X148225514Y-64281235D01*
X148082657Y-63781235D01*
X147225514Y-63781235D02*
X147225514Y-64531235D01*
X147225514Y-63816950D02*
X147154085Y-63781235D01*
X147011228Y-63781235D01*
X146939800Y-63816950D01*
X146904085Y-63852664D01*
X146868371Y-63924092D01*
X146868371Y-64138378D01*
X146904085Y-64209807D01*
X146939800Y-64245521D01*
X147011228Y-64281235D01*
X147154085Y-64281235D01*
X147225514Y-64245521D01*
X146225514Y-64281235D02*
X146225514Y-63888378D01*
X146261228Y-63816950D01*
X146332657Y-63781235D01*
X146475514Y-63781235D01*
X146546942Y-63816950D01*
X146225514Y-64245521D02*
X146296942Y-64281235D01*
X146475514Y-64281235D01*
X146546942Y-64245521D01*
X146582657Y-64174092D01*
X146582657Y-64102664D01*
X146546942Y-64031235D01*
X146475514Y-63995521D01*
X146296942Y-63995521D01*
X146225514Y-63959807D01*
X145904085Y-64245521D02*
X145832657Y-64281235D01*
X145689800Y-64281235D01*
X145618371Y-64245521D01*
X145582657Y-64174092D01*
X145582657Y-64138378D01*
X145618371Y-64066950D01*
X145689800Y-64031235D01*
X145796942Y-64031235D01*
X145868371Y-63995521D01*
X145904085Y-63924092D01*
X145904085Y-63888378D01*
X145868371Y-63816950D01*
X145796942Y-63781235D01*
X145689800Y-63781235D01*
X145618371Y-63816950D01*
X145296942Y-64245521D02*
X145225514Y-64281235D01*
X145082657Y-64281235D01*
X145011228Y-64245521D01*
X144975514Y-64174092D01*
X144975514Y-64138378D01*
X145011228Y-64066950D01*
X145082657Y-64031235D01*
X145189800Y-64031235D01*
X145261228Y-63995521D01*
X145296942Y-63924092D01*
X145296942Y-63888378D01*
X145261228Y-63816950D01*
X145189800Y-63781235D01*
X145082657Y-63781235D01*
X145011228Y-63816950D01*
X144189800Y-63781235D02*
X143904085Y-63781235D01*
X144082657Y-64281235D02*
X144082657Y-63638378D01*
X144046942Y-63566950D01*
X143975514Y-63531235D01*
X143904085Y-63531235D01*
X143654085Y-64281235D02*
X143654085Y-63781235D01*
X143654085Y-63531235D02*
X143689800Y-63566950D01*
X143654085Y-63602664D01*
X143618371Y-63566950D01*
X143654085Y-63531235D01*
X143654085Y-63602664D01*
X143189800Y-64281235D02*
X143261228Y-64245521D01*
X143296942Y-64174092D01*
X143296942Y-63531235D01*
X143011228Y-63781235D02*
X142725514Y-63781235D01*
X142904085Y-63531235D02*
X142904085Y-64174092D01*
X142868371Y-64245521D01*
X142796942Y-64281235D01*
X142725514Y-64281235D01*
X142189800Y-64245521D02*
X142261228Y-64281235D01*
X142404085Y-64281235D01*
X142475514Y-64245521D01*
X142511228Y-64174092D01*
X142511228Y-63888378D01*
X142475514Y-63816950D01*
X142404085Y-63781235D01*
X142261228Y-63781235D01*
X142189800Y-63816950D01*
X142154085Y-63888378D01*
X142154085Y-63959807D01*
X142511228Y-64031235D01*
X141832657Y-64281235D02*
X141832657Y-63781235D01*
X141832657Y-63924092D02*
X141796942Y-63852664D01*
X141761228Y-63816950D01*
X141689800Y-63781235D01*
X141618371Y-63781235D01*
X141439800Y-64566950D02*
X141404085Y-64531235D01*
X141332657Y-64424092D01*
X141296942Y-64352664D01*
X141261228Y-64245521D01*
X141225514Y-64066950D01*
X141225514Y-63924092D01*
X141261228Y-63745521D01*
X141296942Y-63638378D01*
X141332657Y-63566950D01*
X141404085Y-63459807D01*
X141439800Y-63424092D01*
%TO.C,C5*%
X139614800Y-55731057D02*
X139650514Y-55766771D01*
X139757657Y-55802485D01*
X139829085Y-55802485D01*
X139936228Y-55766771D01*
X140007657Y-55695342D01*
X140043371Y-55623914D01*
X140079085Y-55481057D01*
X140079085Y-55373914D01*
X140043371Y-55231057D01*
X140007657Y-55159628D01*
X139936228Y-55088200D01*
X139829085Y-55052485D01*
X139757657Y-55052485D01*
X139650514Y-55088200D01*
X139614800Y-55123914D01*
X138936228Y-55052485D02*
X139293371Y-55052485D01*
X139329085Y-55409628D01*
X139293371Y-55373914D01*
X139221942Y-55338200D01*
X139043371Y-55338200D01*
X138971942Y-55373914D01*
X138936228Y-55409628D01*
X138900514Y-55481057D01*
X138900514Y-55659628D01*
X138936228Y-55731057D01*
X138971942Y-55766771D01*
X139043371Y-55802485D01*
X139221942Y-55802485D01*
X139293371Y-55766771D01*
X139329085Y-55731057D01*
X141132657Y-57552485D02*
X141061228Y-57552485D01*
X140989800Y-57588200D01*
X140954085Y-57623914D01*
X140918371Y-57695342D01*
X140882657Y-57838200D01*
X140882657Y-58016771D01*
X140918371Y-58159628D01*
X140954085Y-58231057D01*
X140989800Y-58266771D01*
X141061228Y-58302485D01*
X141132657Y-58302485D01*
X141204085Y-58266771D01*
X141239800Y-58231057D01*
X141275514Y-58159628D01*
X141311228Y-58016771D01*
X141311228Y-57838200D01*
X141275514Y-57695342D01*
X141239800Y-57623914D01*
X141204085Y-57588200D01*
X141132657Y-57552485D01*
X140561228Y-58231057D02*
X140525514Y-58266771D01*
X140561228Y-58302485D01*
X140596942Y-58266771D01*
X140561228Y-58231057D01*
X140561228Y-58302485D01*
X139811228Y-58302485D02*
X140239800Y-58302485D01*
X140025514Y-58302485D02*
X140025514Y-57552485D01*
X140096942Y-57659628D01*
X140168371Y-57731057D01*
X140239800Y-57766771D01*
X138596942Y-57802485D02*
X138596942Y-58302485D01*
X138918371Y-57802485D02*
X138918371Y-58195342D01*
X138882657Y-58266771D01*
X138811228Y-58302485D01*
X138704085Y-58302485D01*
X138632657Y-58266771D01*
X138596942Y-58231057D01*
X137989800Y-57909628D02*
X138239800Y-57909628D01*
X138239800Y-58302485D02*
X138239800Y-57552485D01*
X137882657Y-57552485D01*
%TO.C,C1*%
X159632657Y-57388200D02*
X159668371Y-57352485D01*
X159704085Y-57245342D01*
X159704085Y-57173914D01*
X159668371Y-57066771D01*
X159596942Y-56995342D01*
X159525514Y-56959628D01*
X159382657Y-56923914D01*
X159275514Y-56923914D01*
X159132657Y-56959628D01*
X159061228Y-56995342D01*
X158989800Y-57066771D01*
X158954085Y-57173914D01*
X158954085Y-57245342D01*
X158989800Y-57352485D01*
X159025514Y-57388200D01*
X159704085Y-58102485D02*
X159704085Y-57673914D01*
X159704085Y-57888200D02*
X158954085Y-57888200D01*
X159061228Y-57816771D01*
X159132657Y-57745342D01*
X159168371Y-57673914D01*
X160229085Y-55963200D02*
X160229085Y-56034628D01*
X160264800Y-56106057D01*
X160300514Y-56141771D01*
X160371942Y-56177485D01*
X160514800Y-56213200D01*
X160693371Y-56213200D01*
X160836228Y-56177485D01*
X160907657Y-56141771D01*
X160943371Y-56106057D01*
X160979085Y-56034628D01*
X160979085Y-55963200D01*
X160943371Y-55891771D01*
X160907657Y-55856057D01*
X160836228Y-55820342D01*
X160693371Y-55784628D01*
X160514800Y-55784628D01*
X160371942Y-55820342D01*
X160300514Y-55856057D01*
X160264800Y-55891771D01*
X160229085Y-55963200D01*
X160907657Y-56534628D02*
X160943371Y-56570342D01*
X160979085Y-56534628D01*
X160943371Y-56498914D01*
X160907657Y-56534628D01*
X160979085Y-56534628D01*
X160229085Y-57034628D02*
X160229085Y-57106057D01*
X160264800Y-57177485D01*
X160300514Y-57213200D01*
X160371942Y-57248914D01*
X160514800Y-57284628D01*
X160693371Y-57284628D01*
X160836228Y-57248914D01*
X160907657Y-57213200D01*
X160943371Y-57177485D01*
X160979085Y-57106057D01*
X160979085Y-57034628D01*
X160943371Y-56963200D01*
X160907657Y-56927485D01*
X160836228Y-56891771D01*
X160693371Y-56856057D01*
X160514800Y-56856057D01*
X160371942Y-56891771D01*
X160300514Y-56927485D01*
X160264800Y-56963200D01*
X160229085Y-57034628D01*
X160229085Y-57963200D02*
X160229085Y-57606057D01*
X160586228Y-57570342D01*
X160550514Y-57606057D01*
X160514800Y-57677485D01*
X160514800Y-57856057D01*
X160550514Y-57927485D01*
X160586228Y-57963200D01*
X160657657Y-57998914D01*
X160836228Y-57998914D01*
X160907657Y-57963200D01*
X160943371Y-57927485D01*
X160979085Y-57856057D01*
X160979085Y-57677485D01*
X160943371Y-57606057D01*
X160907657Y-57570342D01*
X160479085Y-59213200D02*
X160979085Y-59213200D01*
X160479085Y-58891771D02*
X160871942Y-58891771D01*
X160943371Y-58927485D01*
X160979085Y-58998914D01*
X160979085Y-59106057D01*
X160943371Y-59177485D01*
X160907657Y-59213200D01*
X160586228Y-59820342D02*
X160586228Y-59570342D01*
X160979085Y-59570342D02*
X160229085Y-59570342D01*
X160229085Y-59927485D01*
%TO.C,C4*%
X154264800Y-55206057D02*
X154300514Y-55241771D01*
X154407657Y-55277485D01*
X154479085Y-55277485D01*
X154586228Y-55241771D01*
X154657657Y-55170342D01*
X154693371Y-55098914D01*
X154729085Y-54956057D01*
X154729085Y-54848914D01*
X154693371Y-54706057D01*
X154657657Y-54634628D01*
X154586228Y-54563200D01*
X154479085Y-54527485D01*
X154407657Y-54527485D01*
X154300514Y-54563200D01*
X154264800Y-54598914D01*
X153621942Y-54777485D02*
X153621942Y-55277485D01*
X153800514Y-54491771D02*
X153979085Y-55027485D01*
X153514800Y-55027485D01*
X155382657Y-57027485D02*
X155311228Y-57027485D01*
X155239800Y-57063200D01*
X155204085Y-57098914D01*
X155168371Y-57170342D01*
X155132657Y-57313200D01*
X155132657Y-57491771D01*
X155168371Y-57634628D01*
X155204085Y-57706057D01*
X155239800Y-57741771D01*
X155311228Y-57777485D01*
X155382657Y-57777485D01*
X155454085Y-57741771D01*
X155489800Y-57706057D01*
X155525514Y-57634628D01*
X155561228Y-57491771D01*
X155561228Y-57313200D01*
X155525514Y-57170342D01*
X155489800Y-57098914D01*
X155454085Y-57063200D01*
X155382657Y-57027485D01*
X154811228Y-57706057D02*
X154775514Y-57741771D01*
X154811228Y-57777485D01*
X154846942Y-57741771D01*
X154811228Y-57706057D01*
X154811228Y-57777485D01*
X154061228Y-57777485D02*
X154489800Y-57777485D01*
X154275514Y-57777485D02*
X154275514Y-57027485D01*
X154346942Y-57134628D01*
X154418371Y-57206057D01*
X154489800Y-57241771D01*
X152846942Y-57277485D02*
X152846942Y-57777485D01*
X153168371Y-57277485D02*
X153168371Y-57670342D01*
X153132657Y-57741771D01*
X153061228Y-57777485D01*
X152954085Y-57777485D01*
X152882657Y-57741771D01*
X152846942Y-57706057D01*
X152239800Y-57384628D02*
X152489800Y-57384628D01*
X152489800Y-57777485D02*
X152489800Y-57027485D01*
X152132657Y-57027485D01*
%TO.C,U2*%
X146336228Y-60977485D02*
X146336228Y-61584628D01*
X146300514Y-61656057D01*
X146264800Y-61691771D01*
X146193371Y-61727485D01*
X146050514Y-61727485D01*
X145979085Y-61691771D01*
X145943371Y-61656057D01*
X145907657Y-61584628D01*
X145907657Y-60977485D01*
X145586228Y-61048914D02*
X145550514Y-61013200D01*
X145479085Y-60977485D01*
X145300514Y-60977485D01*
X145229085Y-61013200D01*
X145193371Y-61048914D01*
X145157657Y-61120342D01*
X145157657Y-61191771D01*
X145193371Y-61298914D01*
X145621942Y-61727485D01*
X145157657Y-61727485D01*
%TO.C,D2*%
X135203371Y-55186485D02*
X135203371Y-54436485D01*
X135024800Y-54436485D01*
X134917657Y-54472200D01*
X134846228Y-54543628D01*
X134810514Y-54615057D01*
X134774800Y-54757914D01*
X134774800Y-54865057D01*
X134810514Y-55007914D01*
X134846228Y-55079342D01*
X134917657Y-55150771D01*
X135024800Y-55186485D01*
X135203371Y-55186485D01*
X134489085Y-54507914D02*
X134453371Y-54472200D01*
X134381942Y-54436485D01*
X134203371Y-54436485D01*
X134131942Y-54472200D01*
X134096228Y-54507914D01*
X134060514Y-54579342D01*
X134060514Y-54650771D01*
X134096228Y-54757914D01*
X134524800Y-55186485D01*
X134060514Y-55186485D01*
X132939085Y-58568628D02*
X133510514Y-58568628D01*
X135464085Y-58568628D02*
X136035514Y-58568628D01*
X135749800Y-58282914D02*
X135749800Y-58854342D01*
D12*
%TO.C,C5*%
X138989800Y-56208200D02*
X139989800Y-56208200D01*
X139989800Y-57168200D02*
X138989800Y-57168200D01*
%TO.C,C1*%
X156689800Y-58183200D02*
X156689800Y-57043200D01*
X158489800Y-58183200D02*
X158489800Y-57043200D01*
%TO.C,C4*%
X154639800Y-56643200D02*
X153639800Y-56643200D01*
X153639800Y-55683200D02*
X154639800Y-55683200D01*
%TO.C,U2*%
X147525374Y-55225200D02*
X143525374Y-55225200D01*
X147525374Y-60265200D02*
X143525374Y-60265200D01*
D13*
X150070374Y-55250200D02*
G75*
G03*
X150070374Y-55250200I-100000J0D01*
G01*
D14*
%TO.C,D2*%
X134131800Y-58618600D02*
X134893800Y-58999600D01*
X135147800Y-58618600D02*
X133877800Y-58618600D01*
X135668500Y-57488300D02*
X133611100Y-57488300D01*
X134131800Y-58618600D02*
X134893800Y-59253600D01*
X134131800Y-58618600D02*
X134893800Y-58364600D01*
X134131800Y-58618600D02*
X134893800Y-58745600D01*
X134893800Y-59253600D02*
X134893800Y-57983600D01*
X134131800Y-59253600D02*
X134131800Y-57983600D01*
X134131800Y-58618600D02*
X134893800Y-59126600D01*
X133611100Y-55888100D02*
X135668500Y-55888100D01*
X134131800Y-58618600D02*
X134893800Y-58110600D01*
X134131800Y-58618600D02*
X134893800Y-57983600D01*
X134131800Y-58618600D02*
X134893800Y-58237600D01*
X134131800Y-58618600D02*
X134893800Y-58872600D01*
X134131800Y-58618600D02*
X134893800Y-58491600D01*
%TD*%
M02*
