%TF.GenerationSoftware,KiCad,Pcbnew,6.0.10-86aedd382b~118~ubuntu18.04.1*%
%TF.CreationDate,2023-06-08T12:44:11-07:00*%
%TF.ProjectId,1000027_V0,31303030-3032-4375-9f56-302e6b696361,rev?*%
%TF.SameCoordinates,Original*%
%TF.FileFunction,Copper,L2,Bot*%
%TF.FilePolarity,Positive*%
%FSLAX46Y46*%
G04 Gerber Fmt 4.6, Leading zero omitted, Abs format (unit mm)*
G04 Created by KiCad (PCBNEW 6.0.10-86aedd382b~118~ubuntu18.04.1) date 2023-06-08 12:44:11*
%MOMM*%
%LPD*%
G01*
G04 APERTURE LIST*
%TA.AperFunction,ComponentPad*%
%ADD10R,1.370000X1.370000*%
%TD*%
%TA.AperFunction,ComponentPad*%
%ADD11C,1.370000*%
%TD*%
%TA.AperFunction,ComponentPad*%
%ADD12R,1.350000X1.350000*%
%TD*%
%TA.AperFunction,ComponentPad*%
%ADD13C,1.350000*%
%TD*%
%TA.AperFunction,ComponentPad*%
%ADD14R,1.575000X1.575000*%
%TD*%
%TA.AperFunction,ComponentPad*%
%ADD15C,1.575000*%
%TD*%
%TA.AperFunction,ViaPad*%
%ADD16C,0.800000*%
%TD*%
%TA.AperFunction,Conductor*%
%ADD17C,0.250000*%
%TD*%
G04 APERTURE END LIST*
D10*
%TO.P,J3,01,01*%
%TO.N,/GND*%
X155829000Y-106299000D03*
D11*
%TO.P,J3,02,02*%
%TO.N,unconnected-(J3-Pad02)*%
X153289000Y-106299000D03*
%TO.P,J3,03,03*%
%TO.N,/SCL*%
X150749000Y-106299000D03*
%TO.P,J3,04,04*%
%TO.N,/SDA*%
X148209000Y-106299000D03*
%TO.P,J3,05,05*%
%TO.N,/Vcc (3.3V)*%
X145669000Y-106299000D03*
%TO.P,J3,06,06*%
%TO.N,unconnected-(J3-Pad06)*%
X143129000Y-106299000D03*
%TD*%
D12*
%TO.P,J4,1,1*%
%TO.N,/GND*%
X153356000Y-99105800D03*
D13*
%TO.P,J4,2,2*%
%TO.N,/SCL*%
X150856000Y-99105800D03*
%TO.P,J4,3,3*%
%TO.N,/SDA*%
X148356000Y-99105800D03*
%TO.P,J4,4,4*%
%TO.N,/Vcc (3.3V)*%
X145856000Y-99105800D03*
%TD*%
D14*
%TO.P,J1,01,01*%
%TO.N,C1*%
X159530000Y-86778000D03*
D15*
%TO.P,J1,02,02*%
%TO.N,C2*%
X159530000Y-89318000D03*
%TO.P,J1,03,03*%
%TO.N,C3*%
X156990000Y-86778000D03*
%TO.P,J1,04,04*%
%TO.N,C4*%
X156990000Y-89318000D03*
%TO.P,J1,05,05*%
%TO.N,C5*%
X154450000Y-86778000D03*
%TO.P,J1,06,06*%
%TO.N,C6*%
X154450000Y-89318000D03*
%TO.P,J1,07,07*%
%TO.N,C7*%
X151910000Y-86778000D03*
%TO.P,J1,08,08*%
%TO.N,C8*%
X151910000Y-89318000D03*
%TO.P,J1,09,09*%
%TO.N,C9*%
X149370000Y-86778000D03*
%TO.P,J1,10,10*%
%TO.N,C10*%
X149370000Y-89318000D03*
%TO.P,J1,11,11*%
%TO.N,C11*%
X146830000Y-86778000D03*
%TO.P,J1,12,12*%
%TO.N,C12*%
X146830000Y-89318000D03*
%TO.P,J1,13,13*%
%TO.N,C13*%
X144290000Y-86778000D03*
%TO.P,J1,14,14*%
%TO.N,C14*%
X144290000Y-89318000D03*
%TO.P,J1,15,15*%
%TO.N,C15*%
X141750000Y-86778000D03*
%TO.P,J1,16,16*%
%TO.N,C16*%
X141750000Y-89318000D03*
%TO.P,J1,17,17*%
%TO.N,C17*%
X139210000Y-86778000D03*
%TO.P,J1,18,18*%
%TO.N,C18*%
X139210000Y-89318000D03*
%TD*%
D16*
%TO.N,C1*%
X154400000Y-75775000D03*
%TO.N,C3*%
X153275000Y-76225000D03*
%TO.N,C5*%
X151800000Y-75775000D03*
%TO.N,C7*%
X150825000Y-76225000D03*
%TO.N,C9*%
X149825000Y-75800000D03*
%TO.N,C11*%
X148825000Y-76225000D03*
%TO.N,C13*%
X147775000Y-75775000D03*
%TO.N,C15*%
X146800000Y-76200000D03*
%TO.N,C17*%
X145800000Y-75750000D03*
%TD*%
D17*
%TO.N,C1*%
X154400000Y-75775000D02*
X154686000Y-76327000D01*
X154686000Y-77851000D02*
X159530000Y-83584000D01*
X154686000Y-76327000D02*
X154686000Y-77851000D01*
X159530000Y-83584000D02*
X159530000Y-86778000D01*
%TO.N,C3*%
X153850000Y-78700000D02*
X156990000Y-82822000D01*
X153850000Y-78700000D02*
X153850000Y-76800000D01*
X153850000Y-76800000D02*
X153275000Y-76225000D01*
X156990000Y-82822000D02*
X156990000Y-86778000D01*
%TO.N,C5*%
X152400000Y-79248000D02*
X152400000Y-76073000D01*
X152400000Y-76073000D02*
X152102000Y-75775000D01*
X154450000Y-86778000D02*
X154450000Y-82060000D01*
X152102000Y-75775000D02*
X151800000Y-75775000D01*
X154450000Y-82060000D02*
X152400000Y-79248000D01*
%TO.N,C7*%
X151910000Y-76980000D02*
X151910000Y-86778000D01*
X150825000Y-76225000D02*
X151910000Y-76980000D01*
%TO.N,C9*%
X149370000Y-84691000D02*
X149370000Y-86778000D01*
X149825000Y-84050000D02*
X149370000Y-84691000D01*
X149825000Y-75800000D02*
X149825000Y-84050000D01*
%TO.N,C11*%
X148825000Y-78200000D02*
X146830000Y-79738000D01*
X146830000Y-79738000D02*
X146830000Y-86778000D01*
X148825000Y-76225000D02*
X148825000Y-78200000D01*
%TO.N,C13*%
X144290000Y-79992000D02*
X144290000Y-86778000D01*
X147000000Y-78232000D02*
X146050000Y-78232000D01*
X146050000Y-78232000D02*
X144290000Y-79992000D01*
X147775000Y-75775000D02*
X147775000Y-77650000D01*
X147775000Y-77650000D02*
X147000000Y-78232000D01*
%TO.N,C15*%
X141750000Y-79738000D02*
X144663000Y-76825000D01*
X146350000Y-76825000D02*
X146800000Y-76200000D01*
X141750000Y-86778000D02*
X141750000Y-79738000D01*
X144663000Y-76825000D02*
X146350000Y-76825000D01*
%TO.N,C17*%
X145350000Y-76200000D02*
X145800000Y-75750000D01*
X139210000Y-86778000D02*
X139210000Y-78214000D01*
X139210000Y-78214000D02*
X141224000Y-76200000D01*
X141224000Y-76200000D02*
X145350000Y-76200000D01*
%TD*%
M02*
