%TF.GenerationSoftware,KiCad,Pcbnew,6.0.10-86aedd382b~118~ubuntu18.04.1*%
%TF.CreationDate,2023-06-08T12:44:12-07:00*%
%TF.ProjectId,1000027_V0,31303030-3032-4375-9f56-302e6b696361,rev?*%
%TF.SameCoordinates,Original*%
%TF.FileFunction,Profile,NP*%
%FSLAX46Y46*%
G04 Gerber Fmt 4.6, Leading zero omitted, Abs format (unit mm)*
G04 Created by KiCad (PCBNEW 6.0.10-86aedd382b~118~ubuntu18.04.1) date 2023-06-08 12:44:12*
%MOMM*%
%LPD*%
G01*
G04 APERTURE LIST*
%TA.AperFunction,Profile*%
%ADD10C,0.100000*%
%TD*%
G04 APERTURE END LIST*
D10*
X138847000Y-94472000D02*
G75*
G03*
X137847000Y-93472000I-1000000J0D01*
G01*
X138847000Y-98622000D02*
X138847000Y-94472000D01*
X150697000Y-108472000D02*
G75*
G03*
X150697000Y-108472000I-300000J0D01*
G01*
X151797000Y-108472000D02*
X157447000Y-108472000D01*
X140447000Y-103322000D02*
X140447000Y-103342195D01*
X169477000Y-68272000D02*
X169477000Y-112072000D01*
X151797000Y-108472000D02*
G75*
G03*
X151797000Y-110072000I0J-800000D01*
G01*
X134117000Y-71872000D02*
X134417000Y-71872000D01*
X131117000Y-71872000D02*
G75*
G03*
X131117000Y-71872000I-300000J0D01*
G01*
X134117000Y-70272000D02*
G75*
G03*
X134117000Y-71872000I0J-800000D01*
G01*
X151797000Y-70272000D02*
G75*
G03*
X151797000Y-71872000I0J-800000D01*
G01*
X161877000Y-72872000D02*
X161877000Y-79522000D01*
X167427000Y-71872000D02*
G75*
G03*
X167427000Y-71872000I-300000J0D01*
G01*
X132067000Y-108472000D02*
G75*
G03*
X132067000Y-108472000I-300000J0D01*
G01*
X140447000Y-107472000D02*
X140447000Y-106187805D01*
X166477000Y-71872000D02*
G75*
G03*
X166477000Y-71872000I-300000J0D01*
G01*
X137317000Y-80922000D02*
G75*
G03*
X137317000Y-80922000I-300000J0D01*
G01*
X168377000Y-71872000D02*
G75*
G03*
X168377000Y-71872000I-300000J0D01*
G01*
X148797000Y-91872000D02*
G75*
G03*
X148797000Y-91872000I-300000J0D01*
G01*
X161877000Y-84222000D02*
X161877000Y-90872000D01*
X168377000Y-108472000D02*
G75*
G03*
X168377000Y-108472000I-300000J0D01*
G01*
X140747000Y-100022000D02*
G75*
G03*
X140747000Y-100022000I-300000J0D01*
G01*
X148797000Y-71872000D02*
G75*
G03*
X148797000Y-71872000I-300000J0D01*
G01*
X137317000Y-82822000D02*
G75*
G03*
X137317000Y-82822000I-300000J0D01*
G01*
X137017000Y-90872000D02*
G75*
G03*
X138017000Y-91872000I1000000J0D01*
G01*
X151797000Y-91872000D02*
G75*
G03*
X151797000Y-93472000I0J-800000D01*
G01*
X141447000Y-108472000D02*
X147097000Y-108472000D01*
X129417000Y-112072000D02*
X169477000Y-112072000D01*
X151797000Y-70272000D02*
X164777000Y-70272000D01*
X147097000Y-110072000D02*
X134117000Y-110072000D01*
X160877000Y-71872000D02*
X151797000Y-71872000D01*
X140447000Y-106187805D02*
G75*
G03*
X140447000Y-103342195I-475000J1422805D01*
G01*
X151797000Y-110072000D02*
X164777000Y-110072000D01*
X157447000Y-108472000D02*
G75*
G03*
X158447000Y-107472000I0J1000000D01*
G01*
X135417000Y-79522000D02*
G75*
G03*
X137017000Y-79522000I800000J0D01*
G01*
X158447000Y-94472000D02*
G75*
G03*
X157447000Y-93472000I-1000000J0D01*
G01*
X138017000Y-71872000D02*
G75*
G03*
X137017000Y-72872000I0J-1000000D01*
G01*
X158747000Y-100022000D02*
G75*
G03*
X158747000Y-100022000I-300000J0D01*
G01*
X137017000Y-84222000D02*
X137017000Y-90872000D01*
X151797000Y-93472000D02*
X157447000Y-93472000D01*
X149747000Y-91872000D02*
G75*
G03*
X149747000Y-91872000I-300000J0D01*
G01*
X158747000Y-101922000D02*
G75*
G03*
X158747000Y-101922000I-300000J0D01*
G01*
X138017000Y-91872000D02*
X147097000Y-91872000D01*
X130167000Y-71872000D02*
G75*
G03*
X130167000Y-71872000I-300000J0D01*
G01*
X150697000Y-91872000D02*
G75*
G03*
X150697000Y-91872000I-300000J0D01*
G01*
X134117000Y-108472000D02*
G75*
G03*
X134117000Y-110072000I0J-800000D01*
G01*
X148797000Y-93472000D02*
G75*
G03*
X148797000Y-93472000I-300000J0D01*
G01*
X137742000Y-108472000D02*
X134117000Y-108472000D01*
X135417000Y-92472000D02*
G75*
G03*
X136417000Y-93472000I1000000J0D01*
G01*
X158447000Y-103322000D02*
X158447000Y-103342195D01*
X130167000Y-108472000D02*
G75*
G03*
X130167000Y-108472000I-300000J0D01*
G01*
X133017000Y-71872000D02*
G75*
G03*
X133017000Y-71872000I-300000J0D01*
G01*
X162477000Y-93472000D02*
G75*
G03*
X163477000Y-92472000I0J1000000D01*
G01*
X158447000Y-98622000D02*
G75*
G03*
X160047000Y-98622000I800000J0D01*
G01*
X136417000Y-93472000D02*
X137847000Y-93472000D01*
X162177000Y-80922000D02*
G75*
G03*
X162177000Y-80922000I-300000J0D01*
G01*
X131117000Y-108472000D02*
G75*
G03*
X131117000Y-108472000I-300000J0D01*
G01*
X160047000Y-107367000D02*
G75*
G03*
X161152000Y-108472000I1105000J0D01*
G01*
X161047000Y-93472000D02*
X162477000Y-93472000D01*
X160047000Y-103322000D02*
G75*
G03*
X158447000Y-103322000I-800000J0D01*
G01*
X161047000Y-93472000D02*
G75*
G03*
X160047000Y-94472000I0J-1000000D01*
G01*
X135417000Y-84222000D02*
X135417000Y-92472000D01*
X169327000Y-108472000D02*
G75*
G03*
X169327000Y-108472000I-300000J0D01*
G01*
X158747000Y-100972000D02*
G75*
G03*
X158747000Y-100972000I-300000J0D01*
G01*
X140447000Y-98622000D02*
X140447000Y-94472000D01*
X164477000Y-71872000D02*
G75*
G03*
X163477000Y-72872000I0J-1000000D01*
G01*
X163477000Y-79522000D02*
X163477000Y-72872000D01*
X149747000Y-71872000D02*
G75*
G03*
X149747000Y-71872000I-300000J0D01*
G01*
X169327000Y-71872000D02*
G75*
G03*
X169327000Y-71872000I-300000J0D01*
G01*
X140447000Y-103322000D02*
G75*
G03*
X138847000Y-103322000I-800000J0D01*
G01*
X147097000Y-110072000D02*
G75*
G03*
X147097000Y-108472000I0J800000D01*
G01*
X137317000Y-81872000D02*
G75*
G03*
X137317000Y-81872000I-300000J0D01*
G01*
X137017000Y-84222000D02*
G75*
G03*
X135417000Y-84222000I-800000J0D01*
G01*
X138017000Y-71872000D02*
X147097000Y-71872000D01*
X132067000Y-71872000D02*
G75*
G03*
X132067000Y-71872000I-300000J0D01*
G01*
X162177000Y-81872000D02*
G75*
G03*
X162177000Y-81872000I-300000J0D01*
G01*
X150697000Y-93472000D02*
G75*
G03*
X150697000Y-93472000I-300000J0D01*
G01*
X166477000Y-108472000D02*
G75*
G03*
X166477000Y-108472000I-300000J0D01*
G01*
X147097000Y-93472000D02*
G75*
G03*
X147097000Y-91872000I0J800000D01*
G01*
X164477000Y-71872000D02*
X164777000Y-71872000D01*
X141447000Y-93472000D02*
G75*
G03*
X140447000Y-94472000I0J-1000000D01*
G01*
X151797000Y-91872000D02*
X160877000Y-91872000D01*
X137742000Y-108472000D02*
G75*
G03*
X138847000Y-107367000I0J1105000D01*
G01*
X149747000Y-108472000D02*
G75*
G03*
X149747000Y-108472000I-300000J0D01*
G01*
X161152000Y-108472000D02*
X164777000Y-108472000D01*
X138847000Y-98622000D02*
G75*
G03*
X140447000Y-98622000I800000J0D01*
G01*
X161877000Y-72872000D02*
G75*
G03*
X160877000Y-71872000I-1000000J0D01*
G01*
X147097000Y-70272000D02*
X134117000Y-70272000D01*
X147097000Y-71872000D02*
G75*
G03*
X147097000Y-70272000I0J800000D01*
G01*
X161877000Y-79522000D02*
G75*
G03*
X163477000Y-79522000I800000J0D01*
G01*
X133017000Y-108472000D02*
G75*
G03*
X133017000Y-108472000I-300000J0D01*
G01*
X164777000Y-71872000D02*
G75*
G03*
X164777000Y-70272000I0J800000D01*
G01*
X135417000Y-72872000D02*
G75*
G03*
X134417000Y-71872000I-1000000J0D01*
G01*
X160877000Y-91872000D02*
G75*
G03*
X161877000Y-90872000I0J1000000D01*
G01*
X162177000Y-82822000D02*
G75*
G03*
X162177000Y-82822000I-300000J0D01*
G01*
X158447000Y-103342195D02*
G75*
G03*
X158447000Y-106187805I475000J-1422805D01*
G01*
X149747000Y-93472000D02*
G75*
G03*
X149747000Y-93472000I-300000J0D01*
G01*
X148797000Y-108472000D02*
G75*
G03*
X148797000Y-108472000I-300000J0D01*
G01*
X167427000Y-108472000D02*
G75*
G03*
X167427000Y-108472000I-300000J0D01*
G01*
X160047000Y-98622000D02*
X160047000Y-94472000D01*
X150697000Y-71872000D02*
G75*
G03*
X150697000Y-71872000I-300000J0D01*
G01*
X158447000Y-98622000D02*
X158447000Y-94472000D01*
X141447000Y-93472000D02*
X147097000Y-93472000D01*
X158447000Y-106187805D02*
X158447000Y-107472000D01*
X129417000Y-68272000D02*
X169477000Y-68272000D01*
X160047000Y-103322000D02*
X160047000Y-107367000D01*
X138847000Y-103322000D02*
X138847000Y-107367000D01*
X135417000Y-79522000D02*
X135417000Y-72872000D01*
X140747000Y-100972000D02*
G75*
G03*
X140747000Y-100972000I-300000J0D01*
G01*
X137017000Y-72872000D02*
X137017000Y-79522000D01*
X140447000Y-107472000D02*
G75*
G03*
X141447000Y-108472000I1000000J0D01*
G01*
X164777000Y-110072000D02*
G75*
G03*
X164777000Y-108472000I0J800000D01*
G01*
X163477000Y-84222000D02*
X163477000Y-92472000D01*
X163477000Y-84222000D02*
G75*
G03*
X161877000Y-84222000I-800000J0D01*
G01*
X140747000Y-101922000D02*
G75*
G03*
X140747000Y-101922000I-300000J0D01*
G01*
X129417000Y-68272000D02*
X129417000Y-112072000D01*
M02*
