%TF.GenerationSoftware,KiCad,Pcbnew,6.0.10-86aedd382b~118~ubuntu18.04.1*%
%TF.CreationDate,2023-06-08T12:44:11-07:00*%
%TF.ProjectId,1000027_V0,31303030-3032-4375-9f56-302e6b696361,rev?*%
%TF.SameCoordinates,Original*%
%TF.FileFunction,Copper,L1,Top*%
%TF.FilePolarity,Positive*%
%FSLAX46Y46*%
G04 Gerber Fmt 4.6, Leading zero omitted, Abs format (unit mm)*
G04 Created by KiCad (PCBNEW 6.0.10-86aedd382b~118~ubuntu18.04.1) date 2023-06-08 12:44:11*
%MOMM*%
%LPD*%
G01*
G04 APERTURE LIST*
%TA.AperFunction,ComponentPad*%
%ADD10R,1.370000X1.370000*%
%TD*%
%TA.AperFunction,ComponentPad*%
%ADD11C,1.370000*%
%TD*%
%TA.AperFunction,ComponentPad*%
%ADD12R,1.350000X1.350000*%
%TD*%
%TA.AperFunction,ComponentPad*%
%ADD13C,1.350000*%
%TD*%
%TA.AperFunction,ComponentPad*%
%ADD14R,1.575000X1.575000*%
%TD*%
%TA.AperFunction,ComponentPad*%
%ADD15C,1.575000*%
%TD*%
%TA.AperFunction,SMDPad,CuDef*%
%ADD16R,0.605600X0.832200*%
%TD*%
%TA.AperFunction,SMDPad,CuDef*%
%ADD17R,0.400000X0.850000*%
%TD*%
%TA.AperFunction,ViaPad*%
%ADD18C,0.800000*%
%TD*%
%TA.AperFunction,Conductor*%
%ADD19C,0.250000*%
%TD*%
G04 APERTURE END LIST*
D10*
%TO.P,J3,01,01*%
%TO.N,/GND*%
X155829000Y-106299000D03*
D11*
%TO.P,J3,02,02*%
%TO.N,unconnected-(J3-Pad02)*%
X153289000Y-106299000D03*
%TO.P,J3,03,03*%
%TO.N,/SCL*%
X150749000Y-106299000D03*
%TO.P,J3,04,04*%
%TO.N,/SDA*%
X148209000Y-106299000D03*
%TO.P,J3,05,05*%
%TO.N,/Vcc (3.3V)*%
X145669000Y-106299000D03*
%TO.P,J3,06,06*%
%TO.N,unconnected-(J3-Pad06)*%
X143129000Y-106299000D03*
%TD*%
D12*
%TO.P,J4,1,1*%
%TO.N,/GND*%
X153356000Y-99105800D03*
D13*
%TO.P,J4,2,2*%
%TO.N,/SCL*%
X150856000Y-99105800D03*
%TO.P,J4,3,3*%
%TO.N,/SDA*%
X148356000Y-99105800D03*
%TO.P,J4,4,4*%
%TO.N,/Vcc (3.3V)*%
X145856000Y-99105800D03*
%TD*%
D14*
%TO.P,J1,01,01*%
%TO.N,C1*%
X159530000Y-86778000D03*
D15*
%TO.P,J1,02,02*%
%TO.N,C2*%
X159530000Y-89318000D03*
%TO.P,J1,03,03*%
%TO.N,C3*%
X156990000Y-86778000D03*
%TO.P,J1,04,04*%
%TO.N,C4*%
X156990000Y-89318000D03*
%TO.P,J1,05,05*%
%TO.N,C5*%
X154450000Y-86778000D03*
%TO.P,J1,06,06*%
%TO.N,C6*%
X154450000Y-89318000D03*
%TO.P,J1,07,07*%
%TO.N,C7*%
X151910000Y-86778000D03*
%TO.P,J1,08,08*%
%TO.N,C8*%
X151910000Y-89318000D03*
%TO.P,J1,09,09*%
%TO.N,C9*%
X149370000Y-86778000D03*
%TO.P,J1,10,10*%
%TO.N,C10*%
X149370000Y-89318000D03*
%TO.P,J1,11,11*%
%TO.N,C11*%
X146830000Y-86778000D03*
%TO.P,J1,12,12*%
%TO.N,C12*%
X146830000Y-89318000D03*
%TO.P,J1,13,13*%
%TO.N,C13*%
X144290000Y-86778000D03*
%TO.P,J1,14,14*%
%TO.N,C14*%
X144290000Y-89318000D03*
%TO.P,J1,15,15*%
%TO.N,C15*%
X141750000Y-86778000D03*
%TO.P,J1,16,16*%
%TO.N,C16*%
X141750000Y-89318000D03*
%TO.P,J1,17,17*%
%TO.N,C17*%
X139210000Y-86778000D03*
%TO.P,J1,18,18*%
%TO.N,C18*%
X139210000Y-89318000D03*
%TD*%
D16*
%TO.P,J2, *%
%TO.N,N/C*%
X154741982Y-74614649D03*
X144251782Y-77281649D03*
X144251782Y-74614649D03*
X154741982Y-77281649D03*
D17*
%TO.P,J2,1,1*%
%TO.N,C1*%
X153806457Y-74638625D03*
%TO.P,J2,2,2*%
%TO.N,C2*%
X153268827Y-77265291D03*
%TO.P,J2,3,3*%
%TO.N,C3*%
X152800836Y-74641999D03*
%TO.P,J2,4,4*%
%TO.N,C4*%
X152268184Y-77265291D03*
%TO.P,J2,5,5*%
%TO.N,C5*%
X151806272Y-74645984D03*
%TO.P,J2,6,6*%
%TO.N,C6*%
X151280657Y-77274849D03*
%TO.P,J2,7,7*%
%TO.N,C7*%
X150795522Y-74645984D03*
%TO.P,J2,8,8*%
%TO.N,C8*%
X150272336Y-77274849D03*
%TO.P,J2,9,9*%
%TO.N,C9*%
X149809068Y-74645984D03*
%TO.P,J2,10,10*%
%TO.N,C10*%
X149272114Y-77270799D03*
%TO.P,J2,11,11*%
%TO.N,C11*%
X148804183Y-74639096D03*
%TO.P,J2,12,12*%
%TO.N,C12*%
X148267842Y-77274849D03*
%TO.P,J2,13,13*%
%TO.N,C13*%
X147796020Y-74639096D03*
%TO.P,J2,14,14*%
%TO.N,C14*%
X147261007Y-77269986D03*
%TO.P,J2,15,15*%
%TO.N,C15*%
X146800523Y-74648349D03*
%TO.P,J2,16,16*%
%TO.N,C16*%
X146269693Y-77275817D03*
%TO.P,J2,17,17*%
%TO.N,C17*%
X145801650Y-74648349D03*
%TO.P,J2,18,18*%
%TO.N,C18*%
X145271167Y-77275450D03*
%TD*%
D18*
%TO.N,C1*%
X154400000Y-75775000D03*
%TO.N,C3*%
X153275000Y-76225000D03*
%TO.N,C5*%
X151800000Y-75775000D03*
%TO.N,C7*%
X150825000Y-76225000D03*
%TO.N,C9*%
X149825000Y-75800000D03*
%TO.N,C11*%
X148825000Y-76225000D03*
%TO.N,C13*%
X147775000Y-75775000D03*
%TO.N,C15*%
X146800000Y-76200000D03*
%TO.N,C17*%
X145800000Y-75750000D03*
%TD*%
D19*
%TO.N,/GND*%
X155702000Y-104394000D02*
X155659500Y-104436500D01*
X155659500Y-104436500D02*
X155659500Y-105972000D01*
X153147000Y-101839000D02*
X155702000Y-104394000D01*
X153147000Y-99309800D02*
X153147000Y-101839000D01*
%TO.N,/SCL*%
X150647000Y-99309800D02*
X150647000Y-105904500D01*
X150647000Y-105904500D02*
X150579500Y-105972000D01*
%TO.N,/SDA*%
X148147000Y-105864500D02*
X148039500Y-105972000D01*
X148147000Y-99309800D02*
X148147000Y-105864500D01*
%TO.N,/Vcc (3.3V)*%
X145647000Y-105824500D02*
X145499500Y-105972000D01*
X145647000Y-99309800D02*
X145647000Y-105824500D01*
%TO.N,C1*%
X153806457Y-74638625D02*
X153806457Y-75181457D01*
X153806457Y-75181457D02*
X154400000Y-75775000D01*
%TO.N,C2*%
X153275000Y-79950000D02*
X153268827Y-77265291D01*
X158417500Y-84963000D02*
X153275000Y-79950000D01*
X158417500Y-88205500D02*
X158417500Y-84963000D01*
X159530000Y-89318000D02*
X158417500Y-88205500D01*
%TO.N,C3*%
X152800836Y-74641999D02*
X152800836Y-75750836D01*
X152800836Y-75750836D02*
X153275000Y-76225000D01*
%TO.N,C4*%
X155850000Y-84475000D02*
X152268184Y-81093184D01*
X155877500Y-88205500D02*
X155877500Y-84503500D01*
X152268184Y-81093184D02*
X152268184Y-77265291D01*
X156990000Y-89318000D02*
X155877500Y-88205500D01*
%TO.N,C5*%
X151806272Y-75768728D02*
X151800000Y-75775000D01*
X151806272Y-74645984D02*
X151806272Y-75768728D01*
%TO.N,C6*%
X153022500Y-83172500D02*
X151275000Y-81800000D01*
X154450000Y-89318000D02*
X153022500Y-87890500D01*
X153022500Y-87890500D02*
X153022500Y-83172500D01*
X151275000Y-81800000D02*
X151280657Y-77274849D01*
%TO.N,C7*%
X150795522Y-74645984D02*
X150825000Y-76225000D01*
%TO.N,C8*%
X150272336Y-84347336D02*
X150272336Y-77274849D01*
X151910000Y-89318000D02*
X150600000Y-88008000D01*
X150600000Y-84675000D02*
X150272336Y-84347336D01*
X150600000Y-88008000D02*
X150600000Y-84675000D01*
%TO.N,C9*%
X149809068Y-74645984D02*
X149825000Y-75800000D01*
%TO.N,C10*%
X147942500Y-83578500D02*
X149275000Y-81975000D01*
X149370000Y-89318000D02*
X147942500Y-87890500D01*
X149275000Y-81975000D02*
X149272114Y-77270799D01*
X147942500Y-87890500D02*
X147942500Y-83578500D01*
%TO.N,C11*%
X148825000Y-76225000D02*
X148804183Y-74639096D01*
%TO.N,C12*%
X145717500Y-88205500D02*
X145717500Y-83390500D01*
X147574000Y-82677000D02*
X148250000Y-81875000D01*
X146431000Y-82677000D02*
X147574000Y-82677000D01*
X146830000Y-89318000D02*
X145717500Y-88205500D01*
X145717500Y-83390500D02*
X146431000Y-82677000D01*
X148250000Y-81875000D02*
X148267842Y-77274849D01*
%TO.N,C13*%
X147796020Y-74639096D02*
X147775000Y-75775000D01*
%TO.N,C14*%
X144290000Y-89318000D02*
X143256000Y-88284000D01*
X143900000Y-81775000D02*
X146775000Y-81775000D01*
X143256000Y-88284000D02*
X143256000Y-87503000D01*
X143256000Y-87503000D02*
X143177500Y-87424500D01*
X143177500Y-87424500D02*
X143177500Y-82628500D01*
X146775000Y-81775000D02*
X147275000Y-81125000D01*
X147275000Y-81125000D02*
X147261007Y-77269986D01*
X143177500Y-82628500D02*
X143900000Y-81775000D01*
%TO.N,C15*%
X146800523Y-74648349D02*
X146800523Y-76199477D01*
X146800523Y-76199477D02*
X146800000Y-76200000D01*
%TO.N,C16*%
X141750000Y-89318000D02*
X140637500Y-88205500D01*
X141859000Y-81153000D02*
X145669000Y-81153000D01*
X140637500Y-82374500D02*
X141859000Y-81153000D01*
X145669000Y-81153000D02*
X146275000Y-80625000D01*
X140637500Y-88205500D02*
X140637500Y-82374500D01*
X146275000Y-80625000D02*
X146269693Y-77275817D01*
%TO.N,C17*%
X145801650Y-74648349D02*
X145801650Y-75748350D01*
X145801650Y-75748350D02*
X145800000Y-75750000D01*
%TO.N,C18*%
X142350000Y-79400000D02*
X144225000Y-79400000D01*
X145271167Y-78221167D02*
X145271167Y-77275450D01*
X137795000Y-83955000D02*
X142350000Y-79400000D01*
X144200000Y-79400000D02*
X145275000Y-78225000D01*
X139210000Y-89318000D02*
X137795000Y-87903000D01*
X137795000Y-87903000D02*
X137795000Y-83955000D01*
%TD*%
M02*
