%TF.GenerationSoftware,KiCad,Pcbnew,6.0.10-86aedd382b~118~ubuntu18.04.1*%
%TF.CreationDate,2023-06-08T12:45:09-07:00*%
%TF.ProjectId,1000026_V0.kicad_pcb,31303030-3032-4365-9f56-302e6b696361,rev?*%
%TF.SameCoordinates,Original*%
%TF.FileFunction,Copper,L1,Top*%
%TF.FilePolarity,Positive*%
%FSLAX46Y46*%
G04 Gerber Fmt 4.6, Leading zero omitted, Abs format (unit mm)*
G04 Created by KiCad (PCBNEW 6.0.10-86aedd382b~118~ubuntu18.04.1) date 2023-06-08 12:45:09*
%MOMM*%
%LPD*%
G01*
G04 APERTURE LIST*
G04 Aperture macros list*
%AMRoundRect*
0 Rectangle with rounded corners*
0 $1 Rounding radius*
0 $2 $3 $4 $5 $6 $7 $8 $9 X,Y pos of 4 corners*
0 Add a 4 corners polygon primitive as box body*
4,1,4,$2,$3,$4,$5,$6,$7,$8,$9,$2,$3,0*
0 Add four circle primitives for the rounded corners*
1,1,$1+$1,$2,$3*
1,1,$1+$1,$4,$5*
1,1,$1+$1,$6,$7*
1,1,$1+$1,$8,$9*
0 Add four rect primitives between the rounded corners*
20,1,$1+$1,$2,$3,$4,$5,0*
20,1,$1+$1,$4,$5,$6,$7,0*
20,1,$1+$1,$6,$7,$8,$9,0*
20,1,$1+$1,$8,$9,$2,$3,0*%
G04 Aperture macros list end*
%TA.AperFunction,ComponentPad*%
%ADD10R,1.600000X1.600000*%
%TD*%
%TA.AperFunction,ComponentPad*%
%ADD11O,1.600000X1.600000*%
%TD*%
%TA.AperFunction,SMDPad,CuDef*%
%ADD12R,3.460000X1.330000*%
%TD*%
%TA.AperFunction,SMDPad,CuDef*%
%ADD13R,0.832200X0.605600*%
%TD*%
%TA.AperFunction,SMDPad,CuDef*%
%ADD14R,0.850000X0.400000*%
%TD*%
%TA.AperFunction,SMDPad,CuDef*%
%ADD15RoundRect,0.075600X-0.224400X-0.194400X0.224400X-0.194400X0.224400X0.194400X-0.224400X0.194400X0*%
%TD*%
%TA.AperFunction,ComponentPad*%
%ADD16R,1.700000X1.700000*%
%TD*%
%TA.AperFunction,ComponentPad*%
%ADD17C,1.700000*%
%TD*%
%TA.AperFunction,SMDPad,CuDef*%
%ADD18R,1.411198X0.771200*%
%TD*%
%TA.AperFunction,ComponentPad*%
%ADD19R,1.651000X1.651000*%
%TD*%
%TA.AperFunction,ComponentPad*%
%ADD20C,1.651000*%
%TD*%
%TA.AperFunction,SMDPad,CuDef*%
%ADD21R,1.157199X0.466400*%
%TD*%
%TA.AperFunction,SMDPad,CuDef*%
%ADD22R,0.466400X1.157199*%
%TD*%
%TA.AperFunction,ComponentPad*%
%ADD23R,1.350000X1.350000*%
%TD*%
%TA.AperFunction,ComponentPad*%
%ADD24C,1.350000*%
%TD*%
%TA.AperFunction,ComponentPad*%
%ADD25R,2.775000X2.775000*%
%TD*%
%TA.AperFunction,ComponentPad*%
%ADD26C,2.775000*%
%TD*%
%TA.AperFunction,ComponentPad*%
%ADD27C,1.270000*%
%TD*%
%TA.AperFunction,SMDPad,CuDef*%
%ADD28R,0.654800X0.508000*%
%TD*%
%TA.AperFunction,SMDPad,CuDef*%
%ADD29RoundRect,0.020500X0.764500X0.184500X-0.764500X0.184500X-0.764500X-0.184500X0.764500X-0.184500X0*%
%TD*%
%TA.AperFunction,ViaPad*%
%ADD30C,0.800000*%
%TD*%
%TA.AperFunction,Conductor*%
%ADD31C,0.250000*%
%TD*%
G04 APERTURE END LIST*
D10*
%TO.P,A2,1,D1/TX*%
%TO.N,unconnected-(A2-Pad1)*%
X140364800Y-103413200D03*
D11*
%TO.P,A2,2,D0/RX*%
%TO.N,unconnected-(A2-Pad2)*%
X140364800Y-100873200D03*
%TO.P,A2,3,~{RESET}*%
%TO.N,unconnected-(A2-Pad3)*%
X140364800Y-98333200D03*
%TO.P,A2,4,GND*%
%TO.N,unconnected-(A2-Pad4)*%
X140364800Y-95793200D03*
%TO.P,A2,5,D2*%
%TO.N,unconnected-(A2-Pad5)*%
X140364800Y-93253200D03*
%TO.P,A2,6,~D3*%
%TO.N,unconnected-(A2-Pad6)*%
X140364800Y-90713200D03*
%TO.P,A2,7,D4*%
%TO.N,unconnected-(A2-Pad7)*%
X140364800Y-88173200D03*
%TO.P,A2,8,~D5*%
%TO.N,unconnected-(A2-Pad8)*%
X140364800Y-85633200D03*
%TO.P,A2,9,~D6*%
%TO.N,unconnected-(A2-Pad9)*%
X140364800Y-83093200D03*
%TO.P,A2,10,D7*%
%TO.N,bit_0*%
X140364800Y-80553200D03*
%TO.P,A2,11,D8*%
%TO.N,bit_1*%
X140364800Y-78013200D03*
%TO.P,A2,12,~D9*%
%TO.N,bit_2*%
X140364800Y-75473200D03*
%TO.P,A2,13,~D10*%
%TO.N,unconnected-(A2-Pad13)*%
X140364800Y-72933200D03*
%TO.P,A2,14,D11/MOSI*%
%TO.N,/MOSI*%
X140364800Y-70393200D03*
%TO.P,A2,15,~D12/MSIO*%
%TO.N,unconnected-(A2-Pad15)*%
X140364800Y-67853200D03*
%TO.P,A2,16,D13/SCK*%
%TO.N,SCK*%
X125124800Y-67853200D03*
%TO.P,A2,17,3V3*%
%TO.N,3.3V_2*%
X125124800Y-70393200D03*
%TO.P,A2,18,AREF*%
%TO.N,unconnected-(A2-Pad18)*%
X125124800Y-72933200D03*
%TO.P,A2,19,D14/A0*%
%TO.N,unconnected-(A2-Pad19)*%
X125124800Y-75473200D03*
%TO.P,A2,20,D15/A1*%
%TO.N,Analog*%
X125124800Y-78013200D03*
%TO.P,A2,21,D16/A2*%
%TO.N,CS*%
X125124800Y-80553200D03*
%TO.P,A2,22,D17/A3*%
%TO.N,DC*%
X125124800Y-83093200D03*
%TO.P,A2,23,D18/SDA/A4*%
%TO.N,SDA_2*%
X125124800Y-85633200D03*
%TO.P,A2,24,D19/SCL/A5*%
%TO.N,SDL_2*%
X125124800Y-88173200D03*
%TO.P,A2,25,D20/A6*%
%TO.N,RST*%
X125124800Y-90713200D03*
%TO.P,A2,26,D21/A7*%
%TO.N,unconnected-(A2-Pad26)*%
X125124800Y-93253200D03*
%TO.P,A2,27,+5V*%
%TO.N,5V_2*%
X125124800Y-95793200D03*
%TO.P,A2,28,~{RESET}*%
%TO.N,unconnected-(A2-Pad28)*%
X125124800Y-98333200D03*
%TO.P,A2,29,GND*%
%TO.N,GND*%
X125124800Y-100873200D03*
%TO.P,A2,30,VIN*%
%TO.N,7.4V*%
X125124800Y-103413200D03*
%TD*%
D12*
%TO.P,R1,1*%
%TO.N,7.4V*%
X143749800Y-118093200D03*
%TO.P,R1,2*%
%TO.N,Net-(LED1-Pad2)*%
X143749800Y-112205200D03*
%TD*%
D13*
%TO.P,J2, *%
%TO.N,N/C*%
X106663200Y-97612400D03*
X103996200Y-97612400D03*
X103996200Y-87122200D03*
X106663200Y-87122200D03*
D14*
%TO.P,J2,1,1*%
%TO.N,unconnected-(J2-Pad1)*%
X104020176Y-88057725D03*
%TO.P,J2,2,2*%
%TO.N,unconnected-(J2-Pad2)*%
X106646842Y-88595355D03*
%TO.P,J2,3,3*%
%TO.N,unconnected-(J2-Pad3)*%
X104023550Y-89063346D03*
%TO.P,J2,4,4*%
%TO.N,unconnected-(J2-Pad4)*%
X106646842Y-89595998D03*
%TO.P,J2,5,5*%
%TO.N,unconnected-(J2-Pad5)*%
X104027535Y-90057910D03*
%TO.P,J2,6,6*%
%TO.N,unconnected-(J2-Pad6)*%
X106656400Y-90583525D03*
%TO.P,J2,7,7*%
%TO.N,unconnected-(J2-Pad7)*%
X104027535Y-91068660D03*
%TO.P,J2,8,8*%
%TO.N,unconnected-(J2-Pad8)*%
X106656400Y-91591846D03*
%TO.P,J2,9,9*%
%TO.N,unconnected-(J2-Pad9)*%
X104027535Y-92055114D03*
%TO.P,J2,10,10*%
%TO.N,CS_5V*%
X106652350Y-92592068D03*
%TO.P,J2,11,11*%
%TO.N,RST_5V*%
X104020647Y-93059999D03*
%TO.P,J2,12,12*%
%TO.N,DC_5V*%
X106656400Y-93596340D03*
%TO.P,J2,13,13*%
%TO.N,unconnected-(J2-Pad13)*%
X104020647Y-94068162D03*
%TO.P,J2,14,14*%
%TO.N,MOSI_5V*%
X106651537Y-94603175D03*
%TO.P,J2,15,15*%
%TO.N,SCK_5V*%
X104029900Y-95063659D03*
%TO.P,J2,16,16*%
%TO.N,GND*%
X106657368Y-95594489D03*
%TO.P,J2,17,17*%
%TO.N,unconnected-(J2-Pad17)*%
X104029900Y-96062532D03*
%TO.P,J2,18,18*%
%TO.N,5V_2*%
X106657001Y-96593015D03*
%TD*%
D15*
%TO.P,C3,1*%
%TO.N,3.3V_2*%
X105039800Y-78829000D03*
%TO.P,C3,2*%
%TO.N,GND*%
X105039800Y-79689000D03*
%TD*%
D16*
%TO.P,J5,1,1*%
%TO.N,GND*%
X183373800Y-62063200D03*
D17*
%TO.P,J5,2,2*%
%TO.N,Net-(D3-Pad1)*%
X183373800Y-65563201D03*
%TD*%
D18*
%TO.P,SW1,1,1*%
%TO.N,PB*%
X162456900Y-113649200D03*
%TO.P,SW1,2,2*%
X169238700Y-113649200D03*
%TO.P,SW1,3,3*%
%TO.N,GND*%
X162456900Y-116649200D03*
%TO.P,SW1,4,4*%
X169238700Y-116649200D03*
%TD*%
D10*
%TO.P,A1,1,D1/TX*%
%TO.N,D1*%
X168415300Y-103211200D03*
D11*
%TO.P,A1,2,D0/RX*%
%TO.N,D2*%
X168415300Y-100671200D03*
%TO.P,A1,3,~{RESET}*%
%TO.N,unconnected-(A1-Pad3)*%
X168415300Y-98131200D03*
%TO.P,A1,4,GND*%
%TO.N,unconnected-(A1-Pad4)*%
X168415300Y-95591200D03*
%TO.P,A1,5,D2*%
%TO.N,D3*%
X168415300Y-93051200D03*
%TO.P,A1,6,~D3*%
%TO.N,D4*%
X168415300Y-90511200D03*
%TO.P,A1,7,D4*%
%TO.N,unconnected-(A1-Pad7)*%
X168415300Y-87971200D03*
%TO.P,A1,8,~D5*%
%TO.N,D5*%
X168415300Y-85431200D03*
%TO.P,A1,9,~D6*%
%TO.N,D6*%
X168415300Y-82891200D03*
%TO.P,A1,10,D7*%
%TO.N,D7*%
X168415300Y-80351200D03*
%TO.P,A1,11,D8*%
%TO.N,VSYNC*%
X168415300Y-77811200D03*
%TO.P,A1,12,~D9*%
%TO.N,XCLK*%
X168415300Y-75271200D03*
%TO.P,A1,13,~D10*%
%TO.N,D0*%
X168415300Y-72731200D03*
%TO.P,A1,14,D11/MOSI*%
%TO.N,unconnected-(A1-Pad14)*%
X168415300Y-70191200D03*
%TO.P,A1,15,~D12/MSIO*%
%TO.N,PWM*%
X168415300Y-67651200D03*
%TO.P,A1,16,D13/SCK*%
%TO.N,unconnected-(A1-Pad16)*%
X153175300Y-67651200D03*
%TO.P,A1,17,3V3*%
%TO.N,3.3V_1*%
X153175300Y-70191200D03*
%TO.P,A1,18,AREF*%
%TO.N,unconnected-(A1-Pad18)*%
X153175300Y-72731200D03*
%TO.P,A1,19,D14/A0*%
%TO.N,PCLK*%
X153175300Y-75271200D03*
%TO.P,A1,20,D15/A1*%
%TO.N,HS*%
X153175300Y-77811200D03*
%TO.P,A1,21,D16/A2*%
%TO.N,bit_2*%
X153175300Y-80351200D03*
%TO.P,A1,22,D17/A3*%
%TO.N,PB*%
X153175300Y-82891200D03*
%TO.P,A1,23,D18/SDA/A4*%
%TO.N,SDA_1*%
X153175300Y-85431200D03*
%TO.P,A1,24,D19/SCL/A5*%
%TO.N,SCL_1*%
X153175300Y-87971200D03*
%TO.P,A1,25,D20/A6*%
%TO.N,bit_1*%
X153175300Y-90511200D03*
%TO.P,A1,26,D21/A7*%
%TO.N,bit_0*%
X153175300Y-93051200D03*
%TO.P,A1,27,+5V*%
%TO.N,5V_1*%
X153175300Y-95591200D03*
%TO.P,A1,28,~{RESET}*%
%TO.N,unconnected-(A1-Pad28)*%
X153175300Y-98131200D03*
%TO.P,A1,29,GND*%
%TO.N,GND*%
X153175300Y-100671200D03*
%TO.P,A1,30,VIN*%
%TO.N,7.4V*%
X153175300Y-103211200D03*
%TD*%
D16*
%TO.P,J3,1,1*%
%TO.N,GND*%
X115301291Y-116053151D03*
D17*
%TO.P,J3,2,2*%
%TO.N,7.4V*%
X111801290Y-116053151D03*
%TD*%
D15*
%TO.P,C2,1*%
%TO.N,5V_2*%
X102289800Y-78883200D03*
%TO.P,C2,2*%
%TO.N,GND*%
X102289800Y-79743200D03*
%TD*%
D19*
%TO.P,F1,1,1*%
%TO.N,7.4V*%
X122667800Y-118813200D03*
D20*
%TO.P,F1,2,2*%
%TO.N,Net-(F1-Pad2)*%
X122667800Y-113733200D03*
%TD*%
D21*
%TO.P,D3,1*%
%TO.N,Net-(D3-Pad1)*%
X181989500Y-72731200D03*
%TO.P,D3,2*%
%TO.N,7.4V*%
X184250100Y-72731200D03*
%TD*%
D22*
%TO.P,D1,1*%
%TO.N,7.4V*%
X158539800Y-116818500D03*
%TO.P,D1,2*%
X158539800Y-114557900D03*
%TD*%
D23*
%TO.P,J1,1,1*%
%TO.N,GND*%
X183314800Y-113951000D03*
D24*
%TO.P,J1,2,2*%
%TO.N,SDL_2*%
X180814800Y-113951000D03*
%TO.P,J1,3,3*%
%TO.N,SDA_2*%
X178314800Y-113951000D03*
%TO.P,J1,4,4*%
%TO.N,3.3V_1*%
X175814800Y-113951000D03*
%TD*%
D25*
%TO.P,S1,1*%
%TO.N,7.4V*%
X138035800Y-115657200D03*
D26*
%TO.P,S1,2*%
%TO.N,Net-(F1-Pad2)*%
X133335800Y-115657200D03*
%TO.P,S1,3*%
%TO.N,unconnected-(S1-Pad3)*%
X128635800Y-115657200D03*
%TD*%
D27*
%TO.P,LED1,1*%
%TO.N,GND*%
X151877800Y-115657200D03*
%TO.P,LED1,2*%
%TO.N,Net-(LED1-Pad2)*%
X149337800Y-115657200D03*
%TD*%
D28*
%TO.P,R2,1*%
%TO.N,3.3V_2*%
X105911000Y-60793200D03*
%TO.P,R2,2*%
%TO.N,OE*%
X107023000Y-60793200D03*
%TD*%
D13*
%TO.P,J9, *%
%TO.N,N/C*%
X186492125Y-82180000D03*
X183825125Y-92670200D03*
X183825125Y-82180000D03*
X186492125Y-92670200D03*
D14*
%TO.P,J9,1,1*%
%TO.N,GND*%
X186468149Y-91734675D03*
%TO.P,J9,2,2*%
%TO.N,3.3V_1*%
X183841483Y-91197045D03*
%TO.P,J9,3,3*%
%TO.N,SDA_1*%
X186464775Y-90729054D03*
%TO.P,J9,4,4*%
%TO.N,SCL_1*%
X183841483Y-90196402D03*
%TO.P,J9,5,5*%
%TO.N,HS*%
X186460790Y-89734490D03*
%TO.P,J9,6,6*%
%TO.N,VSYNC*%
X183831925Y-89208875D03*
%TO.P,J9,7,7*%
%TO.N,XCLK*%
X186460790Y-88723740D03*
%TO.P,J9,8,8*%
%TO.N,PCLK*%
X183831925Y-88200554D03*
%TO.P,J9,9,9*%
%TO.N,D6*%
X186460790Y-87737286D03*
%TO.P,J9,10,10*%
%TO.N,D7*%
X183835975Y-87200332D03*
%TO.P,J9,11,11*%
%TO.N,D4*%
X186467678Y-86732401D03*
%TO.P,J9,12,12*%
%TO.N,D5*%
X183831925Y-86196060D03*
%TO.P,J9,13,13*%
%TO.N,D2*%
X186467678Y-85724238D03*
%TO.P,J9,14,14*%
%TO.N,D3*%
X183836788Y-85189225D03*
%TO.P,J9,15,15*%
%TO.N,D0*%
X186458425Y-84728741D03*
%TO.P,J9,16,16*%
%TO.N,D1*%
X183830957Y-84197911D03*
%TO.P,J9,17,17*%
%TO.N,GND*%
X186458425Y-83729868D03*
%TO.P,J9,18,18*%
%TO.N,3.3V_1*%
X183831324Y-83199385D03*
%TD*%
D29*
%TO.P,U1,1,A1*%
%TO.N,/MOSI*%
X108673300Y-70830200D03*
%TO.P,U1,2,VCCA*%
%TO.N,3.3V_2*%
X108673300Y-70180200D03*
%TO.P,U1,3,A2*%
%TO.N,SCK*%
X108673300Y-69530200D03*
%TO.P,U1,4,A3*%
%TO.N,DC*%
X108673300Y-68880200D03*
%TO.P,U1,5,A4*%
%TO.N,RST*%
X108673300Y-68230200D03*
%TO.P,U1,6,A5*%
%TO.N,CS*%
X108673300Y-67580200D03*
%TO.P,U1,7,A6*%
%TO.N,unconnected-(U1-Pad7)*%
X108673300Y-66930200D03*
%TO.P,U1,8,A7*%
%TO.N,unconnected-(U1-Pad8)*%
X108673300Y-66280200D03*
%TO.P,U1,9,A8*%
%TO.N,unconnected-(U1-Pad9)*%
X108673300Y-65630200D03*
%TO.P,U1,10,OE*%
%TO.N,OE*%
X108673300Y-64980200D03*
%TO.P,U1,11,GND*%
%TO.N,GND*%
X102933300Y-64980200D03*
%TO.P,U1,12,B8*%
%TO.N,unconnected-(U1-Pad12)*%
X102933300Y-65630200D03*
%TO.P,U1,13,B7*%
%TO.N,unconnected-(U1-Pad13)*%
X102933300Y-66280200D03*
%TO.P,U1,14,B6*%
%TO.N,unconnected-(U1-Pad14)*%
X102933300Y-66930200D03*
%TO.P,U1,15,B5*%
%TO.N,CS_5V*%
X102933300Y-67580200D03*
%TO.P,U1,16,B4*%
%TO.N,RST_5V*%
X102933300Y-68230200D03*
%TO.P,U1,17,B3*%
%TO.N,DC_5V*%
X102933300Y-68880200D03*
%TO.P,U1,18,B2*%
%TO.N,SCK_5V*%
X102933300Y-69530200D03*
%TO.P,U1,19,VCCB*%
%TO.N,5V_2*%
X102933300Y-70180200D03*
%TO.P,U1,20,B1*%
%TO.N,MOSI_5V*%
X102933300Y-70830200D03*
%TD*%
D30*
%TO.N,3.3V_1*%
X181623645Y-91197045D03*
X180514800Y-83088200D03*
%TO.N,SDA_2*%
X117064800Y-86838200D03*
%TO.N,SDL_2*%
X119347800Y-87971200D03*
%TO.N,PB*%
X153742251Y-111687700D03*
X162414800Y-111688200D03*
X151142800Y-82891200D03*
X150514800Y-105088200D03*
%TO.N,SCL_1*%
X159014800Y-91788200D03*
X155938800Y-91764200D03*
%TO.N,Net-(LED1-Pad2)*%
X146389800Y-112205200D03*
%TO.N,3.3V_2*%
X110839800Y-76463200D03*
X116314800Y-75388200D03*
X122484800Y-70393200D03*
X105039800Y-77588200D03*
X116306800Y-70180200D03*
%TO.N,GND*%
X139439800Y-58863200D03*
X189156468Y-83729868D03*
X151506799Y-58380199D03*
X154671800Y-115657200D03*
X146314800Y-58438200D03*
X101214800Y-82913200D03*
X109713800Y-95591200D03*
X100337200Y-64980200D03*
X163339800Y-59088200D03*
X155789800Y-56213200D03*
X162527300Y-118750700D03*
X189045325Y-91734675D03*
%TO.N,5V_1*%
X150639800Y-95613200D03*
X150227800Y-59650200D03*
X150239800Y-56213200D03*
X145414800Y-59613200D03*
X144740400Y-57110200D03*
%TO.N,SCK*%
X119739800Y-67963200D03*
X115814800Y-68688200D03*
%TO.N,5V_2*%
X113069615Y-95718015D03*
X101255600Y-75373400D03*
X101255600Y-76822400D03*
%TO.N,CS*%
X118324799Y-80343202D03*
X117364800Y-69288200D03*
%TO.N,DC*%
X118789800Y-83088200D03*
X113839800Y-68688200D03*
%TO.N,RST*%
X112289800Y-68137700D03*
X121764800Y-89713200D03*
%TO.N,RST_5V*%
X99876400Y-68674800D03*
X99214300Y-92898800D03*
%TO.N,DC_5V*%
X105564800Y-74913200D03*
X101397800Y-68880200D03*
%TO.N,SCK_5V*%
X99939800Y-74013200D03*
X101286859Y-95063659D03*
%TO.N,7.4V*%
X158539800Y-112613200D03*
X189346800Y-72731200D03*
X158539800Y-118563200D03*
X143764800Y-119538200D03*
%TO.N,HS*%
X156954800Y-85353200D03*
X156954800Y-87628200D03*
%TO.N,XCLK*%
X190736800Y-82931200D03*
X190736800Y-88519200D03*
%TO.N,PCLK*%
X174914300Y-95885200D03*
X178036800Y-89985200D03*
X150306800Y-75271200D03*
X176004800Y-94615200D03*
%TO.N,D4*%
X185148800Y-91821200D03*
X175106672Y-89022401D03*
%TO.N,D6*%
X174368800Y-85217200D03*
X192006800Y-88773200D03*
%TO.N,D1*%
X180514800Y-84197911D03*
X171139800Y-102613200D03*
%TO.N,D3*%
X176263099Y-87253499D03*
X180514800Y-85217200D03*
%TO.N,D5*%
X181592800Y-86233200D03*
X179159800Y-86233200D03*
%TD*%
D31*
%TO.N,3.3V_1*%
X183841483Y-91197045D02*
X181623645Y-91197045D01*
X180625985Y-83199385D02*
X180514800Y-83088200D01*
X183831324Y-83199385D02*
X180625985Y-83199385D01*
%TO.N,bit_0*%
X144089800Y-81788200D02*
X144089800Y-86332200D01*
X142854800Y-80553200D02*
X144089800Y-81788200D01*
X140364800Y-80553200D02*
X142854800Y-80553200D01*
X150808800Y-93051200D02*
X153175300Y-93051200D01*
X144089800Y-86332200D02*
X150808800Y-93051200D01*
%TO.N,bit_1*%
X150516800Y-90511200D02*
X153175300Y-90511200D01*
X142789800Y-78013200D02*
X145114800Y-80338200D01*
X145114800Y-80338200D02*
X145114800Y-85534200D01*
X150489800Y-90538200D02*
X150516800Y-90511200D01*
X145114800Y-85534200D02*
X150118800Y-90538200D01*
X140364800Y-78013200D02*
X142789800Y-78013200D01*
X150118800Y-90538200D02*
X150489800Y-90538200D01*
%TO.N,bit_2*%
X142849800Y-75473200D02*
X146064800Y-78688200D01*
X146064800Y-78688200D02*
X149614800Y-78688200D01*
X151303200Y-80376600D02*
X153149900Y-80376600D01*
X140364800Y-75473200D02*
X142849800Y-75473200D01*
X149614800Y-78688200D02*
X151303200Y-80376600D01*
X153149900Y-80376600D02*
X153175300Y-80351200D01*
%TO.N,SDA_2*%
X125124800Y-85633200D02*
X118269800Y-85633200D01*
X118269800Y-85633200D02*
X117064800Y-86838200D01*
%TO.N,SDL_2*%
X124097800Y-87971200D02*
X124299800Y-88173200D01*
X124299800Y-88173200D02*
X125124800Y-88173200D01*
X119347800Y-87971200D02*
X124097800Y-87971200D01*
%TO.N,PB*%
X150514800Y-105088200D02*
X150514800Y-109263200D01*
X153175300Y-82891200D02*
X151142800Y-82891200D01*
X152939300Y-111687700D02*
X153742251Y-111687700D01*
X150514800Y-109263200D02*
X152939300Y-111687700D01*
X162456900Y-111730300D02*
X162414800Y-111688200D01*
X162456900Y-113649200D02*
X162456900Y-111730300D01*
X162406900Y-113649200D02*
X169288700Y-113649200D01*
%TO.N,SDA_1*%
X180576800Y-97155200D02*
X180568800Y-97163200D01*
X190914654Y-90729054D02*
X191414800Y-91229200D01*
X167949309Y-97006200D02*
X167792309Y-97163200D01*
X158224800Y-87757200D02*
X155898800Y-85431200D01*
X186464775Y-90729054D02*
X190914654Y-90729054D01*
X158224800Y-95377200D02*
X158224800Y-87757200D01*
X169038291Y-97163200D02*
X168881291Y-97006200D01*
X188450800Y-97155200D02*
X180576800Y-97155200D01*
X180568800Y-97163200D02*
X169038291Y-97163200D01*
X167792309Y-97163200D02*
X160010800Y-97163200D01*
X155898800Y-85431200D02*
X153175300Y-85431200D01*
X191414800Y-94191200D02*
X188450800Y-97155200D01*
X168881291Y-97006200D02*
X167949309Y-97006200D01*
X191414800Y-91229200D02*
X191414800Y-94191200D01*
X160010800Y-97163200D02*
X158224800Y-95377200D01*
%TO.N,SCL_1*%
X168696291Y-94361200D02*
X161587800Y-94361200D01*
X171744291Y-91313200D02*
X168696291Y-94361200D01*
X153175300Y-87971200D02*
X155644800Y-87971200D01*
X183841483Y-90196402D02*
X181218793Y-90196402D01*
X180101995Y-91313200D02*
X171744291Y-91313200D01*
X155684800Y-88011200D02*
X155938800Y-88265200D01*
X155938800Y-88265200D02*
X155938800Y-91764200D01*
X161587800Y-94361200D02*
X159014800Y-91788200D01*
X181218793Y-90196402D02*
X180101995Y-91313200D01*
%TO.N,Net-(LED1-Pad2)*%
X143749800Y-112205200D02*
X146389800Y-112205200D01*
%TO.N,/MOSI*%
X122814800Y-62413200D02*
X139714800Y-62413200D01*
X108673300Y-70830200D02*
X109713800Y-71870700D01*
X117282300Y-71870700D02*
X118389800Y-70763200D01*
X142189800Y-64888200D02*
X142189800Y-68568200D01*
X139714800Y-62413200D02*
X142189800Y-64888200D01*
X142189800Y-68568200D02*
X140364800Y-70393200D01*
X109713800Y-71870700D02*
X117282300Y-71870700D01*
X118389800Y-66838200D02*
X122814800Y-62413200D01*
X118389800Y-70763200D02*
X118389800Y-66838200D01*
%TO.N,3.3V_2*%
X105039800Y-77588200D02*
X105039800Y-79094500D01*
X125124800Y-70393200D02*
X122484800Y-70393200D01*
X105811000Y-60793200D02*
X105811000Y-69539600D01*
X116314800Y-75388200D02*
X115239800Y-76463200D01*
X115239800Y-76463200D02*
X110839800Y-76463200D01*
X108673300Y-70180200D02*
X116306800Y-70180200D01*
X106451600Y-70180200D02*
X108673300Y-70180200D01*
X105811000Y-69539600D02*
X106451600Y-70180200D01*
%TO.N,GND*%
X154671800Y-115657200D02*
X151877800Y-115657200D01*
X109595511Y-95594489D02*
X106657368Y-95594489D01*
X101255600Y-79714400D02*
X101255600Y-82872400D01*
X101255600Y-79714400D02*
X105014400Y-79714400D01*
X105014400Y-79714400D02*
X105039800Y-79689000D01*
X102933300Y-64980200D02*
X100337200Y-64980200D01*
X186458425Y-83729868D02*
X189156468Y-83729868D01*
X101255600Y-82872400D02*
X101214800Y-82913200D01*
X162406900Y-116649200D02*
X169288700Y-116649200D01*
X162456900Y-116649200D02*
X162456900Y-118680300D01*
X186468149Y-91734675D02*
X189045325Y-91734675D01*
%TO.N,OE*%
X109459800Y-60793200D02*
X110348800Y-61682200D01*
X110094800Y-64984200D02*
X108677300Y-64984200D01*
X107123000Y-60793200D02*
X109459800Y-60793200D01*
X110348800Y-64730200D02*
X110094800Y-64984200D01*
X108677300Y-64984200D02*
X108673300Y-64980200D01*
X110348800Y-61682200D02*
X110348800Y-64730200D01*
%TO.N,SCK*%
X108673300Y-69530200D02*
X114972800Y-69530200D01*
X114972800Y-69530200D02*
X115814800Y-68688200D01*
X119849800Y-67853200D02*
X119739800Y-67963200D01*
X125124800Y-67853200D02*
X119849800Y-67853200D01*
%TO.N,5V_2*%
X102145689Y-70180200D02*
X101255600Y-71070289D01*
X101255600Y-71070289D02*
X101255600Y-75373400D01*
X101255600Y-77849000D02*
X102289800Y-78883200D01*
X102933300Y-70180200D02*
X102145689Y-70180200D01*
X112194615Y-96593015D02*
X113069615Y-95718015D01*
X106657001Y-96593015D02*
X112194615Y-96593015D01*
X101255600Y-76822400D02*
X101255600Y-77849000D01*
%TO.N,Net-(D3-Pad1)*%
X181595800Y-72387500D02*
X181939500Y-72731200D01*
X183373800Y-65563201D02*
X181595800Y-67341201D01*
X181595800Y-67341201D02*
X181595800Y-72387500D01*
%TO.N,CS*%
X118534797Y-80553200D02*
X118324799Y-80343202D01*
X108673300Y-67580200D02*
X110122800Y-67580200D01*
X116914800Y-67413200D02*
X117364800Y-67863200D01*
X117364800Y-67863200D02*
X117364800Y-69288200D01*
X110122800Y-67580200D02*
X110289800Y-67413200D01*
X110289800Y-67413200D02*
X116914800Y-67413200D01*
X125124800Y-80553200D02*
X118534797Y-80553200D01*
%TO.N,DC*%
X108673300Y-68880200D02*
X113647800Y-68880200D01*
X113647800Y-68880200D02*
X113839800Y-68688200D01*
X118789800Y-83088200D02*
X118794800Y-83093200D01*
X118794800Y-83093200D02*
X125124800Y-83093200D01*
%TO.N,RST*%
X122764800Y-90713200D02*
X121764800Y-89713200D01*
X125124800Y-90713200D02*
X122764800Y-90713200D01*
X108673300Y-68230200D02*
X112197300Y-68230200D01*
X112197300Y-68230200D02*
X112289800Y-68137700D01*
%TO.N,CS_5V*%
X106652350Y-92592068D02*
X106877350Y-92592068D01*
X104849500Y-76097900D02*
X99824500Y-76097900D01*
X99548600Y-67580200D02*
X102933300Y-67580200D01*
X99824500Y-76097900D02*
X99089800Y-75363200D01*
X99089800Y-75363200D02*
X99089800Y-68039000D01*
X106877350Y-92592068D02*
X109790000Y-89679418D01*
X99089800Y-68039000D02*
X99548600Y-67580200D01*
X109790000Y-89679418D02*
X109790000Y-81038400D01*
X109790000Y-81038400D02*
X104849500Y-76097900D01*
%TO.N,RST_5V*%
X100395501Y-68155699D02*
X99876400Y-68674800D01*
X102858799Y-68155699D02*
X100395501Y-68155699D01*
X104020647Y-93059999D02*
X99375499Y-93059999D01*
X102933300Y-68230200D02*
X102858799Y-68155699D01*
X99375499Y-93059999D02*
X99214300Y-92898800D01*
%TO.N,DC_5V*%
X106656400Y-93596340D02*
X106881400Y-93596340D01*
X110348800Y-79697200D02*
X105564800Y-74913200D01*
X110348800Y-90128940D02*
X110348800Y-79697200D01*
X102933300Y-68880200D02*
X101397800Y-68880200D01*
X106881400Y-93596340D02*
X110348800Y-90128940D01*
%TO.N,MOSI_5V*%
X110939800Y-80124600D02*
X110933000Y-80131400D01*
X106876537Y-94603175D02*
X106651537Y-94603175D01*
X110933000Y-90546712D02*
X106876537Y-94603175D01*
X110933000Y-80131400D02*
X110933000Y-90546712D01*
X102933300Y-70830200D02*
X110939800Y-78836700D01*
X110939800Y-78836700D02*
X110939800Y-80124600D01*
%TO.N,SCK_5V*%
X101772398Y-69530200D02*
X99939800Y-71362798D01*
X99939800Y-71362798D02*
X99939800Y-74013200D01*
X102933300Y-69530200D02*
X101772398Y-69530200D01*
X104029900Y-95063659D02*
X101286859Y-95063659D01*
%TO.N,7.4V*%
X158539800Y-112613200D02*
X158539800Y-114557900D01*
X184300100Y-72731200D02*
X189346800Y-72731200D01*
X143749800Y-118093200D02*
X143749800Y-119553200D01*
X158539800Y-116818500D02*
X158539800Y-118563200D01*
%TO.N,HS*%
X192714800Y-94669200D02*
X188112800Y-99271200D01*
X186460790Y-89734490D02*
X191698090Y-89734490D01*
X188112800Y-99271200D02*
X159747800Y-99271200D01*
X191698090Y-89734490D02*
X192714800Y-90751200D01*
X156954800Y-81590700D02*
X156954800Y-85353200D01*
X156954800Y-96478200D02*
X156954800Y-87628200D01*
X153175300Y-77811200D02*
X156954800Y-81590700D01*
X159747800Y-99271200D02*
X156954800Y-96478200D01*
X192714800Y-90751200D02*
X192714800Y-94669200D01*
%TO.N,VSYNC*%
X168415300Y-77811200D02*
X181312800Y-77811200D01*
X185148800Y-81661200D02*
X185148800Y-88117000D01*
X185148800Y-88117000D02*
X184056925Y-89208875D01*
X181312800Y-77811200D02*
X183878800Y-80377200D01*
X183878800Y-80391200D02*
X185148800Y-81661200D01*
X184056925Y-89208875D02*
X183831925Y-89208875D01*
X183878800Y-80377200D02*
X183878800Y-80391200D01*
%TO.N,XCLK*%
X168415300Y-75271200D02*
X168932300Y-75788200D01*
X190532260Y-88723740D02*
X190736800Y-88519200D01*
X186460790Y-88723740D02*
X190532260Y-88723740D01*
X187403800Y-75788200D02*
X190736800Y-79121200D01*
X168932300Y-75788200D02*
X187403800Y-75788200D01*
X190736800Y-79121200D02*
X190736800Y-82931200D01*
%TO.N,PCLK*%
X174914300Y-95705700D02*
X174914300Y-95885200D01*
X176004800Y-94615200D02*
X174914300Y-95705700D01*
X183831925Y-88200554D02*
X179821446Y-88200554D01*
X179821446Y-88200554D02*
X178036800Y-89985200D01*
X153175300Y-75271200D02*
X150306800Y-75271200D01*
%TO.N,D4*%
X185710790Y-91005210D02*
X185148800Y-91567200D01*
X186190675Y-86732401D02*
X185710790Y-87212286D01*
X185148800Y-91567200D02*
X185148800Y-91821200D01*
X185710790Y-87212286D02*
X185710790Y-91005210D01*
X169904099Y-89022401D02*
X175106672Y-89022401D01*
X186467678Y-86732401D02*
X186190675Y-86732401D01*
X168415300Y-90511200D02*
X169904099Y-89022401D01*
%TO.N,D7*%
X181289932Y-87200332D02*
X183835975Y-87200332D01*
X174440800Y-80351200D02*
X181289932Y-87200332D01*
X168415300Y-80351200D02*
X174440800Y-80351200D01*
%TO.N,D6*%
X191224886Y-87737286D02*
X192006800Y-88773200D01*
X186460790Y-87737286D02*
X191224886Y-87737286D01*
X172042800Y-82891200D02*
X174368800Y-85217200D01*
X168415300Y-82891200D02*
X172042800Y-82891200D01*
%TO.N,D1*%
X183830957Y-84197911D02*
X180580089Y-84197911D01*
X170541800Y-103211200D02*
X171139800Y-102613200D01*
X168415300Y-103211200D02*
X170541800Y-103211200D01*
%TO.N,D2*%
X168415300Y-100671200D02*
X188236800Y-100671200D01*
X193276800Y-95631200D02*
X193276800Y-88773200D01*
X188236800Y-100671200D02*
X193276800Y-95631200D01*
X190227838Y-85724238D02*
X186467678Y-85724238D01*
X193276800Y-88773200D02*
X190227838Y-85724238D01*
%TO.N,D3*%
X175665409Y-89746901D02*
X176263099Y-89149211D01*
X168415300Y-93051200D02*
X171719599Y-89746901D01*
X171719599Y-89746901D02*
X175665409Y-89746901D01*
X176263099Y-89149211D02*
X176263099Y-87253499D01*
X183836788Y-85189225D02*
X180604775Y-85189225D01*
X180604775Y-85189225D02*
X180576800Y-85217200D01*
%TO.N,D5*%
X183831925Y-86196060D02*
X181629940Y-86196060D01*
X169217300Y-86233200D02*
X179159800Y-86233200D01*
X181629940Y-86196060D02*
X181592800Y-86233200D01*
X168415300Y-85431200D02*
X169217300Y-86233200D01*
%TO.N,D0*%
X190463259Y-84728741D02*
X186458425Y-84728741D01*
X191498800Y-78867200D02*
X191498800Y-83693200D01*
X187453299Y-74821699D02*
X191498800Y-78867200D01*
X170505799Y-74821699D02*
X187453299Y-74821699D01*
X168415300Y-72731200D02*
X170505799Y-74821699D01*
X191498800Y-83693200D02*
X190463259Y-84728741D01*
%TD*%
M02*
